<svg xmlns="http://www.w3.org/2000/svg" xmlns:xlink="http://www.w3.org/1999/xlink" viewBox="0 0 3710 3710"><defs><style>.cls-1{fill:none;}.cls-2{isolation:isolate;}.cls-3{clip-path:url(#clip-path);}.cls-4{fill:#fff;}.cls-5{opacity:0;fill:url(#linear-gradient);}.cls-6{fill:url(#linear-gradient-2);}.cls-7{fill:url(#linear-gradient-3);}.cls-8{fill:url(#linear-gradient-4);}.cls-9{fill:#fcb048;}.cls-10{fill:url(#linear-gradient-5);}.cls-11{fill:url(#linear-gradient-6);}.cls-12{fill:url(#linear-gradient-7);}.cls-13{fill:url(#linear-gradient-8);}.cls-14{fill:url(#linear-gradient-9);}.cls-15{fill:url(#linear-gradient-10);}.cls-16{fill:url(#linear-gradient-11);}.cls-17{fill:url(#linear-gradient-12);}.cls-18{fill:url(#linear-gradient-13);}.cls-19{fill:url(#linear-gradient-14);}.cls-20{fill:url(#linear-gradient-15);}.cls-21{fill:url(#linear-gradient-16);}.cls-22{fill:url(#linear-gradient-17);}.cls-23{fill:url(#linear-gradient-18);}.cls-24{fill:url(#linear-gradient-19);}.cls-25{fill:url(#linear-gradient-20);}.cls-26{fill:url(#linear-gradient-21);}.cls-27{fill:url(#linear-gradient-22);}.cls-28{fill:url(#linear-gradient-23);}.cls-29{fill:url(#linear-gradient-24);}.cls-30{fill:url(#linear-gradient-25);}.cls-31{fill:url(#linear-gradient-26);}.cls-32{fill:url(#linear-gradient-27);}.cls-33{fill:url(#linear-gradient-28);}.cls-34{fill:url(#linear-gradient-29);}.cls-35{fill:url(#linear-gradient-30);}.cls-36{fill:url(#linear-gradient-31);}.cls-37{fill:url(#linear-gradient-32);}.cls-38{fill:url(#linear-gradient-33);}.cls-39{fill:url(#linear-gradient-34);}.cls-40{fill:url(#linear-gradient-35);}.cls-41{fill:url(#linear-gradient-36);}.cls-42{fill:url(#linear-gradient-37);}.cls-43{fill:url(#linear-gradient-38);}.cls-44{fill:url(#linear-gradient-39);}.cls-45{fill:url(#linear-gradient-40);}.cls-46{fill:url(#linear-gradient-41);}.cls-47{fill:url(#linear-gradient-42);}.cls-48,.cls-52,.cls-59,.cls-61,.cls-65,.cls-81,.cls-82{mix-blend-mode:multiply;}.cls-48,.cls-52,.cls-59{opacity:0.3;}.cls-48{fill:url(#linear-gradient-43);}.cls-49{fill:url(#linear-gradient-44);}.cls-50{fill:url(#linear-gradient-45);}.cls-51{fill:url(#linear-gradient-46);}.cls-52{fill:url(#linear-gradient-47);}.cls-53{fill:url(#linear-gradient-48);}.cls-54{fill:url(#linear-gradient-49);}.cls-55{fill:url(#linear-gradient-50);}.cls-56{fill:url(#linear-gradient-51);}.cls-57{fill:url(#linear-gradient-52);}.cls-58{fill:url(#linear-gradient-53);}.cls-59{fill:url(#linear-gradient-54);}.cls-60{fill:url(#linear-gradient-55);}.cls-61{opacity:0.2;}.cls-62{fill:url(#linear-gradient-56);}.cls-63{fill:url(#linear-gradient-57);}.cls-64{fill:url(#linear-gradient-58);}.cls-65,.cls-82{opacity:0.1;}.cls-65{fill:url(#linear-gradient-59);}.cls-66{fill:url(#linear-gradient-60);}.cls-67{fill:url(#linear-gradient-61);}.cls-68{fill:url(#linear-gradient-62);}.cls-69{fill:url(#linear-gradient-63);}.cls-70{fill:url(#linear-gradient-64);}.cls-71{fill:url(#linear-gradient-65);}.cls-72{fill:url(#linear-gradient-66);}.cls-73{fill:url(#linear-gradient-67);}.cls-74{fill:url(#linear-gradient-68);}.cls-75{fill:url(#linear-gradient-69);}.cls-76{fill:#26264f;}.cls-77{fill:url(#linear-gradient-70);}.cls-78{fill:url(#linear-gradient-71);}.cls-79{fill:#ced3db;}.cls-80,.cls-81,.cls-82{fill:#97a6b7;}.cls-81,.cls-84{opacity:0.5;}.cls-83{fill:url(#linear-gradient-72);}.cls-85{fill:url(#linear-gradient-73);}</style><clipPath id="clip-path"><rect class="cls-1" width="3710" height="3710"/></clipPath><linearGradient id="linear-gradient" x1="207.01" y1="1855" x2="3502.99" y2="1855" gradientUnits="userSpaceOnUse"><stop offset="0" stop-color="#58a0ff"/><stop offset="0.45" stop-color="#5888ff"/><stop offset="1" stop-color="#5966ff"/></linearGradient><linearGradient id="linear-gradient-2" x1="2483.77" y1="3035.61" x2="3324.8" y2="3035.61" gradientUnits="userSpaceOnUse"><stop offset="0" stop-color="#fcb148"/><stop offset="0.05" stop-color="#fdba46"/><stop offset="0.14" stop-color="#ffc244"/><stop offset="0.32" stop-color="#ffc444"/><stop offset="0.48" stop-color="#fdb946"/><stop offset="0.78" stop-color="#f99c4d"/><stop offset="0.87" stop-color="#f8924f"/><stop offset="1" stop-color="#f8924f"/></linearGradient><linearGradient id="linear-gradient-3" x1="2908.15" y1="2940.87" x2="2952.49" y2="3312.04" gradientUnits="userSpaceOnUse"><stop offset="0" stop-color="#ffdb44"/><stop offset="1" stop-color="#feef06"/></linearGradient><linearGradient id="linear-gradient-4" x1="2906.22" y1="2924.31" x2="2919.84" y2="3038.31" xlink:href="#linear-gradient-3"/><linearGradient id="linear-gradient-5" x1="-1249.77" y1="1101.48" x2="-1236.2" y2="1215.07" gradientTransform="translate(1669.25 4127.84) rotate(180)" gradientUnits="userSpaceOnUse"><stop offset="0" stop-color="#f36f56"/><stop offset="0.31" stop-color="#f99c4c"/><stop offset="0.55" stop-color="#fdb946"/><stop offset="0.68" stop-color="#ffc444"/><stop offset="0.8" stop-color="#ffc244"/><stop offset="0.87" stop-color="#feba46"/><stop offset="0.92" stop-color="#fcad49"/><stop offset="0.96" stop-color="#f99a4d"/><stop offset="1" stop-color="#f68252"/><stop offset="1" stop-color="#f57e53"/></linearGradient><linearGradient id="linear-gradient-6" x1="2382.15" y1="2950.45" x2="3223.19" y2="2950.45" xlink:href="#linear-gradient-2"/><linearGradient id="linear-gradient-7" x1="2806.53" y1="2855.71" x2="2850.87" y2="3226.88" xlink:href="#linear-gradient-3"/><linearGradient id="linear-gradient-8" x1="2804.61" y1="2839.15" x2="2818.22" y2="2953.15" xlink:href="#linear-gradient-3"/><linearGradient id="linear-gradient-9" x1="-1148.16" y1="1186.64" x2="-1134.59" y2="1300.23" xlink:href="#linear-gradient-5"/><linearGradient id="linear-gradient-10" x1="2469.83" y1="2865.53" x2="3310.87" y2="2865.53" xlink:href="#linear-gradient-2"/><linearGradient id="linear-gradient-11" x1="2894.21" y1="2770.8" x2="2938.55" y2="3141.97" xlink:href="#linear-gradient-3"/><linearGradient id="linear-gradient-12" x1="2892.29" y1="2754.24" x2="2905.9" y2="2868.24" xlink:href="#linear-gradient-3"/><linearGradient id="linear-gradient-13" x1="-1235.84" y1="1271.55" x2="-1222.27" y2="1385.14" xlink:href="#linear-gradient-5"/><linearGradient id="linear-gradient-14" x1="2523.04" y1="2780.38" x2="3364.07" y2="2780.38" xlink:href="#linear-gradient-2"/><linearGradient id="linear-gradient-15" x1="2947.42" y1="2685.64" x2="2991.76" y2="3056.81" xlink:href="#linear-gradient-3"/><linearGradient id="linear-gradient-16" x1="2945.49" y1="2669.08" x2="2959.11" y2="2783.08" xlink:href="#linear-gradient-3"/><linearGradient id="linear-gradient-17" x1="-1289.04" y1="1356.71" x2="-1275.48" y2="1470.3" xlink:href="#linear-gradient-5"/><linearGradient id="linear-gradient-18" x1="2483.77" y1="2688.5" x2="3324.8" y2="2688.5" xlink:href="#linear-gradient-2"/><linearGradient id="linear-gradient-19" x1="2908.15" y1="2593.76" x2="2952.49" y2="2964.94" xlink:href="#linear-gradient-3"/><linearGradient id="linear-gradient-20" x1="2906.22" y1="2577.2" x2="2919.84" y2="2691.2" xlink:href="#linear-gradient-3"/><linearGradient id="linear-gradient-21" x1="-1249.77" y1="1448.59" x2="-1236.2" y2="1562.18" xlink:href="#linear-gradient-5"/><linearGradient id="linear-gradient-22" x1="2382.15" y1="2603.34" x2="3223.19" y2="2603.34" xlink:href="#linear-gradient-2"/><linearGradient id="linear-gradient-23" x1="2806.53" y1="2508.6" x2="2850.87" y2="2879.78" xlink:href="#linear-gradient-3"/><linearGradient id="linear-gradient-24" x1="2804.61" y1="2492.04" x2="2818.22" y2="2606.04" xlink:href="#linear-gradient-3"/><linearGradient id="linear-gradient-25" x1="-1148.16" y1="1533.75" x2="-1134.59" y2="1647.34" xlink:href="#linear-gradient-5"/><linearGradient id="linear-gradient-26" x1="2469.83" y1="2518.43" x2="3310.87" y2="2518.43" xlink:href="#linear-gradient-2"/><linearGradient id="linear-gradient-27" x1="2894.21" y1="2423.69" x2="2938.55" y2="2794.87" xlink:href="#linear-gradient-3"/><linearGradient id="linear-gradient-28" x1="2892.29" y1="2407.13" x2="2905.9" y2="2521.13" xlink:href="#linear-gradient-3"/><linearGradient id="linear-gradient-29" x1="-1235.84" y1="1618.66" x2="-1222.27" y2="1732.25" xlink:href="#linear-gradient-5"/><linearGradient id="linear-gradient-30" x1="2424.23" y1="2433.27" x2="3265.26" y2="2433.27" xlink:href="#linear-gradient-2"/><linearGradient id="linear-gradient-31" x1="2848.61" y1="2338.53" x2="2892.95" y2="2709.71" xlink:href="#linear-gradient-3"/><linearGradient id="linear-gradient-32" x1="2846.68" y1="2321.97" x2="2860.3" y2="2435.97" xlink:href="#linear-gradient-3"/><linearGradient id="linear-gradient-33" x1="-1190.23" y1="1703.82" x2="-1176.66" y2="1817.41" xlink:href="#linear-gradient-5"/><linearGradient id="linear-gradient-34" x1="1621.4" y1="1110.16" x2="1759.7" y2="2394.33" gradientUnits="userSpaceOnUse"><stop offset="0" stop-color="#ab316d"/><stop offset="1" stop-color="#792d3d"/></linearGradient><linearGradient id="linear-gradient-35" x1="3057.97" y1="955.45" x2="3196.26" y2="2239.62" xlink:href="#linear-gradient-34"/><linearGradient id="linear-gradient-36" x1="804.13" y1="2555.11" x2="1740.76" y2="1912.05" xlink:href="#linear-gradient"/><linearGradient id="linear-gradient-37" x1="927.58" y1="2734.91" x2="1864.21" y2="2091.86" xlink:href="#linear-gradient"/><linearGradient id="linear-gradient-38" x1="-440.03" y1="2781.51" x2="-230.12" y2="3539.02" gradientTransform="matrix(-1, 0, 0, 1, 1083.87, 0)" gradientUnits="userSpaceOnUse"><stop offset="0" stop-color="#311944"/><stop offset="1" stop-color="#893976"/></linearGradient><linearGradient id="linear-gradient-39" x1="-253.21" y1="3317.07" x2="-250.17" y2="3061.53" gradientTransform="matrix(-1, 0, 0, 1, 1083.87, 0)" gradientUnits="userSpaceOnUse"><stop offset="0" stop-color="#ffc444"/><stop offset="1" stop-color="#f36f56"/></linearGradient><linearGradient id="linear-gradient-40" x1="-177.23" y1="2708.68" x2="32.69" y2="3466.2" xlink:href="#linear-gradient-38"/><linearGradient id="linear-gradient-41" x1="42.29" y1="3320.6" x2="45.33" y2="3065.04" xlink:href="#linear-gradient-39"/><linearGradient id="linear-gradient-42" x1="-400.51" y1="2495.21" x2="-128.43" y2="2495.21" gradientTransform="matrix(-1, 0, 0, 1, 1083.87, 0)" gradientUnits="userSpaceOnUse"><stop offset="0" stop-color="#444b8c"/><stop offset="1" stop-color="#26264f"/></linearGradient><linearGradient id="linear-gradient-43" x1="-400.51" y1="2495.21" x2="-128.43" y2="2495.21" xlink:href="#linear-gradient-42"/><linearGradient id="linear-gradient-44" x1="-246.9" y1="2534.08" x2="166.12" y2="2534.08" xlink:href="#linear-gradient-42"/><linearGradient id="linear-gradient-45" x1="2537.24" y1="1448.62" x2="1873.21" y2="1280.87" gradientUnits="userSpaceOnUse"><stop offset="0" stop-color="#5df5ff"/><stop offset="0.55" stop-color="#55d0ff"/><stop offset="1" stop-color="#4eaeff"/></linearGradient><linearGradient id="linear-gradient-46" x1="1684.68" y1="1602.92" x2="1223.36" y2="1519.04" xlink:href="#linear-gradient-45"/><linearGradient id="linear-gradient-47" x1="583.21" y1="2583.09" x2="-338.59" y2="1259.7" gradientTransform="matrix(-1, 0, 0, 1, 1083.87, 0)" gradientUnits="userSpaceOnUse"><stop offset="0" stop-color="#6165d7"/><stop offset="1" stop-color="#aa80f9"/></linearGradient><linearGradient id="linear-gradient-48" x1="279.89" y1="2031.39" x2="324.4" y2="2031.39" xlink:href="#linear-gradient-39"/><linearGradient id="linear-gradient-49" x1="208.77" y1="2121.79" x2="219.46" y2="1962.71" gradientTransform="matrix(-1, 0, 0, 1, 1083.87, 0)" gradientUnits="userSpaceOnUse"><stop offset="0.1" stop-color="#311944"/><stop offset="0.27" stop-color="#371b47"/><stop offset="0.48" stop-color="#462150"/><stop offset="0.72" stop-color="#612a5f"/><stop offset="0.97" stop-color="#853774"/><stop offset="1" stop-color="#893976"/></linearGradient><linearGradient id="linear-gradient-50" x1="148.87" y1="2007.19" x2="271.08" y2="2072.71" xlink:href="#linear-gradient-49"/><linearGradient id="linear-gradient-51" x1="106.84" y1="2034.66" x2="146.12" y2="2034.66" xlink:href="#linear-gradient-39"/><linearGradient id="linear-gradient-52" x1="-24.83" y1="2211.74" x2="-94.68" y2="1573.22" gradientTransform="matrix(-1, 0, 0, 1, 1083.87, 0)" gradientUnits="userSpaceOnUse"><stop offset="0.1" stop-color="#311944"/><stop offset="0.69" stop-color="#6d2f66"/><stop offset="1" stop-color="#893976"/></linearGradient><linearGradient id="linear-gradient-53" x1="279.09" y1="2476.69" x2="-183.48" y2="2219.12" xlink:href="#linear-gradient-38"/><linearGradient id="linear-gradient-54" x1="-138.33" y1="2118.31" x2="1.16" y2="2352.23" xlink:href="#linear-gradient-38"/><linearGradient id="linear-gradient-55" x1="217.1" y1="1839.27" x2="267.98" y2="2522.08" xlink:href="#linear-gradient-52"/><linearGradient id="linear-gradient-56" x1="126.73" y1="2225.8" x2="501.35" y2="2514.45" xlink:href="#linear-gradient-38"/><linearGradient id="linear-gradient-57" x1="30.23" y1="2186.63" x2="187.98" y2="2180.51" xlink:href="#linear-gradient-52"/><linearGradient id="linear-gradient-58" x1="275.77" y1="2715.79" x2="220.99" y2="2100.21" xlink:href="#linear-gradient-49"/><linearGradient id="linear-gradient-59" x1="302.47" y1="2858.58" x2="209.56" y2="2009.34" xlink:href="#linear-gradient-38"/><linearGradient id="linear-gradient-60" x1="433.47" y1="2411.06" x2="153.33" y2="2264.62" xlink:href="#linear-gradient-39"/><linearGradient id="linear-gradient-61" x1="182.32" y1="2287.15" x2="468.23" y2="2389.45" xlink:href="#linear-gradient-39"/><linearGradient id="linear-gradient-62" x1="240.59" y1="2198.15" x2="216.71" y2="1929.78" xlink:href="#linear-gradient-39"/><linearGradient id="linear-gradient-63" x1="1121.39" y1="1565.51" x2="841.8" y2="1383.78" xlink:href="#linear-gradient-45"/><linearGradient id="linear-gradient-64" x1="-247.29" y1="1104.85" x2="-247.29" y2="838.55" xlink:href="#linear-gradient-39"/><linearGradient id="linear-gradient-65" x1="-193.51" y1="1024.4" x2="-303.73" y2="744.46" gradientTransform="matrix(-1, 0, 0, 1, 1083.87, 0)" gradientUnits="userSpaceOnUse"><stop offset="0" stop-color="#444b8c"/><stop offset="1" stop-color="#3e4177"/></linearGradient><linearGradient id="linear-gradient-66" x1="-2760.51" y1="2666.29" x2="-2637.3" y2="2426.71" gradientTransform="matrix(-0.83, 0.56, 0.56, 0.83, -2274.09, 289.04)" xlink:href="#linear-gradient-39"/><linearGradient id="linear-gradient-67" x1="4174.89" y1="877.11" x2="4197.11" y2="1202.72" gradientTransform="translate(-2798.49)" xlink:href="#linear-gradient-42"/><linearGradient id="linear-gradient-68" x1="4114.73" y1="1525.81" x2="4114.73" y2="794.41" gradientTransform="translate(-2798.49)" xlink:href="#linear-gradient-42"/><linearGradient id="linear-gradient-69" x1="2878.6" y1="750.73" x2="2296.51" y2="722.1" gradientUnits="userSpaceOnUse"><stop offset="0" stop-color="#ff9085"/><stop offset="1" stop-color="#fb6fbb"/></linearGradient><linearGradient id="linear-gradient-70" x1="3200.91" y1="1061.63" x2="3025.05" y2="1256.43" gradientTransform="translate(-818.04)" xlink:href="#linear-gradient-39"/><linearGradient id="linear-gradient-71" x1="1954.91" y1="2380.48" x2="2871.17" y2="2380.48" gradientUnits="userSpaceOnUse"><stop offset="0.49" stop-color="#ebeff2"/><stop offset="1" stop-color="#fff"/></linearGradient><linearGradient id="linear-gradient-72" x1="1669.18" y1="2586.43" x2="1274.99" y2="3338.61" gradientTransform="translate(-194.32 150.86) rotate(-14.54)" xlink:href="#linear-gradient"/><linearGradient id="linear-gradient-73" x1="1769.25" y1="3342.6" x2="1839.15" y2="3021.07" xlink:href="#linear-gradient-45"/></defs><g class="cls-2"><g id="Illustration"><g class="cls-3"><rect class="cls-4" x="-306" y="-306" width="4322" height="4322"/><path class="cls-5" d="M2445,293.63c-246.5-55-502.79-81.36-753.38-64.56C1469.48,244,1217.72,284.61,1039,430.2c-85.17,69.39-186.75,194.06-214.61,304,0,0-146.65,578.93-439.94,703s-497,2241.27,1727.19,2034.51c0,0,1306.35-54.18,1385-1614.76,19-377,8.39-791.43-219.25-1106.66-174.43-241.56-418.83-349-699.67-424.12Q2511.92,308.61,2445,293.63Z"/><path class="cls-6" d="M2546.26,2971.35v81.08c0,26.19,163.65,47.43,365.53,47.43s365.53-21.24,365.53-47.43v-81.08Z"/><path class="cls-7" d="M3277.32,2971.35c0,26.2-163.65,47.44-365.53,47.44s-365.53-21.24-365.53-47.44,163.65-47.43,365.53-47.43S3277.32,2945.15,3277.32,2971.35Z"/><path class="cls-8" d="M2911.79,3022.06c-178.79,0-365.74-17.08-365.74-50,0-1.81.64-5,2.45-5s1,2.48,1,4.29c0,20.89,148.78,44.16,362.26,44.16S3274,2992.24,3274,2971.35c0-1.81.31-3.5,2.12-3.5s1.37,2.41,1.37,4.22C3277.53,3005,3090.58,3022.06,2911.79,3022.06Z"/><path class="cls-9" d="M2877.25,2974c3.59-2.48,7.4-4.93,11.49-7.34a72,72,0,0,1,15.7-6.55,150,150,0,0,1,24.1-4.76,305.05,305.05,0,0,1,36.09-2q21.18-.1,39.78,1.34a272.69,272.69,0,0,1,32.72,4.33q14.09,2.89,23,7.13t10.5,9.73l41.15.42a40.54,40.54,0,0,1,7.89.73c2.3.47,3.42,1.06,3.42,1.78l0,3.39-52.91-.51q-2.79,6.22-14.19,11.39t-29,9l-19.27-2.68a22,22,0,0,1-4.25-1c-1.11-.4-1.65-.84-1.65-1.32q0-1,4.47-2.23t10.09-3.11a102.49,102.49,0,0,0,11-4.37c3.59-1.67,6-3.68,7.24-6l-124.89-1.24a121.71,121.71,0,0,1-11,7.12,71.89,71.89,0,0,1-16.21,6.29,170.54,170.54,0,0,1-25.13,4.54,354.22,354.22,0,0,1-37.89,1.85c-11.45.06-22.59-.38-33.51-1.3a228.49,228.49,0,0,1-29.07-4.14,90.53,90.53,0,0,1-20.86-6.83c-5.41-2.72-8.46-5.83-9.08-9.35l-33.89-.35a44.55,44.55,0,0,1-8-.71c-2.34-.45-3.53-1-3.53-1.8l0-3.39,46.33.44c2-3.57,6.24-6.68,12.66-9.33a145,145,0,0,1,23.51-7.07l15.52,2.13c4.71.66,7,1.43,7,2.32,0,.48-.95,1.08-2.9,1.79s-4.28,1.56-6.95,2.55a63.69,63.69,0,0,0-7.72,3.48,16.3,16.3,0,0,0-5.64,4.52Zm-114.3,4.62c.94,2.23,3,4.14,6.16,5.75a49.41,49.41,0,0,0,11.77,4,120.61,120.61,0,0,0,15.86,2.29q8.85.72,18.5.68a193,193,0,0,0,19.63-1,113.06,113.06,0,0,0,14.69-2.49,68.45,68.45,0,0,0,11.05-3.65,60.12,60.12,0,0,0,8.44-4.51Zm271.89-3c-.93-2.25-3.2-4.22-6.73-5.92a60.72,60.72,0,0,0-13.54-4.27,150.3,150.3,0,0,0-19.19-2.58q-10.92-.84-24.12-.78a185.25,185.25,0,0,0-20.21,1,103.77,103.77,0,0,0-14.69,2.67,52.81,52.81,0,0,0-10.55,3.9,74.59,74.59,0,0,0-8.09,4.76Z"/><path class="cls-10" d="M2911.84,2929.05c-163,0-332.68,14.34-359.83,42.1a33.73,33.73,0,0,1,3,3.13c22.88-19.28,163-38.69,356.86-38.69,198.83,0,341.2,20.42,358.45,40.17a33.32,33.32,0,0,1,2.73-3.09C3250.6,2943.92,3077.72,2929.05,2911.84,2929.05Z"/><path class="cls-11" d="M2444.65,2886.19v81.08c0,26.2,163.65,47.43,365.53,47.43s365.52-21.23,365.52-47.43v-81.08Z"/><path class="cls-12" d="M3175.7,2886.19c0,26.2-163.65,47.44-365.52,47.44s-365.53-21.24-365.53-47.44,163.65-47.43,365.53-47.43S3175.7,2860,3175.7,2886.19Z"/><path class="cls-13" d="M2810.17,2936.9c-178.78,0-365.74-17.08-365.74-50,0-1.81.65-5,2.46-5s1,2.48,1,4.29c0,20.89,148.77,44.16,362.25,44.16s362.26-23.27,362.26-44.16c0-1.81.31-3.5,2.12-3.5s1.37,2.41,1.37,4.22C3175.92,2919.85,2989,2936.9,2810.17,2936.9Z"/><path class="cls-9" d="M2775.63,2888.84q5.38-3.74,11.49-7.35a72.08,72.08,0,0,1,15.71-6.55,148.94,148.94,0,0,1,24.09-4.76,305.18,305.18,0,0,1,36.09-1.95q21.19-.11,39.79,1.34a272.22,272.22,0,0,1,32.71,4.33q14.09,2.89,23,7.13t10.5,9.73l41.16.42a40.61,40.61,0,0,1,7.89.73c2.3.47,3.41,1.06,3.41,1.78l0,3.39-52.91-.51q-2.79,6.22-14.19,11.39t-29,8.95l-19.27-2.68a23.11,23.11,0,0,1-4.26-1c-1.11-.4-1.65-.84-1.65-1.32q0-1,4.47-2.23t10.09-3.11a100.87,100.87,0,0,0,11-4.37c3.6-1.67,6-3.68,7.25-6l-124.89-1.24a120.54,120.54,0,0,1-11,7.12,72.27,72.27,0,0,1-16.2,6.29,170.79,170.79,0,0,1-25.13,4.54,354.36,354.36,0,0,1-37.89,1.85c-11.45.06-22.59-.38-33.51-1.3a228.4,228.4,0,0,1-29.08-4.14,90.53,90.53,0,0,1-20.86-6.83c-5.41-2.72-8.45-5.83-9.08-9.35l-33.88-.35a44.67,44.67,0,0,1-8-.71c-2.34-.45-3.52-1-3.53-1.8l0-3.39,46.33.44c2.05-3.57,6.25-6.68,12.67-9.33a144.35,144.35,0,0,1,23.51-7.07l15.51,2.13c4.71.66,7.05,1.43,7.06,2.32,0,.48-.95,1.08-2.9,1.79s-4.28,1.56-7,2.55a64.39,64.39,0,0,0-7.72,3.48,16.39,16.39,0,0,0-5.64,4.52Zm-114.29,4.61c.93,2.23,3,4.14,6.15,5.75a49.35,49.35,0,0,0,11.78,4,120.61,120.61,0,0,0,15.86,2.29q8.85.72,18.49.68a193.22,193.22,0,0,0,19.64-1,113.36,113.36,0,0,0,14.69-2.49,68.31,68.31,0,0,0,11-3.65,60.12,60.12,0,0,0,8.44-4.51Zm271.88-3c-.93-2.25-3.2-4.22-6.73-5.92a60.62,60.62,0,0,0-13.53-4.27,148.46,148.46,0,0,0-19.2-2.58q-10.91-.84-24.12-.78a185.39,185.39,0,0,0-20.21,1.05,104,104,0,0,0-14.69,2.67,52.7,52.7,0,0,0-10.54,3.9,73.8,73.8,0,0,0-8.1,4.76Z"/><path class="cls-14" d="M2810.22,2843.89c-163,0-332.68,14.34-359.82,42.1a32.35,32.35,0,0,1,3,3.13c22.88-19.28,163-38.69,356.86-38.69,198.84,0,341.21,20.42,358.46,40.17a31.92,31.92,0,0,1,2.73-3.09C3149,2858.76,2976.1,2843.89,2810.22,2843.89Z"/><path class="cls-15" d="M2532.33,2801.28v81.07c0,26.2,163.65,47.44,365.53,47.44s365.52-21.24,365.52-47.44v-81.07Z"/><path class="cls-16" d="M3263.38,2801.28c0,26.2-163.65,47.44-365.52,47.44s-365.53-21.24-365.53-47.44,163.65-47.44,365.53-47.44S3263.38,2775.08,3263.38,2801.28Z"/><path class="cls-17" d="M2897.85,2852c-178.78,0-365.74-17.08-365.74-50,0-1.81.65-5,2.46-5s1,2.49,1,4.3c0,20.89,148.77,44.16,362.25,44.16s362.26-23.27,362.26-44.16c0-1.81.31-3.5,2.12-3.5s1.37,2.41,1.37,4.22C3263.6,2834.94,3076.64,2852,2897.85,2852Z"/><path class="cls-9" d="M2863.31,2803.92q5.39-3.72,11.49-7.34a72.19,72.19,0,0,1,15.7-6.55,150.3,150.3,0,0,1,24.1-4.77,307.35,307.35,0,0,1,36.09-2q21.2-.09,39.79,1.35a272.22,272.22,0,0,1,32.71,4.33q14.08,2.9,23,7.13t10.5,9.73l41.16.42a39.85,39.85,0,0,1,7.89.73c2.3.47,3.41,1.06,3.41,1.78l0,3.39-52.91-.51q-2.79,6.23-14.19,11.39t-29,8.95l-19.27-2.68a23.11,23.11,0,0,1-4.26-1c-1.11-.4-1.65-.84-1.65-1.32q0-1,4.47-2.23t10.09-3.11a100.87,100.87,0,0,0,11-4.37c3.6-1.67,6-3.68,7.25-6L2895.81,2810a118.45,118.45,0,0,1-11,7.11,72,72,0,0,1-16.2,6.3,170.79,170.79,0,0,1-25.13,4.54,354.5,354.5,0,0,1-37.89,1.85c-11.45.06-22.59-.38-33.51-1.3a228.4,228.4,0,0,1-29.08-4.14,90.53,90.53,0,0,1-20.86-6.83c-5.41-2.72-8.45-5.83-9.08-9.36l-33.88-.34a44.67,44.67,0,0,1-8-.71c-2.34-.45-3.53-1.05-3.53-1.8l0-3.39,46.33.44c2-3.57,6.25-6.68,12.67-9.33a144.35,144.35,0,0,1,23.51-7.07l15.51,2.13c4.71.66,7,1.43,7.06,2.32,0,.48-1,1.08-2.9,1.79s-4.28,1.56-7,2.55a64.39,64.39,0,0,0-7.72,3.48,16.39,16.39,0,0,0-5.64,4.52ZM2749,2808.54c.93,2.22,3,4.14,6.15,5.75a49.35,49.35,0,0,0,11.78,4,120.61,120.61,0,0,0,15.86,2.29q8.85.72,18.49.68a193.38,193.38,0,0,0,19.64-1,113.66,113.66,0,0,0,14.69-2.49,68.31,68.31,0,0,0,11-3.65,61.18,61.18,0,0,0,8.44-4.51Zm271.88-3c-.93-2.25-3.2-4.22-6.73-5.92a60.62,60.62,0,0,0-13.53-4.27,148.46,148.46,0,0,0-19.2-2.58q-10.91-.84-24.12-.78a185.39,185.39,0,0,0-20.21,1.05,104,104,0,0,0-14.69,2.67,52.7,52.7,0,0,0-10.54,3.9,73.8,73.8,0,0,0-8.1,4.76Z"/><path class="cls-18" d="M2897.9,2759c-163,0-332.68,14.34-359.82,42.1a32.35,32.35,0,0,1,3,3.13c22.88-19.28,163-38.69,356.86-38.69,198.84,0,341.21,20.42,358.46,40.17a31.92,31.92,0,0,1,2.73-3.09C3236.67,2773.85,3063.78,2759,2897.9,2759Z"/><path class="cls-19" d="M2585.53,2716.12v81.08c0,26.19,163.66,47.43,365.53,47.43s365.53-21.24,365.53-47.43v-81.08Z"/><ellipse class="cls-20" cx="2951.06" cy="2716.12" rx="365.53" ry="47.44"/><path class="cls-21" d="M2951.06,2766.83c-178.79,0-365.74-17.08-365.74-50,0-1.81.65-5,2.46-5s1,2.49,1,4.3c0,20.89,148.77,44.16,362.25,44.16s362.26-23.27,362.26-44.16c0-1.81.3-3.5,2.11-3.5s1.38,2.41,1.38,4.22C3316.81,2749.78,3129.85,2766.83,2951.06,2766.83Z"/><path class="cls-9" d="M2916.52,2718.76c3.59-2.48,7.4-4.93,11.49-7.35a72.5,72.5,0,0,1,15.7-6.54,150.07,150.07,0,0,1,24.1-4.77,305.45,305.45,0,0,1,36.09-1.94q21.2-.1,39.78,1.34a272.41,272.41,0,0,1,32.72,4.33q14.08,2.9,23,7.13t10.5,9.73l41.15.42a40.72,40.72,0,0,1,7.9.73c2.29.47,3.41,1.06,3.41,1.78l0,3.39-52.91-.51q-2.79,6.23-14.19,11.39t-29,9l-19.27-2.68a22.71,22.71,0,0,1-4.26-1c-1.11-.4-1.65-.84-1.65-1.32q0-1,4.47-2.23t10.09-3.11a102.49,102.49,0,0,0,11-4.37c3.59-1.67,6-3.68,7.25-6L2949,2724.87a119.79,119.79,0,0,1-11,7.11,71.86,71.86,0,0,1-16.21,6.3,170.29,170.29,0,0,1-25.13,4.54,354.22,354.22,0,0,1-37.89,1.85q-17.16.09-33.5-1.3a228.4,228.4,0,0,1-29.08-4.14,91,91,0,0,1-20.86-6.83c-5.41-2.72-8.45-5.83-9.08-9.36l-33.89-.34a44.55,44.55,0,0,1-8-.71c-2.34-.45-3.53-1-3.53-1.8l0-3.39,46.33.44c2-3.57,6.24-6.68,12.66-9.33a145,145,0,0,1,23.51-7.07l15.52,2.13c4.71.66,7,1.43,7,2.32,0,.48-.95,1.08-2.9,1.79s-4.28,1.56-6.95,2.55a63.69,63.69,0,0,0-7.72,3.48,16.3,16.3,0,0,0-5.64,4.52Zm-114.29,4.62c.93,2.22,3,4.14,6.15,5.75a49.41,49.41,0,0,0,11.77,4,119.29,119.29,0,0,0,15.86,2.28q8.85.73,18.5.69a193,193,0,0,0,19.63-1,114.79,114.79,0,0,0,14.69-2.49,68.12,68.12,0,0,0,11.05-3.65,61.18,61.18,0,0,0,8.44-4.51Zm271.88-3c-.93-2.25-3.2-4.22-6.73-5.92a60.72,60.72,0,0,0-13.54-4.27,148.29,148.29,0,0,0-19.19-2.58q-10.92-.84-24.12-.78a185.25,185.25,0,0,0-20.21,1,103.77,103.77,0,0,0-14.69,2.67,53,53,0,0,0-10.55,3.9,74.59,74.59,0,0,0-8.09,4.76Z"/><path class="cls-22" d="M2951.11,2673.82c-163,0-332.68,14.34-359.83,42.1a32.46,32.46,0,0,1,3,3.13c22.88-19.28,163-38.69,356.86-38.69,198.83,0,341.21,20.42,358.45,40.17a33.43,33.43,0,0,1,2.74-3.09C3289.88,2688.69,3117,2673.82,2951.11,2673.82Z"/><path class="cls-23" d="M2546.26,2624.24v81.08c0,26.2,163.65,47.43,365.53,47.43s365.53-21.23,365.53-47.43v-81.08Z"/><path class="cls-24" d="M3277.32,2624.24c0,26.2-163.65,47.44-365.53,47.44s-365.53-21.24-365.53-47.44,163.65-47.43,365.53-47.43S3277.32,2598,3277.32,2624.24Z"/><path class="cls-25" d="M2911.79,2675c-178.79,0-365.74-17.08-365.74-50,0-1.81.64-5,2.45-5s1,2.48,1,4.29c0,20.89,148.78,44.16,362.26,44.16S3274,2645.13,3274,2624.24c0-1.81.31-3.5,2.12-3.5s1.37,2.41,1.37,4.22C3277.53,2657.9,3090.58,2675,2911.79,2675Z"/><path class="cls-9" d="M2877.25,2626.88c3.59-2.48,7.4-4.92,11.49-7.34a72,72,0,0,1,15.7-6.55,150,150,0,0,1,24.1-4.76,305.05,305.05,0,0,1,36.09-1.95q21.18-.11,39.78,1.34a270.52,270.52,0,0,1,32.72,4.34q14.09,2.88,23,7.12t10.5,9.73l41.15.42a40.54,40.54,0,0,1,7.89.73c2.3.47,3.42,1.06,3.42,1.78l0,3.39-52.91-.51q-2.79,6.23-14.19,11.39t-29,8.95l-19.27-2.68a22,22,0,0,1-4.25-1c-1.11-.4-1.65-.84-1.65-1.32,0-.65,1.48-1.4,4.47-2.23s6.34-1.88,10.09-3.11a102.49,102.49,0,0,0,11-4.37c3.59-1.67,6-3.68,7.24-6L2909.74,2633a119.58,119.58,0,0,1-11,7.12,71.89,71.89,0,0,1-16.21,6.29,170.54,170.54,0,0,1-25.13,4.54,354.22,354.22,0,0,1-37.89,1.85c-11.45.06-22.59-.38-33.51-1.3a228.49,228.49,0,0,1-29.07-4.14,90.53,90.53,0,0,1-20.86-6.83c-5.41-2.72-8.46-5.83-9.08-9.35l-33.89-.35a43.65,43.65,0,0,1-8-.71c-2.34-.45-3.53-1.05-3.53-1.8l0-3.39,46.33.44c2-3.57,6.24-6.68,12.66-9.33A145,145,0,0,1,2764,2609l15.52,2.13c4.71.66,7,1.43,7,2.32,0,.48-.95,1.08-2.9,1.79s-4.28,1.56-6.95,2.55a63.69,63.69,0,0,0-7.72,3.48,16.3,16.3,0,0,0-5.64,4.52ZM2763,2631.5c.94,2.23,3,4.14,6.16,5.75a49,49,0,0,0,11.77,4,120.61,120.61,0,0,0,15.86,2.29q8.85.72,18.5.68a193,193,0,0,0,19.63-1,113.06,113.06,0,0,0,14.69-2.49,68.45,68.45,0,0,0,11.05-3.65,60.12,60.12,0,0,0,8.44-4.51Zm271.89-3c-.93-2.25-3.2-4.22-6.73-5.92a60.72,60.72,0,0,0-13.54-4.27,150.3,150.3,0,0,0-19.19-2.58q-10.92-.84-24.12-.78a185.25,185.25,0,0,0-20.21,1,103.77,103.77,0,0,0-14.69,2.67,52.81,52.81,0,0,0-10.55,3.9,73,73,0,0,0-8.09,4.77Z"/><path class="cls-26" d="M2911.84,2581.94c-163,0-332.68,14.34-359.83,42.1a33.73,33.73,0,0,1,3,3.13c22.88-19.28,163-38.68,356.86-38.68,198.83,0,341.2,20.41,358.45,40.16a33.32,33.32,0,0,1,2.73-3.09C3250.6,2596.81,3077.72,2581.94,2911.84,2581.94Z"/><path class="cls-27" d="M2444.65,2539.08v81.08c0,26.19,163.65,47.43,365.53,47.43s365.52-21.24,365.52-47.43v-81.08Z"/><ellipse class="cls-28" cx="2810.18" cy="2539.08" rx="365.53" ry="47.44"/><path class="cls-29" d="M2810.17,2589.79c-178.78,0-365.74-17.08-365.74-50,0-1.81.65-5,2.46-5s1,2.48,1,4.29c0,20.89,148.77,44.16,362.25,44.16s362.26-23.27,362.26-44.16c0-1.81.31-3.5,2.12-3.5s1.37,2.41,1.37,4.22C3175.92,2572.74,2989,2589.79,2810.17,2589.79Z"/><path class="cls-9" d="M2775.63,2541.72q5.38-3.72,11.49-7.34a72.08,72.08,0,0,1,15.71-6.55,150,150,0,0,1,24.09-4.76,305.18,305.18,0,0,1,36.09-2q21.19-.1,39.79,1.34a270.07,270.07,0,0,1,32.71,4.34q14.09,2.88,23,7.12t10.5,9.73l41.16.42a40.61,40.61,0,0,1,7.89.73c2.3.47,3.41,1.06,3.41,1.78l0,3.39-52.91-.51q-2.79,6.23-14.19,11.39t-29,9l-19.27-2.68a22.32,22.32,0,0,1-4.26-1c-1.11-.4-1.65-.84-1.65-1.32,0-.65,1.49-1.4,4.47-2.23s6.35-1.88,10.09-3.11a100.87,100.87,0,0,0,11-4.37c3.6-1.67,6-3.68,7.25-6l-124.89-1.24a120.54,120.54,0,0,1-11,7.12,71.79,71.79,0,0,1-16.2,6.29,170.79,170.79,0,0,1-25.13,4.54,354.36,354.36,0,0,1-37.89,1.85c-11.45.06-22.59-.38-33.51-1.3a228.4,228.4,0,0,1-29.08-4.14,90.53,90.53,0,0,1-20.86-6.83c-5.41-2.72-8.45-5.83-9.08-9.35l-33.88-.35a43.77,43.77,0,0,1-8-.71c-2.34-.45-3.52-1-3.53-1.8l0-3.39,46.33.44c2.05-3.57,6.25-6.68,12.67-9.33a144.35,144.35,0,0,1,23.51-7.07l15.51,2.13c4.71.66,7.05,1.43,7.06,2.32,0,.48-.95,1.08-2.9,1.79s-4.28,1.56-7,2.55a64.39,64.39,0,0,0-7.72,3.48,16.39,16.39,0,0,0-5.64,4.52Zm-114.29,4.62c.93,2.23,3,4.14,6.15,5.75a49.35,49.35,0,0,0,11.78,4,120.61,120.61,0,0,0,15.86,2.29q8.85.72,18.49.68a193.22,193.22,0,0,0,19.64-1,113.36,113.36,0,0,0,14.69-2.49,68.31,68.31,0,0,0,11-3.65,61.17,61.17,0,0,0,8.44-4.5Zm271.88-3c-.93-2.25-3.2-4.22-6.73-5.92a60.62,60.62,0,0,0-13.53-4.27,150.23,150.23,0,0,0-19.2-2.58q-10.91-.84-24.12-.78a185.39,185.39,0,0,0-20.21,1,104,104,0,0,0-14.69,2.67,52.7,52.7,0,0,0-10.54,3.9,73.8,73.8,0,0,0-8.1,4.76Z"/><path class="cls-30" d="M2810.22,2496.78c-163,0-332.68,14.34-359.82,42.1a32.35,32.35,0,0,1,3,3.13c22.88-19.28,163-38.68,356.86-38.68,198.84,0,341.21,20.41,358.46,40.16a31.92,31.92,0,0,1,2.73-3.09C3149,2511.65,2976.1,2496.78,2810.22,2496.78Z"/><path class="cls-31" d="M2532.33,2454.17v81.08c0,26.19,163.65,47.43,365.53,47.43s365.52-21.24,365.52-47.43v-81.08Z"/><ellipse class="cls-32" cx="2897.86" cy="2454.17" rx="365.53" ry="47.44"/><path class="cls-33" d="M2897.85,2504.88c-178.78,0-365.74-17.08-365.74-50,0-1.81.65-5,2.46-5s1,2.49,1,4.3c0,20.89,148.77,44.16,362.25,44.16s362.26-23.27,362.26-44.16c0-1.81.31-3.5,2.12-3.5s1.37,2.41,1.37,4.22C3263.6,2487.83,3076.64,2504.88,2897.85,2504.88Z"/><path class="cls-9" d="M2863.31,2456.81q5.39-3.72,11.49-7.34a72.19,72.19,0,0,1,15.7-6.55,150.3,150.3,0,0,1,24.1-4.77,305.45,305.45,0,0,1,36.09-1.94q21.2-.11,39.79,1.34a272.22,272.22,0,0,1,32.71,4.33q14.08,2.89,23,7.13t10.5,9.73l41.16.42a40.61,40.61,0,0,1,7.89.73c2.3.47,3.41,1.06,3.41,1.78l0,3.39-52.91-.51q-2.79,6.22-14.19,11.39t-29,8.95l-19.27-2.68a23.11,23.11,0,0,1-4.26-1c-1.11-.4-1.65-.84-1.65-1.32q0-1,4.47-2.23t10.09-3.11a100.87,100.87,0,0,0,11-4.37c3.6-1.67,6-3.68,7.25-6l-124.89-1.24a118.45,118.45,0,0,1-11,7.11,71.1,71.1,0,0,1-16.2,6.3,170.79,170.79,0,0,1-25.13,4.54,354.5,354.5,0,0,1-37.89,1.85c-11.45.06-22.59-.38-33.51-1.3a228.4,228.4,0,0,1-29.08-4.14,90.53,90.53,0,0,1-20.86-6.83c-5.41-2.72-8.45-5.83-9.08-9.36l-33.88-.34a44.67,44.67,0,0,1-8-.71c-2.34-.45-3.53-1.05-3.53-1.8l0-3.39,46.33.44c2-3.57,6.25-6.68,12.67-9.33a144.35,144.35,0,0,1,23.51-7.07l15.51,2.13c4.71.66,7,1.43,7.06,2.32,0,.48-1,1.08-2.9,1.79s-4.28,1.56-7,2.55a64.39,64.39,0,0,0-7.72,3.48,16.39,16.39,0,0,0-5.64,4.52ZM2749,2461.43c.93,2.23,3,4.14,6.15,5.75a49.35,49.35,0,0,0,11.78,4,119,119,0,0,0,15.86,2.28q8.85.74,18.49.69a193.38,193.38,0,0,0,19.64-1,113.66,113.66,0,0,0,14.69-2.49,68.31,68.31,0,0,0,11-3.65,60.12,60.12,0,0,0,8.44-4.51Zm271.88-3c-.93-2.25-3.2-4.22-6.73-5.92a60.62,60.62,0,0,0-13.53-4.27,148.46,148.46,0,0,0-19.2-2.58q-10.91-.84-24.12-.78a185.39,185.39,0,0,0-20.21,1.05,104,104,0,0,0-14.69,2.67,52.7,52.7,0,0,0-10.54,3.9,73.8,73.8,0,0,0-8.1,4.76Z"/><path class="cls-34" d="M2897.9,2411.87c-163,0-332.68,14.34-359.82,42.1a32.35,32.35,0,0,1,3,3.13c22.88-19.28,163-38.69,356.86-38.69,198.84,0,341.21,20.42,358.46,40.17a31.92,31.92,0,0,1,2.73-3.09C3236.67,2426.74,3063.78,2411.87,2897.9,2411.87Z"/><path class="cls-35" d="M2486.72,2369v81.08c0,26.19,163.65,47.43,365.53,47.43s365.53-21.24,365.53-47.43V2369Z"/><ellipse class="cls-36" cx="2852.25" cy="2369.01" rx="365.53" ry="47.44"/><path class="cls-37" d="M2852.25,2419.72c-178.79,0-365.74-17.08-365.74-50,0-1.81.64-5,2.45-5s1,2.49,1,4.3c0,20.89,148.78,44.16,362.26,44.16S3214.5,2389.9,3214.5,2369c0-1.81.31-3.5,2.12-3.5s1.37,2.41,1.37,4.22C3218,2402.67,3031,2419.72,2852.25,2419.72Z"/><path class="cls-9" d="M2817.71,2371.65c3.59-2.48,7.4-4.93,11.49-7.34a72,72,0,0,1,15.7-6.55A149.84,149.84,0,0,1,2869,2353a305.32,305.32,0,0,1,36.09-1.94q21.18-.11,39.78,1.34a272.69,272.69,0,0,1,32.72,4.33q14.09,2.9,23,7.13t10.49,9.73l41.16.42a40.54,40.54,0,0,1,7.89.73c2.3.47,3.42,1.06,3.42,1.78l0,3.39-52.92-.51q-2.77,6.22-14.18,11.39t-29,8.95l-19.27-2.68a22.78,22.78,0,0,1-4.25-1c-1.11-.4-1.65-.84-1.65-1.32q0-1,4.46-2.23t10.1-3.11a102.49,102.49,0,0,0,11-4.37c3.59-1.67,6-3.68,7.24-6l-124.89-1.24a118.45,118.45,0,0,1-11,7.11,71.57,71.57,0,0,1-16.2,6.3,170.54,170.54,0,0,1-25.13,4.54,354.22,354.22,0,0,1-37.89,1.85c-11.45.06-22.59-.38-33.51-1.3a228.49,228.49,0,0,1-29.07-4.14,91,91,0,0,1-20.86-6.83q-8.13-4.08-9.08-9.36l-33.89-.34a44.47,44.47,0,0,1-8-.71c-2.34-.45-3.53-1.05-3.54-1.8v-3.39l46.33.44c2-3.57,6.24-6.68,12.66-9.33a145,145,0,0,1,23.51-7.07l15.52,2.13c4.71.66,7,1.43,7,2.32,0,.48-.95,1.08-2.9,1.79s-4.28,1.56-6.95,2.55a63.69,63.69,0,0,0-7.72,3.48,16.3,16.3,0,0,0-5.64,4.52Zm-114.3,4.62c.93,2.23,3,4.14,6.16,5.75a49.25,49.25,0,0,0,11.77,4,120.61,120.61,0,0,0,15.86,2.29q8.85.72,18.5.68a193.17,193.17,0,0,0,19.63-1,113.06,113.06,0,0,0,14.69-2.49,68.45,68.45,0,0,0,11.05-3.65,61.18,61.18,0,0,0,8.44-4.51Zm271.89-3c-.93-2.25-3.2-4.22-6.73-5.92a60.72,60.72,0,0,0-13.54-4.27,148.53,148.53,0,0,0-19.19-2.58q-10.92-.84-24.12-.78a185.25,185.25,0,0,0-20.21,1,103.77,103.77,0,0,0-14.69,2.67,52.81,52.81,0,0,0-10.55,3.9,74.59,74.59,0,0,0-8.09,4.76Z"/><path class="cls-38" d="M2852.3,2326.71c-163,0-332.68,14.34-359.83,42.1a33.73,33.73,0,0,1,3,3.13c22.88-19.28,163-38.69,356.86-38.69,198.83,0,341.2,20.42,358.45,40.17a33.32,33.32,0,0,1,2.73-3.09C3191.06,2341.58,3018.18,2326.71,2852.3,2326.71Z"/><path class="cls-39" d="M529.59,2883.48c-53.69,1.84-107.83-13.07-151.88-45.88C280.12,2765,269.62,2633,354.4,2543.66l1239-1314.1c40.53-42.68,99.13-66.17,160.48-64.5,61.07,1.67,118.9,28.12,158.61,72.41l414.83,462.58,471.37-518.28c70.51-77.53,192.64-82.25,272.66-11.32,79.55,70.49,88,189.72,19.1,267.07l-611.12,685.54c-38.06,42.71-93.48,67.64-152,68.27-58.79.62-114.93-23.34-153.77-65.78l-419.67-458.63-1051,1139.5C657.72,2855,594,2881.27,529.59,2883.48Z"/><polygon class="cls-40" points="3222.29 1537.08 2703.14 1081.57 3369.35 857.89 3415.87 857.89 3264.26 1532.98 3222.29 1537.08"/><path class="cls-41" d="M576.11,2883.48c-53.69,1.84-107.83-13.07-151.88-45.88C326.64,2765,316.15,2633,400.92,2543.66l1239-1314.1c40.54-42.68,99.13-66.17,160.48-64.5,61.08,1.67,118.9,28.12,158.61,72.41l414.83,462.58,471.37-518.28c70.51-77.53,192.64-82.25,272.67-11.32,79.54,70.49,88,189.72,19.09,267.07l-611.11,685.54c-38.07,42.71-93.49,67.64-152,68.27-58.79.62-114.93-23.34-153.77-65.78l-419.67-458.63-1051,1139.5C704.24,2855,640.49,2881.27,576.11,2883.48Z"/><polygon class="cls-42" points="3264.26 1532.98 2749.66 1081.57 3415.87 857.89 3264.26 1532.98"/><path class="cls-43" d="M1317.06,3210.93s-10,40.57-10.33,55.27,161.44,35.19,164,24.36-24.56-30.54-44.11-38.3-76.9-28.87-76.9-28.87Z"/><path class="cls-44" d="M1359.75,3173.1l-9.28,50.7s-19.85,11-35.7,0l-3.86-56.3Z"/><path class="cls-45" d="M1022,3254.36s-10,40.57-10.33,55.27,161.45,35.19,164,24.36-24.57-30.54-44.12-38.3-76.9-28.87-76.9-28.87Z"/><path class="cls-46" d="M1064.73,3216.53l-9.28,50.7s-19.86,11-35.7,0l-3.86-56.3Z"/><path class="cls-47" d="M1437.22,1836.22l47.16,118.66c-2.31,218.34-13.72,455-38.78,707.17-18.63,187.57-42.93,364.73-70.74,530.62l-76.06-9.62c-30.94-76-65.51-190.09-58.57-327,7.25-142.79,52-158.25,60.15-294.87,10.61-177.07-59.74-230.18-82.2-446-8.58-82.53-10.24-189.57,12.17-317.47Z"/><path class="cls-48" d="M1230.35,1797.74l111.73,20.79c58.17,123.06,67.23,247,51,300.23-22.92,75.28-69.29,96.27-73,173.41-3.69,76.32,39.58,99.65,60.84,191.66,14.72,63.7,5,120.4-15.21,231.21-40.6,223.19-100.44,287.65-60.84,365.07,11.25,22,32.55,48.83,76.67,71.54-2.22,13.71-4.43,27.46-6.7,41l-76.06-9.62c-30.94-76-65.51-190.09-58.57-327,7.25-142.8,52-158.25,60.15-294.87,10.61-177.07-59.74-230.17-82.2-446C1209.6,2032.68,1207.94,1925.64,1230.35,1797.74Z"/><path class="cls-49" d="M1330.77,1896.63c-50.62,189.28-98.22,392.39-140,608.49-50.41,260.93-85.94,507.87-110.56,737.83l-84-4.34c-92.61-226.54-87.5-374.69-63.93-469.52,9.08-36.55,31.51-107.83,44-216.05,8.71-75.44,8.49-133.4,8-203.09-1.05-152.8-14.44-187.21-7.44-303.47,6.56-109.1,10.53-164.25,44.2-193.93C1109.8,1774.36,1315.2,1887.83,1330.77,1896.63Z"/><path class="cls-50" d="M2291.32,1155.75c-81.38,66.65-141.6,123.75-222.19,139.51-56.25,11-100.3-1.44-143.12-11.86-124-30.18-168-89-387.1-210.25-21.2-11.74-38.71-21.11-50-27.1a135,135,0,0,1-12.31,12.27c-70.59,59.6-150.29,108.68-185.58,197-5.27,13.19,2.7,12.91,9.22,21.52,128.59,169.77,608.07,263.46,814.13,176.09,116.88-49.56,154.34-145.56,223.83-247.05Q2314.75,1180.8,2291.32,1155.75Z"/><path class="cls-51" d="M1502.63,1995.55c30.32-42.26.14-87.78-.77-172.51-1-96,37-109,86-264.06,32.57-103.15,63.85-202.17,45.63-322.48-8.73-57.66-23.53-155.45-99.26-208.18-39.08-27.21-95.24-29.3-206-32.37-136.94-3.8-205.41-5.7-258.4,17-7.76,3.32-169.2,75.07-190.84,211.37-22,138.73,128.5,169.68,133.86,357.46,2.41,84.3-24.12,211.53-41.32,294.06C955,1955.08,946.4,1975,960.25,2000.52c33.39,61.46,151.29,54.15,387.08,39.55C1439.82,2034.33,1480,2027.08,1502.63,1995.55Z"/><path class="cls-52" d="M1180.15,1565.06c-12.76,35.5-50.38,59.76-82.14,146-6.85,18.63-55.67,151.28-9.12,188.63,26.89,21.56,55.34-12.94,124.73-12.18,120.24,1.31,169.15,106.38,249.46,85.19,13.94-3.68,32.64-12.4,52.38-34.3,1.87,21.31-.2,39.52-12.83,57.12-22.62,31.53-62.81,38.78-155.3,44.52-235.79,14.6-353.69,21.91-387.08-39.55-13.85-25.5-5.26-45.44,11.26-124.67,17.2-82.53,43.73-209.76,41.32-294.06C1007.47,1394,857,1363.06,879,1224.33c5.89-37.08,22.28-69.21,42.95-96.67C1108.53,1221.16,1220.27,1453.53,1180.15,1565.06Z"/><path class="cls-53" d="M801,1994s-37.55,12.61-41.53,74.8c6.13-.55,20.43-.22,20.43-.22s-2.65-45.21,24.08-54.38C801.82,2008.94,801,1994,801,1994Z"/><path class="cls-54" d="M940.28,1988.06q-1.42,17.19-2.86,34.36c-18.9-4.87-39.51-10.53-61.61-11.3a280.74,280.74,0,0,0-78,8.31,25.08,25.08,0,0,1-4.23-10.42,35.43,35.43,0,0,1,1.6-17.89,240.08,240.08,0,0,1,38.45-10.65C873.23,1973,909.23,1979.18,940.28,1988.06Z"/><path class="cls-55" d="M942.07,1998c-.06-4.14-.38-9.3-1.79-9.89s-3.11,3.22-3.88,5.31c-.32.87-1,3-1.46,9.66-.57,8.61.09,12.82.7,15.42.36,1.56.93,3.93,1.78,4,.68,0,1.27-1.46,2.16-4.38A65.84,65.84,0,0,0,942.07,1998Z"/><path class="cls-56" d="M977,2069.88c-8,1.57-27.31,6.2-27.31,6.2s12.61-40.38-11.14-58.62a41.91,41.91,0,0,1-.49-13.64,40.9,40.9,0,0,1,2.84-10.59C951,1998.74,973,2017.51,977,2069.88Z"/><path class="cls-57" d="M1143.56,2078.83s-1-21.36-34.85-21c-5.31,4-5.58,21.38-5.58,21.38Z"/><path class="cls-58" d="M1173.74,2499.45l-92.66,54.66-55.63-206.44,91.87-276.29,26.24,7.45,40,398.87C1184.44,2486.75,1180.52,2495.44,1173.74,2499.45Z"/><path class="cls-59" d="M1025.45,2347.67l91.87-276.29,26.24,7.45c-6.47,24.53-9.57,64.39-11,86.58-6.2,94.35-26.77,120.54-16.81,186.33,8.29,54.76,26.41,62.37,24.83,99.2-1.73,40.1-25,73.3-52.67,99.16l-6.8,4Z"/><polygon class="cls-60" points="1117.32 2071.38 624.51 2076.53 549.62 2500.98 1081.08 2554.11 1117.32 2071.38"/><g class="cls-61"><path class="cls-62" d="M624.51,2076.54l162.66-1.71a300.53,300.53,0,0,0,14.42,34.68c74,150.32,245.88,169.73,242.75,194.79-4.69,37.44-382.27-16.8-391.68,33.42-4.54,24.22,73.59,80.19,156.06,102.18,99.86,26.62,174-4.5,223.77,53.59,16.9,19.75,24.37,42.72,28,58.23L549.62,2501Z"/></g><path class="cls-63" d="M1108.71,2057.85c5.72-.06,13.73-.87,22.44,4.17a34.27,34.27,0,0,1,4.95,3.47l-4-1.39c-6.46-1.83-15.35.8-18.67,7.32-4.08,8-5.54,26.49-6.43,35.64-2.54,26-18.09,187.7-18.09,187.7-1.17,13.62-11.45,23.89-23.58,23.57l-456.5-26a15.81,15.81,0,0,1-9.48-3.4c-5.79-4.62-8.4-12.62-7.06-20.2l22.46-186.82c1.91-10.76,10.07-18.56,19.54-18.67Z"/><path class="cls-64" d="M1103.66,2057.91c5.72-.07,12.5-.93,20.07,1,2,.52,5.32,1.5,6.76,2.71,0,0-16.06-3.68-22.13,9.83-3.7,8.23-5.54,26.47-6.43,35.62-2.53,26-18.07,187.65-18.07,187.65-1.17,13.61-11.44,23.88-23.56,23.56l-461.22-12.14a15.73,15.73,0,0,1-9.47-3.41c-5.78-4.62-8.39-12.61-7.05-20.18L610,2081.93c1.9-10.76,10.06-18.56,19.53-18.67Z"/><path class="cls-65" d="M582.56,2282.58,610,2081.93c1.9-10.76,10.06-18.56,19.53-18.67l474.14-5.35c5.72-.07,12.5-.93,20.07,1,2,.52,5.32,1.5,6.76,2.71,0,0-16.06-3.68-22.13,9.83a35.94,35.94,0,0,0-1.61,4.58c-46.26,2.31-92.25,1.45-138,4.9-89.67,6.61-179.34,7.47-262.14,44.43-26.3,11.74-44.28,53.31-37.17,72.44,5.13,13.8,22.67,12.67,28.8,30.82,6.45,19.1-9,32.06-2.53,45.47,6.8,14.06,27.48,7.42,61.07,17.57a160.44,160.44,0,0,1,41.77,19.73l-199.48-5.25a15.73,15.73,0,0,1-9.47-3.41C583.83,2298.14,581.22,2290.15,582.56,2282.58Z"/><path class="cls-66" d="M799.52,2344.79l57.76,14.55,6.12.55c6.18.56,11.5-4.82,11.77-12l2.55-67.53c.27-7.14-4.63-13.08-10.82-13.18l-6.16-.1-58.08,7.41c-5.53-.09-10.18-3.1-10.43,3.56l-2.37,63C789.61,2347.75,794,2344.3,799.52,2344.79Z"/><path class="cls-67" d="M795.15,2354.07l64,5.79c6.17.56,11.49-4.82,11.76-12l2.54-67.51c.27-7.14-4.62-13.07-10.81-13.18l-64.17-1.07c-5.52-.1-10.21,5.28-10.46,11.94l-2.36,63C785.38,2347.72,789.64,2353.57,795.15,2354.07Z"/><path class="cls-68" d="M872.5,1901.92s5.38,35.64,10.76,39,22.18,22.19,18.82,34.29,9.42,39.72-14.45,46.42-51.31,13.85-54.06-7.55,4-45.6,3.29-63.75S826.78,1914,826.78,1914Z"/><path class="cls-69" d="M1098,1002.24c31.91,155.54,4.37,256.35-28.9,321C1001.75,1454,886,1484.87,866.73,1600.91c-13.91,83.7-20,248.75,20.9,302.29-36.82,14.69-40.68,13.87-68.47,13.87-37.25-21.28-116.63-163.25-150.1-344.4C628.44,1352.92,798.35,1093.43,1098,1002.24Z"/><path class="cls-70" d="M1197.36,1000.6c15.82-6.46,92.53-22.07,109.54-55.33,18.83-36.79,25.19-87.42,25.19-87.42s52.93,14.06,45.18,41.41,5.44,90,35.83,104c21.27,9.8,47.62,13.73,53.33,20.29a3.9,3.9,0,0,1,1.16.27c4.38,2.73-9.25,23.75-63.94,54.23-188.7-28.41-208.56-60.73-209.39-71.83C1193.43,1003.81,1194.32,1001.84,1197.36,1000.6Z"/><path class="cls-71" d="M1402.93,845c24.55-20.53,27.94-22.89,31-30.42,12.43-30.22-8.23-74.63-39-87.62-1.59-.67-22.21-9.14-31-.61-7.48,7.25,1.75,18.83-4.26,33.47-5.62,13.71-17.9,13.78-42,30.42-19.84,13.7-32.17,22.22-35.9,35.3-7.7,27,22.28,69.3,51.72,70.57C1344.16,896.55,1347.46,891.39,1402.93,845Z"/><path class="cls-72" d="M1336.1,900.56s22,29.32,59.57,23.22c33.65-5.46,31.3-81.86,8.12-95.89-7.73-4.68-22.39-5.52-33.83-1.1-6.75,2.61-8.82,5.72-19.93,9.78-10.26,3.74-13.34,2.86-16.26,5.84-3.65,3.72-5.76,12.19,3,33.75-7.09-5.92-15.08-7.68-20.32-4.56a11.53,11.53,0,0,0-4.09,4.82C1308.46,885.55,1317.45,895.87,1336.1,900.56Z"/><path class="cls-73" d="M1352,1071.66s10.66,56.93,27.33,58a285.63,285.63,0,0,1,28.9,3.33l18.64-69.62S1402.52,1083.21,1352,1071.66Z"/><path class="cls-74" d="M1371.38,1125s-37.1,416.49-167.12,483.16c3.34,13.34,0,121.69,0,121.69s121.21-36.49,128.12-34.08,146.79-229.45,75.81-562.69Z"/><path class="cls-75" d="M2294.66,527.65c97.79-48.49,191-35.42,237.61-14.81,55,24.36,73.3,42.64,122,51.83,43.31,8.18,88.27-44.94,122-7.4a60.49,60.49,0,0,1,8.21,11.11c24.19,41.8-4.38,92.28,3.52,180.49,4.05,45.13,13.83,57.66,22.88,144.4,3.44,33,2.73,37.84,1.76,41.65-14.79,58.53-132.14,47.47-214.73,22.22-113.86-34.82-150.52-93.21-225.28-66.65-34.49,12.25-60.7,36.76-77.45,55.54C2302.87,807.19,2287,666.49,2294.66,527.65Z"/><path class="cls-76" d="M2295.89,1626.31a6.35,6.35,0,0,1-6.35-6.35V487.56a6.35,6.35,0,1,1,12.7,0V1620A6.35,6.35,0,0,1,2295.89,1626.31Z"/><path class="cls-77" d="M2315.6,1247.16c33.43-41.68,39.48-91.33,17.8-120.81-22.13-30.11-66.7-25.77-83.74-25.77-12.88,0-6.44,45.09,19.33,48.31a13.23,13.23,0,0,1,6.31,2.35c12.43,9.15,13.09,31.11,13,39.52-.21,23.13-7.79,28.52-3.37,38.54C2287.76,1235.68,2295.12,1243.19,2315.6,1247.16Z"/><path class="cls-4" d="M2595.59,783.2q0-13.19-6.29-20.87t-22.15-14.83q-15.87-7.14-29.36-14.42a106.29,106.29,0,0,1-23.29-16.64,65.55,65.55,0,0,1-15-21.47q-5.23-12.12-5.23-29.09,0-28.43,18.62-46.12t49.43-19.46V565l25.72,1.08V602q29.49,5.65,46.24,26.87T2651,681.6l-54.27-1.83q0-17.37-6.46-26.94t-18.41-10q-10.7-.39-16.61,6.34t-5.92,19q0,12.39,6.81,19.9T2578,702.61q15,7.08,28.31,14.59A112.42,112.42,0,0,1,2629.2,734a68.33,68.33,0,0,1,15.07,21.41q5.43,12.12,5.44,28.91,0,28.44-17.38,46t-47.55,20v33.58l-25.73-.49v-33.8q-35.4-4.62-54.43-26.28t-19.06-56.55l55,1.5q0,19.09,8.2,29.28T2572,808q11,.27,17.29-6.34T2595.59,783.2Z"/><polygon class="cls-78" points="2871.16 1574.02 2871.16 3150.89 1954.91 3232.82 1954.91 1528.13 2871.16 1574.02"/><polygon class="cls-79" points="2806.58 1820.71 2023.53 1798.8 2023.53 1692.69 2806.58 1721.39 2806.58 1820.71"/><polygon class="cls-79" points="2806.58 1996.92 2023.53 1987.06 2023.53 1880.95 2806.58 1897.6 2806.58 1996.92"/><polygon class="cls-79" points="2806.58 2173.12 2023.53 2175.32 2023.53 2069.21 2806.58 2073.81 2806.58 2173.12"/><polygon class="cls-79" points="2806.58 2349.33 2023.53 2363.58 2023.53 2257.47 2806.58 2250.01 2806.58 2349.33"/><polygon class="cls-79" points="2806.58 2525.53 2023.53 2551.84 2023.53 2445.73 2806.58 2426.22 2806.58 2525.53"/><polygon class="cls-79" points="2806.58 2701.74 2023.53 2740.09 2023.53 2633.98 2806.58 2602.43 2806.58 2701.74"/><polygon class="cls-79" points="2806.58 2877.95 2023.53 2928.35 2023.53 2822.24 2806.58 2778.63 2806.58 2877.95"/><polygon class="cls-80" points="1954.91 1528.13 1954.91 3232.82 1676.4 3204.36 1676.4 1679.89 1942.2 1532.37 1951.34 1528.7 1954.91 1528.13"/><polygon class="cls-81" points="2806.58 1740.62 2023.53 1713.23 2023.53 1692.69 2806.58 1721.39 2806.58 1740.62"/><polygon class="cls-81" points="2806.58 1916.82 2023.53 1901.49 2023.53 1880.95 2806.58 1897.6 2806.58 1916.82"/><polygon class="cls-81" points="2806.58 2093.03 2023.53 2089.75 2023.53 2069.21 2806.58 2073.81 2806.58 2093.03"/><polygon class="cls-81" points="2806.58 2269.24 2023.53 2278.01 2023.53 2257.47 2806.58 2250.01 2806.58 2269.24"/><polygon class="cls-81" points="2806.58 2445.44 2023.53 2466.26 2023.53 2445.73 2806.58 2426.22 2806.58 2445.44"/><polygon class="cls-81" points="2806.58 2621.65 2023.53 2654.52 2023.53 2633.98 2806.58 2602.43 2806.58 2621.65"/><polygon class="cls-81" points="2806.58 2797.85 2023.53 2842.78 2023.53 2822.24 2806.58 2778.63 2806.58 2797.85"/><path class="cls-82" d="M2842.9,3153.41,1950,3232.82l-273.56-28.46v-337.6c8.07-21.68,22.35-42.29,34.93-61.34,116.29-176.19,78.46-244,102.67-369.4,23.8-123.28-28.35-783.58,127.86-903.65,2-1.55,4-3,6.1-4.38.17.21.31.46.48.68.38.5.75,1,1.09,1.43,60.49,79.22,94.38,124.54,113.74,164,3.47,7.05,6.47,13.94,9,20.78,9.89,26,14.09,51.68,16.27,85.7,1.41,22.68,2,49.08,2.69,81.77.13,6.54.3,13.35.47,20.44q.15,6.14.3,12.53c.64,24.93,1.11,49.17,1.78,72.6.8,28.53,1.91,55.86,3.89,81.7q.81,10.36,1.81,20.43c3.12,30.92,7.88,59.42,15.47,85,9.46,32.09,23.33,59.45,44,81.12a147.92,147.92,0,0,0,23.37,20.05c19.31,13.44,42.9,23.32,71.76,29.18,36.23,7.34,71.34,25.5,103.87,52.08,25.86,21.09,50.08,47.52,72,78.11,4.5,6.3,8.94,12.84,13.25,19.5a582.21,582.21,0,0,1,43.56,81.17,660.93,660.93,0,0,1,28.58,77.89c1.94,6.42,3.76,12.92,5.51,19.48a692.78,692.78,0,0,1,16.53,81.28,681.25,681.25,0,0,1,6.69,78.33q.28,9.77.28,19.65c0,4,0,8.06-.12,12.13-.5,26,2.46,49,8.15,69.28C2597.2,3054.73,2808.49,3050.7,2842.9,3153.41Z"/><path class="cls-83" d="M1892.41,3285.54c-45.41,8-105.55,10.41-169.45-11.13-69.15-23.32-166.75-82.77-159.63-138,2.65-20.63,20.11-42.23,39.49-45.63,28.64-5,42,33.09,101.72,62.84,11,5.5,68.09,33.93,87.69,14.28,9.75-9.77,8.27-29.46,2.69-43.26-16.33-40.37-69-33.55-129.81-66.07-61.63-33-123.84-102.23-114.18-162.48,5.55-34.62,35.21-68.51,60.68-67.75,10.88.32,19.44,6.93,67.38,65.33,39.35,47.94,49.08,62.37,66.68,63.32,18.11,1,42.4-12.45,48-31.5,14.62-49.62-113.14-84.15-154.42-201.69-18.5-52.68-24.63-136.27,19.7-166,30-20.12,81.51-14.64,106.34,11.2,22.38,23.3,9.1,48.63,36.67,106.85,8.36,17.67,25.58,54,41.48,52,18.68-2.33,26.24-56.34,27.83-69.43,12-98.54-40.28-134.06-18.37-186.07,17.08-40.55,69.82-68.74,118.83-63.21,42.89,4.84,84.18,35.65,96.72,75.43,12.77,40.47-11.14,90.26-59,189.83-22.68,47.22-41.92,80.14-30.46,118.25,5.59,18.58,19.88,43.05,34,42,31-2.37,14.66-125.62,80.19-162.31,33.53-18.78,83.07-11.82,111.14,15.52,34.38,33.51,32.87,94,10.3,131.5-29.44,48.88-77.53,30-141,90.79-28.17,27-69.78,79.57-53.79,110,7,13.25,25.33,23.23,42,20.86,37.44-5.3,34-68,85.67-109.4,37.23-29.8,96-42.87,116-22.7,28.23,28.47-21.4,122.62-49.56,165.83C2179.92,3126.93,2094.76,3231.34,1892.41,3285.54Z"/><g class="cls-84"><path class="cls-4" d="M1908.94,3265a4.24,4.24,0,0,1-4-2.93c-31.87-98.58-18.51-319.45,4.69-428.2,22.6-105.91,29-265.95,29.07-267.56a4.23,4.23,0,0,1,8.46.33c-.06,1.61-6.5,162.38-29.25,269-23,107.84-36.36,326.56-4.91,423.82a4.25,4.25,0,0,1-4,5.54Z"/></g><path class="cls-85" d="M2077.58,3077.41c-21.14,2.45-23,26.65-63.49,62.2-16.64,14.61-41.69,36.61-57.42,29-11-5.29-14.33-23.6-13.48-36.67,2.32-35.61,36.17-42.78,61.37-84,19.68-32.2,35.31-87.18,10.89-113.06-17.43-18.48-54.58-21.4-72.89-6-16.42,13.77-5.89,32.3-22.17,66.61-12.33,26-38,56.62-56.29,52.12-16.08-3.94-24.8-34.52-24.8-58.5,0-54,44.38-68.15,42.94-116.64-.91-30.28-19.4-64.66-43.32-69.06-27.54-5.07-61.29,29.8-72.43,64.85-15.67,49.3,18.91,81.65-4,114.21-11.08,15.77-32.29,26.83-46.12,21.37-16.56-6.53-19.07-35.36-21-60.1-5.07-66.85,17.85-85.46,5.81-119-11.94-33.28-51.28-61.8-81.57-56.44-47.07,8.33-67.13,97.6-69.48,150.73-4.71,106.59,56.62,187.09,88,228.3,54.68,71.77,120,117.28,174.56,145.9a139,139,0,0,0,117.75,5.24c73.16-30.37,120.64-67.17,149.53-93.89,51.56-47.69,52.78-71.55,49.9-84.59C2124.77,3096.5,2099,3074.92,2077.58,3077.41Z"/></g></g></g></svg>