<svg xmlns="http://www.w3.org/2000/svg" viewBox="0 0 500 372.61"><defs><style>.cls-1,.cls-17{fill:#5966ff;}.cls-2{fill:#e0e0e0;}.cls-3{fill:#f5f5f5;}.cls-4{fill:#ebebeb;}.cls-5{fill:#e6e6e6;}.cls-6{fill:#263238;}.cls-10,.cls-12,.cls-13,.cls-14,.cls-15,.cls-16,.cls-18,.cls-19,.cls-37,.cls-42,.cls-7{fill:#fff;}.cls-13,.cls-17,.cls-32,.cls-37,.cls-38,.cls-40,.cls-7,.cls-9{isolation:isolate;}.cls-14,.cls-30,.cls-31,.cls-38,.cls-7,.cls-9{opacity:0.2;}.cls-41,.cls-8{fill:none;stroke-linecap:round;stroke-linejoin:round;}.cls-8{stroke:#263238;stroke-width:0.9px;}.cls-11{fill:#407bff;}.cls-12,.cls-40,.cls-43{opacity:0.3;}.cls-13,.cls-15,.cls-39{opacity:0.4;}.cls-16,.cls-25{opacity:0.5;}.cls-17,.cls-37,.cls-42{opacity:0.6;}.cls-18{opacity:0.7;}.cls-19{font-size:4px;}.cls-19,.cls-26{font-family:Montserrat-Regular, Montserrat Regular;}.cls-20{letter-spacing:-0.03em;}.cls-21{letter-spacing:-0.01em;}.cls-22{letter-spacing:-0.03em;}.cls-23{letter-spacing:-0.01em;}.cls-24{letter-spacing:0em;}.cls-26{font-size:5px;}.cls-27{letter-spacing:-0.01em;}.cls-28{letter-spacing:0em;}.cls-29{letter-spacing:-0.01em;}.cls-33{fill:#e9b376;}.cls-34{fill:#ebb376;}.cls-35{fill:#ffb573;}.cls-36{fill:#ed893e;}.cls-41{stroke:#fff;}</style></defs><g id="Character"><rect class="cls-1" y="327.45" width="500" height="0.25"/><rect class="cls-1" x="416.78" y="343.54" width="33.12" height="0.25"/><rect class="cls-1" x="322.53" y="346.26" width="8.69" height="0.25"/><rect class="cls-1" x="396.59" y="334.26" width="19.19" height="0.25"/><rect class="cls-1" x="52.46" y="335.94" width="43.19" height="0.25"/><rect class="cls-1" x="104.56" y="335.94" width="6.33" height="0.25"/><rect class="cls-1" x="131.47" y="340.16" width="93.68" height="0.25"/><path class="cls-1" d="M237,346.54H43.91a5.71,5.71,0,0,1-5.7-5.71V69.4a5.71,5.71,0,0,1,5.7-5.7H237a5.71,5.71,0,0,1,5.71,5.7V340.83A5.71,5.71,0,0,1,237,346.54ZM43.91,64a5.46,5.46,0,0,0-5.45,5.45V340.83a5.46,5.46,0,0,0,5.45,5.46H237a5.47,5.47,0,0,0,5.46-5.46V69.4A5.46,5.46,0,0,0,237,64Z" transform="translate(0 -63.7)"/><path class="cls-1" d="M453.31,346.54H260.21a5.72,5.72,0,0,1-5.71-5.71V69.4a5.72,5.72,0,0,1,5.71-5.7h193.1A5.71,5.71,0,0,1,459,69.4V340.83A5.71,5.71,0,0,1,453.31,346.54ZM260.21,64a5.46,5.46,0,0,0-5.46,5.45V340.83a5.47,5.47,0,0,0,5.46,5.46h193.1a5.47,5.47,0,0,0,5.46-5.46V69.4A5.46,5.46,0,0,0,453.31,64Z" transform="translate(0 -63.7)"/><path class="cls-2" d="M81.56,374.08c-.24-2.85.15-6.56,3.49-7.66,5.65-1.86,9-6.24,8.81-11.19s5.76-9.77,10.22-5.13,3.87-3.56,9.82-5.56,11,2.85,9.36,7.27,4.25,7.18,11.28,3.42,14.76,3.08,13.27,8.44-.27,5.95,4.18,4.16c3.6-1.44,9.48,1.59,10.13,6.25Z" transform="translate(0 -63.7)"/><path class="cls-2" d="M362.07,374.08c-.27-2.26-.15-5.56,2.65-6.49,4.39-1.44,7-4.84,6.85-8.69s4.47-7.58,7.93-4,3-2.77,7.62-4.31,8.54,2.2,7.27,5.64,3.3,5.57,8.75,2.65,11.46,2.4,10.31,6.55-.21,4.62,3.24,3.24c2.93-1.18,7.79,1.47,7.9,5.39Z" transform="translate(0 -63.7)"/><path class="cls-2" d="M390.82,374.08H288.11c-1.44-4.82,2.29-10.6,6.36-11.41,5-1,10-9.8,10.27-15.4S314,324.44,328,335.08s9.75,1.57,19.87-1.42,16.52,5.61,12.08,12.06c0,0,10.17-2.55,14.36,6.95s0,15.4,0,15.4S387.14,367.69,390.82,374.08Z" transform="translate(0 -63.7)"/><path class="cls-3" d="M204.25,104.51a4.83,4.83,0,0,0-4.83-4.83,4.52,4.52,0,0,0-1.38.21,10.46,10.46,0,0,0,.1-1.49,10.23,10.23,0,0,0-10.23-10.23,10.6,10.6,0,0,0-1.88.18,8.94,8.94,0,0,0-16.58,4.52h-.15a8.24,8.24,0,0,0,0,16.48h30.26A4.84,4.84,0,0,0,204.25,104.51Z" transform="translate(0 -63.7)"/><path class="cls-3" d="M383.48,133a4.83,4.83,0,0,0-4.83-4.83,4.52,4.52,0,0,0-1.38.21,10.45,10.45,0,0,0,.11-1.49,10.23,10.23,0,0,0-10.23-10.23,10.62,10.62,0,0,0-1.89.18,8.94,8.94,0,0,0-16.58,4.52h-.14a8.24,8.24,0,0,0,0,16.48h30.25A4.84,4.84,0,0,0,383.48,133Z" transform="translate(0 -63.7)"/><path class="cls-3" d="M273.87,119a3,3,0,0,0-3-3,3.09,3.09,0,0,0-.86.13,5.62,5.62,0,0,0,.07-.92,6.36,6.36,0,0,0-6.36-6.36,5.66,5.66,0,0,0-1.17.11,5.56,5.56,0,0,0-10.31,2.81h-.09a5.13,5.13,0,0,0,0,10.25H271A3,3,0,0,0,273.87,119Z" transform="translate(0 -63.7)"/><path class="cls-3" d="M430.74,113.12a3,3,0,0,0-3.86-2.88,7,7,0,0,0,.06-.92,6.35,6.35,0,0,0-6.35-6.36,6.56,6.56,0,0,0-1.18.11,5.55,5.55,0,0,0-10.3,2.81H409a5.13,5.13,0,0,0,0,10.25h18.81A3,3,0,0,0,430.74,113.12Z" transform="translate(0 -63.7)"/><path class="cls-3" d="M104.92,131.26a3,3,0,0,0-3.86-2.87,7,7,0,0,0,.07-.92,6.36,6.36,0,0,0-6.36-6.36,6.56,6.56,0,0,0-1.18.11A5.55,5.55,0,0,0,83.29,124H83.2a5.13,5.13,0,1,0,0,10.25H102A3,3,0,0,0,104.92,131.26Z" transform="translate(0 -63.7)"/><path class="cls-4" d="M380.75,216.9A9.2,9.2,0,0,0,381,215c.23-3.89,4-3.28,7.11-3.81,2.47-.41-4.07-6.65.91-8.66a4.4,4.4,0,0,0,2.41-1.68,2.83,2.83,0,0,0-1.09-3.45,6.57,6.57,0,0,0-3.78-.95c-.81-1-.15-2.48.64-3.49s1.75-2.15,1.45-3.4c-.45-1.88-3.08-1.94-5-1.58-.7-1.13-.68-2.55-1-3.84s-1.37-2.65-2.69-2.49-2,1.56-3.24,1.85c-1.42.34-2.65-.92-3.76-1.86s-3.06-1.53-3.83-.29c-.46.74-.19,1.78-.66,2.51-.83,1.27-2.79.48-4-.42s-3.16-1.71-4-.46a5.17,5.17,0,0,0-.47,1.3c-.58,1.66-2.38,2.49-3.78,3.56s-2.51,3.19-1.32,4.49c.58.64,1.61.9,1.9,1.72.36,1-.68,1.94-1.51,2.64-1.37,1.18-1.62,4.68.2,5.64.76.4,1.88.52,2.07,1.37s-.6,1.34-1.11,1.92a3.62,3.62,0,0,0,1.11,5.38c.44.21,1,.38,1.14.84a1.73,1.73,0,0,1-.11,1,5.12,5.12,0,0,0-.17,2,.89.89,0,0,0,.23.61,1,1,0,0,0,.58.16c2.63.12,3.9-.81,5.5,1.48a2,2,0,0,0,.55.58,1.78,1.78,0,0,0,.72.18c1.81.15,3-1,4.64-1.19,2.29-.29,2.78.89,4.8,1.84C378.61,220,380.15,219.06,380.75,216.9Z" transform="translate(0 -63.7)"/><path class="cls-4" d="M350.48,213.63a9.31,9.31,0,0,0,.28-1.88c.23-3.9,3.95-3.28,7.11-3.81,2.47-.41-4.07-6.65.91-8.67a4.37,4.37,0,0,0,2.41-1.67,2.85,2.85,0,0,0-1.09-3.46,6.66,6.66,0,0,0-3.78-.94c-.81-1-.15-2.48.63-3.49s1.75-2.15,1.46-3.4c-.45-1.88-3.08-1.95-5-1.58-.7-1.13-.68-2.55-1-3.84s-1.37-2.65-2.69-2.49-2,1.56-3.24,1.85c-1.42.34-2.65-.92-3.76-1.86s-3.06-1.53-3.83-.29c-.46.74-.19,1.78-.66,2.51-.83,1.27-2.79.48-4-.42s-3.16-1.71-4-.46a5.17,5.17,0,0,0-.47,1.3c-.58,1.66-2.38,2.49-3.78,3.56s-2.51,3.19-1.32,4.49c.58.64,1.61.9,1.9,1.72.36,1-.68,1.94-1.51,2.64-1.38,1.17-1.63,4.68.19,5.64.77.4,1.89.52,2.08,1.36s-.6,1.34-1.11,1.93a3.62,3.62,0,0,0,1.11,5.38c.44.21,1,.38,1.13.84a1.72,1.72,0,0,1-.1,1,5.12,5.12,0,0,0-.17,1.95.89.89,0,0,0,.23.61,1,1,0,0,0,.58.16c2.63.12,3.9-.81,5.5,1.48a1.9,1.9,0,0,0,.55.58,1.74,1.74,0,0,0,.72.18c1.81.15,3-1,4.64-1.19,2.29-.29,2.78.89,4.8,1.84C348.34,216.71,349.88,215.79,350.48,213.63Z" transform="translate(0 -63.7)"/><path class="cls-4" d="M347.56,194.35a9.2,9.2,0,0,0,.28-1.88c.23-3.89,4-3.28,7.12-3.8,2.47-.42-4.08-6.66.91-8.67a4.41,4.41,0,0,0,2.4-1.68,2.83,2.83,0,0,0-1.08-3.45,6.62,6.62,0,0,0-3.79-1c-.81-1-.15-2.48.64-3.49s1.75-2.15,1.45-3.4c-.45-1.88-3.08-1.94-5-1.58-.7-1.13-.69-2.55-1-3.84s-1.37-2.65-2.69-2.48-2,1.56-3.23,1.84c-1.42.34-2.65-.92-3.77-1.86s-3.06-1.53-3.83-.29c-.46.74-.18,1.78-.66,2.51-.83,1.27-2.79.48-4-.42s-3.16-1.71-4-.46a5.17,5.17,0,0,0-.47,1.3c-.58,1.66-2.38,2.49-3.78,3.56s-2.51,3.19-1.32,4.49c.58.64,1.61.9,1.9,1.72.37,1-.68,1.94-1.51,2.65-1.37,1.17-1.62,4.67.2,5.63.76.4,1.88.52,2.07,1.37s-.6,1.34-1.11,1.92a3.62,3.62,0,0,0,1.11,5.38c.44.21,1,.38,1.14.84a1.73,1.73,0,0,1-.11,1,5.58,5.58,0,0,0-.17,1.95.88.88,0,0,0,.24.61.93.93,0,0,0,.57.16c2.63.12,3.9-.81,5.5,1.48a2,2,0,0,0,.55.58,1.67,1.67,0,0,0,.73.18c1.8.15,3-1,4.63-1.19,2.3-.29,2.78.89,4.8,1.84C345.42,197.43,347,196.51,347.56,194.35Z" transform="translate(0 -63.7)"/><path class="cls-4" d="M327.62,204a9.2,9.2,0,0,0,.28-1.88c.23-3.89,4-3.27,7.12-3.8,2.47-.42-4.08-6.66.91-8.67a4.41,4.41,0,0,0,2.4-1.68,2.82,2.82,0,0,0-1.09-3.45,6.65,6.65,0,0,0-3.78-.95c-.81-1-.15-2.47.64-3.48s1.75-2.16,1.45-3.4c-.45-1.88-3.08-1.95-5-1.59-.7-1.13-.69-2.55-1-3.84s-1.37-2.64-2.69-2.48-2,1.56-3.23,1.85c-1.42.33-2.65-.93-3.77-1.87s-3.06-1.53-3.83-.29c-.46.75-.18,1.78-.66,2.51-.83,1.27-2.79.49-4-.41s-3.16-1.72-4-.47a5.17,5.17,0,0,0-.47,1.3c-.58,1.67-2.38,2.5-3.78,3.56s-2.51,3.19-1.32,4.49c.58.65,1.61.91,1.9,1.72.37,1-.68,1.94-1.51,2.65-1.37,1.17-1.62,4.67.2,5.63.76.4,1.88.53,2.07,1.37s-.6,1.34-1.11,1.92a3.63,3.63,0,0,0,1.11,5.39c.44.21,1,.38,1.14.83a1.72,1.72,0,0,1-.11,1,5.58,5.58,0,0,0-.17,1.95.87.87,0,0,0,.23.61.92.92,0,0,0,.58.17c2.63.11,3.9-.82,5.5,1.47a1.91,1.91,0,0,0,.55.58,1.64,1.64,0,0,0,.73.18c1.8.15,3-1,4.63-1.19,2.3-.29,2.78.89,4.8,1.84C325.48,207,327,206.11,327.62,204Z" transform="translate(0 -63.7)"/><path class="cls-4" d="M307.47,199.52a9.31,9.31,0,0,0,.28-1.88c.23-3.9,3.95-3.28,7.11-3.81,2.47-.41-4.07-6.65.91-8.67a4.37,4.37,0,0,0,2.41-1.67,2.85,2.85,0,0,0-1.09-3.46,6.75,6.75,0,0,0-3.78-.95c-.81-1-.15-2.47.63-3.48s1.75-2.16,1.46-3.4c-.46-1.88-3.08-1.95-5-1.58-.7-1.14-.68-2.55-1-3.84s-1.37-2.65-2.69-2.49-2,1.56-3.24,1.85c-1.42.34-2.65-.92-3.76-1.86s-3.07-1.53-3.83-.29c-.46.74-.19,1.78-.67,2.51-.82,1.27-2.79.48-4-.42s-3.16-1.71-4-.46a5.17,5.17,0,0,0-.47,1.3c-.58,1.66-2.38,2.49-3.78,3.56s-2.51,3.19-1.32,4.49c.58.64,1.61.9,1.9,1.72.36,1-.68,1.94-1.51,2.64-1.38,1.17-1.63,4.68.19,5.64.77.4,1.89.52,2.08,1.36s-.6,1.34-1.11,1.93a3.62,3.62,0,0,0,1.11,5.38c.44.21,1,.38,1.13.84a1.72,1.72,0,0,1-.1,1,5.33,5.33,0,0,0-.18,1.95,1,1,0,0,0,.24.61,1,1,0,0,0,.58.16c2.63.12,3.89-.81,5.5,1.47a1.82,1.82,0,0,0,.55.59,1.74,1.74,0,0,0,.72.18c1.81.15,3-1,4.64-1.19,2.29-.29,2.78.89,4.8,1.84C305.33,202.6,306.87,201.68,307.47,199.52Z" transform="translate(0 -63.7)"/><path class="cls-4" d="M307.2,221.07a7.68,7.68,0,0,0,.23-1.47c.18-3.07,3.11-2.59,5.6-3,1.94-.33-3.21-5.24.71-6.83a3.43,3.43,0,0,0,1.9-1.32,2.23,2.23,0,0,0-.86-2.72,5.28,5.28,0,0,0-3-.74c-.64-.78-.12-2,.5-2.75s1.38-1.7,1.15-2.67c-.36-1.48-2.43-1.54-3.92-1.25a10.84,10.84,0,0,1-.81-3c-.27-1-1.07-2.08-2.12-1.95s-1.58,1.23-2.54,1.45c-1.12.27-2.09-.72-3-1.46s-2.41-1.21-3-.23c-.36.58-.15,1.4-.52,2-.66,1-2.2.38-3.16-.33s-2.49-1.35-3.16-.37a4,4,0,0,0-.38,1c-.45,1.31-1.87,2-3,2.8s-2,2.51-1,3.53c.46.51,1.27.72,1.5,1.36.28.81-.54,1.53-1.19,2.08-1.08.92-1.28,3.68.15,4.44.6.31,1.49.41,1.63,1.07s-.47,1.06-.87,1.52a2.85,2.85,0,0,0,.87,4.24c.35.16.77.3.9.66a1.39,1.39,0,0,1-.08.8,4.17,4.17,0,0,0-.14,1.53.71.71,0,0,0,.19.49.7.7,0,0,0,.45.12c2.07.1,3.07-.64,4.33,1.16a1.36,1.36,0,0,0,.43.46,1.26,1.26,0,0,0,.57.14c1.43.12,2.36-.77,3.66-.93,1.8-.23,2.18.7,3.77,1.45C305.52,223.5,306.73,222.78,307.2,221.07Z" transform="translate(0 -63.7)"/><path class="cls-4" d="M295.91,213.63a9.31,9.31,0,0,0,.28-1.88c.24-3.9,3.95-3.28,7.12-3.81,2.47-.41-4.08-6.65.91-8.67a4.34,4.34,0,0,0,2.4-1.67,2.84,2.84,0,0,0-1.08-3.46,6.69,6.69,0,0,0-3.79-.94c-.81-1-.15-2.48.64-3.49s1.75-2.15,1.45-3.4c-.45-1.88-3.08-1.95-5-1.58-.7-1.13-.69-2.55-1-3.84s-1.37-2.65-2.69-2.49-2,1.56-3.23,1.85c-1.42.34-2.65-.92-3.77-1.86s-3.06-1.53-3.83-.29c-.46.74-.18,1.78-.66,2.51-.83,1.27-2.79.48-4-.42s-3.16-1.71-4-.46a5.17,5.17,0,0,0-.47,1.3c-.58,1.66-2.37,2.49-3.77,3.56s-2.52,3.19-1.33,4.49c.58.64,1.61.9,1.9,1.72.37,1-.68,1.94-1.51,2.64-1.37,1.17-1.62,4.68.2,5.64.76.4,1.88.52,2.07,1.36s-.6,1.34-1.1,1.93a3.61,3.61,0,0,0,1.1,5.38c.44.21,1,.38,1.14.84a1.73,1.73,0,0,1-.11,1,5.55,5.55,0,0,0-.17,1.95.9.9,0,0,0,.24.61.93.93,0,0,0,.57.16c2.63.12,3.9-.81,5.5,1.48a2,2,0,0,0,.55.58,1.83,1.83,0,0,0,.73.18c1.8.15,3-1,4.64-1.19,2.29-.29,2.77.89,4.79,1.84C293.78,216.71,295.31,215.79,295.91,213.63Z" transform="translate(0 -63.7)"/><path class="cls-4" d="M327.62,180.24a9.2,9.2,0,0,0,.28-1.88c.23-3.89,4-3.28,7.12-3.81,2.47-.41-4.08-6.65.91-8.66a4.41,4.41,0,0,0,2.4-1.68,2.82,2.82,0,0,0-1.09-3.45,6.57,6.57,0,0,0-3.78-.95c-.81-1-.15-2.48.64-3.49s1.75-2.15,1.45-3.4c-.45-1.88-3.08-1.94-5-1.58-.7-1.13-.69-2.55-1-3.84s-1.37-2.65-2.69-2.49-2,1.57-3.23,1.85c-1.42.34-2.65-.92-3.77-1.86s-3.06-1.53-3.83-.29c-.46.74-.18,1.78-.66,2.51-.83,1.27-2.79.48-4-.42s-3.16-1.71-4-.46a5.17,5.17,0,0,0-.47,1.3c-.58,1.66-2.38,2.49-3.78,3.56s-2.51,3.19-1.32,4.49c.58.64,1.61.9,1.9,1.72.37,1-.68,1.94-1.51,2.64-1.37,1.18-1.62,4.68.2,5.64.76.4,1.88.52,2.07,1.37s-.6,1.34-1.11,1.92a3.62,3.62,0,0,0,1.11,5.38c.44.21,1,.38,1.14.84a1.73,1.73,0,0,1-.11,1,5.55,5.55,0,0,0-.17,1.95.89.89,0,0,0,.23.61,1,1,0,0,0,.58.16c2.63.12,3.9-.81,5.5,1.48a2,2,0,0,0,.55.58,1.79,1.79,0,0,0,.73.18c1.8.15,3-1,4.63-1.19,2.3-.29,2.78.89,4.8,1.84C325.48,183.32,327,182.4,327.62,180.24Z" transform="translate(0 -63.7)"/><path class="cls-4" d="M353.51,181.56a9.2,9.2,0,0,0,.28-1.88c.23-3.89,3.95-3.27,7.12-3.8,2.47-.41-4.08-6.66.91-8.67a4.36,4.36,0,0,0,2.4-1.68,2.82,2.82,0,0,0-1.09-3.45,6.73,6.73,0,0,0-3.78-1c-.81-1-.15-2.47.64-3.48s1.75-2.16,1.45-3.4c-.45-1.88-3.08-1.95-5-1.58-.7-1.14-.69-2.56-1-3.85s-1.37-2.64-2.69-2.48-2,1.56-3.23,1.85c-1.42.33-2.65-.92-3.77-1.87s-3.06-1.53-3.83-.29c-.46.75-.18,1.78-.66,2.52-.83,1.26-2.79.48-4-.42s-3.16-1.72-4-.47a5.31,5.31,0,0,0-.47,1.3c-.58,1.67-2.38,2.5-3.78,3.56s-2.51,3.19-1.32,4.49c.58.65,1.61.91,1.9,1.73.37,1-.68,1.94-1.51,2.64-1.37,1.17-1.62,4.67.2,5.63.76.4,1.88.53,2.07,1.37s-.6,1.34-1.11,1.92a3.63,3.63,0,0,0,1.11,5.39c.44.21,1,.38,1.14.83a1.72,1.72,0,0,1-.11,1,5.58,5.58,0,0,0-.17,2,.85.85,0,0,0,.23.61.92.92,0,0,0,.58.17c2.63.11,3.9-.82,5.5,1.47a1.91,1.91,0,0,0,.55.58,1.64,1.64,0,0,0,.73.18c1.8.15,3-1,4.63-1.19,2.3-.29,2.78.89,4.8,1.84C351.37,184.64,352.91,183.72,353.51,181.56Z" transform="translate(0 -63.7)"/><path class="cls-4" d="M369.24,192.16a9.31,9.31,0,0,0,.28-1.88c.23-3.89,4-3.28,7.11-3.81,2.47-.41-4.07-6.65.91-8.67a4.37,4.37,0,0,0,2.41-1.67,2.85,2.85,0,0,0-1.09-3.46,6.66,6.66,0,0,0-3.78-.94c-.81-1-.15-2.48.63-3.49s1.75-2.15,1.45-3.4c-.45-1.88-3.07-1.94-5-1.58-.7-1.13-.69-2.55-1-3.84s-1.36-2.65-2.69-2.49-2,1.56-3.23,1.85c-1.42.34-2.65-.92-3.76-1.86s-3.07-1.53-3.83-.29c-.46.74-.19,1.78-.67,2.51-.82,1.27-2.79.48-4-.42s-3.16-1.71-4-.46a5.19,5.19,0,0,0-.48,1.3c-.57,1.66-2.37,2.49-3.77,3.56s-2.51,3.19-1.33,4.49c.59.64,1.62.9,1.91,1.72.36,1-.68,1.94-1.51,2.64-1.38,1.17-1.63,4.68.19,5.64.77.4,1.89.52,2.08,1.37s-.6,1.34-1.11,1.92a3.6,3.6,0,0,0,1.11,5.38c.43.21,1,.38,1.13.84a1.72,1.72,0,0,1-.1,1,5.33,5.33,0,0,0-.18,2,.9.9,0,0,0,.24.61,1,1,0,0,0,.58.16c2.63.12,3.89-.81,5.5,1.48a1.79,1.79,0,0,0,.55.58,1.74,1.74,0,0,0,.72.18c1.81.15,3-1,4.64-1.19,2.29-.29,2.78.89,4.79,1.84C367.1,195.24,368.64,194.32,369.24,192.16Z" transform="translate(0 -63.7)"/><path class="cls-5" d="M364.47,205.55s-6.58,9.3-8.85,12.24-13.6,21.32-15.15,33.47c-.16,1.3-.32,2.41-.48,3.39,4.87,32.19,4.11,91.09,3.94,101.18H328.48c-.15-11.37-1.46-115.31-1.94-118.49-.52-3.36-7-16.14-17-21.4S291,193.3,291,193.3h3.18s5.9,10.66,14.29,16.56a32.93,32.93,0,0,0,3.78,2.24,53.7,53.7,0,0,1,3.33-18.8l1.72,1.59c-2.32,9.49-2,15.57-1.31,19.07a34.48,34.48,0,0,1,8.68,5.8c8.7-11.32,13.59-37.2,13.59-37.2l2.23,1.22a130.44,130.44,0,0,1-2.88,15.87c-1.63,6.7-6.43,19.31-8.66,25A59.28,59.28,0,0,1,335.51,237a5.07,5.07,0,0,1,.84-1c5.67-5.13,16.32-29.35,16.32-29.35,2.58-5.63-1.36-20.41-1.36-20.41h3l1.33,12.93,7.49-8.17,1.36,1.14-7.94,10.2-4.08,12.93,10.66-11.79Z" transform="translate(0 -63.7)"/><path class="cls-4" d="M83.66,251.58a6.8,6.8,0,0,1-.22-1.44c-.18-3-3-2.52-5.46-2.92-1.9-.32,3.12-5.11-.7-6.66a3.32,3.32,0,0,1-1.84-1.28,2.17,2.17,0,0,1,.83-2.65,5.11,5.11,0,0,1,2.9-.73c.63-.76.12-1.9-.48-2.67s-1.35-1.66-1.12-2.61c.35-1.44,2.36-1.5,3.82-1.22a10.72,10.72,0,0,0,.78-2.94c.27-1,1-2,2.07-1.91s1.54,1.2,2.48,1.42c1.09.26,2-.71,2.89-1.43s2.35-1.18,2.94-.22c.35.57.14,1.36.51,1.92.63,1,2.14.37,3.07-.32s2.43-1.31,3.08-.35a3.81,3.81,0,0,1,.37,1c.44,1.28,1.82,1.92,2.89,2.74s1.93,2.44,1,3.44c-.45.49-1.24.69-1.46,1.32-.28.79.52,1.49,1.16,2,1,.9,1.24,3.59-.15,4.32-.59.31-1.45.41-1.59,1.05s.46,1,.85,1.48a2.78,2.78,0,0,1-.85,4.13c-.34.16-.75.29-.87.64a1.24,1.24,0,0,0,.08.78,4.23,4.23,0,0,1,.13,1.5.53.53,0,0,1-.63.59c-2,.09-3-.62-4.22,1.13a1.3,1.3,0,0,1-.42.45,1.28,1.28,0,0,1-.55.14c-1.39.11-2.29-.75-3.56-.91-1.76-.23-2.13.68-3.68,1.41C85.29,253.94,84.11,253.24,83.66,251.58Z" transform="translate(0 -63.7)"/><path class="cls-4" d="M106.88,249.07a7.51,7.51,0,0,1-.22-1.44c-.17-3-3-2.52-5.45-2.92-1.9-.32,3.12-5.11-.7-6.66a3.38,3.38,0,0,1-1.85-1.28,2.17,2.17,0,0,1,.84-2.65,5.09,5.09,0,0,1,2.9-.73c.62-.76.11-1.9-.49-2.67s-1.34-1.66-1.11-2.61c.34-1.44,2.36-1.5,3.81-1.21a10.46,10.46,0,0,0,.79-3c.26-1,1-2,2.06-1.91s1.55,1.2,2.49,1.42c1.09.26,2-.71,2.88-1.43s2.35-1.18,2.94-.22c.36.57.14,1.36.51,1.92.64,1,2.14.37,3.08-.32s2.42-1.31,3.08-.35a3.72,3.72,0,0,1,.36,1c.44,1.27,1.82,1.91,2.9,2.73s1.93,2.44,1,3.44c-.45.49-1.24.69-1.47,1.32-.27.79.53,1.49,1.16,2,1.06.9,1.25,3.59-.15,4.32-.58.31-1.44.41-1.59,1s.46,1,.85,1.48a2.77,2.77,0,0,1-.85,4.13c-.33.16-.74.29-.87.64a1.32,1.32,0,0,0,.08.78,4.23,4.23,0,0,1,.14,1.5.71.71,0,0,1-.19.47.65.65,0,0,1-.44.12c-2,.09-3-.62-4.22,1.13a1.4,1.4,0,0,1-.42.45,1.32,1.32,0,0,1-.56.14c-1.38.11-2.29-.75-3.56-.91-1.75-.23-2.13.68-3.67,1.41C108.52,251.43,107.34,250.73,106.88,249.07Z" transform="translate(0 -63.7)"/><path class="cls-4" d="M109.12,234.28a6.8,6.8,0,0,1-.22-1.45c-.18-3-3-2.51-5.46-2.92-1.89-.31,3.13-5.1-.69-6.65A3.34,3.34,0,0,1,100.9,222a2.18,2.18,0,0,1,.83-2.65,5.12,5.12,0,0,1,2.91-.73c.62-.76.11-1.9-.49-2.67s-1.34-1.66-1.11-2.61c.34-1.44,2.36-1.5,3.81-1.22a10.37,10.37,0,0,0,.79-2.95c.26-1,1-2,2.06-1.9s1.54,1.2,2.48,1.42,2-.71,2.89-1.43,2.35-1.18,2.94-.22c.35.57.14,1.36.51,1.92.63,1,2.14.37,3.08-.32s2.42-1.31,3.08-.36a4.42,4.42,0,0,1,.36,1c.44,1.28,1.82,1.92,2.9,2.73s1.92,2.45,1,3.45c-.44.49-1.23.69-1.46,1.32-.28.79.53,1.49,1.16,2,1.06.9,1.25,3.59-.15,4.32-.58.31-1.44.4-1.59,1s.46,1,.85,1.48a2.77,2.77,0,0,1-.85,4.13c-.33.16-.75.29-.87.64a1.32,1.32,0,0,0,.08.78,4,4,0,0,1,.13,1.5.67.67,0,0,1-.18.47.73.73,0,0,1-.44.12c-2,.09-3-.62-4.22,1.13a1.51,1.51,0,0,1-.42.45,1.36,1.36,0,0,1-.56.14c-1.38.11-2.29-.75-3.56-.92-1.76-.22-2.13.69-3.68,1.42C110.76,236.64,109.58,235.93,109.12,234.28Z" transform="translate(0 -63.7)"/><path class="cls-4" d="M124.42,241.64a6.61,6.61,0,0,1-.22-1.44c-.18-3-3-2.51-5.46-2.92-1.89-.31,3.13-5.1-.69-6.65a3.36,3.36,0,0,1-1.85-1.29,2.18,2.18,0,0,1,.83-2.65,5.19,5.19,0,0,1,2.91-.72c.62-.76.11-1.9-.49-2.68s-1.34-1.65-1.11-2.61c.34-1.44,2.36-1.49,3.81-1.21a10.37,10.37,0,0,0,.79-2.95c.26-1,1-2,2.06-1.9s1.54,1.19,2.48,1.42,2-.71,2.89-1.43,2.35-1.18,2.94-.23c.35.57.14,1.37.51,1.93.63,1,2.14.37,3.08-.32s2.42-1.32,3.08-.36a4.42,4.42,0,0,1,.36,1c.44,1.28,1.82,1.91,2.9,2.73s1.92,2.45,1,3.45c-.45.49-1.23.69-1.46,1.32-.28.78.53,1.49,1.16,2,1.06.89,1.25,3.58-.15,4.32-.58.31-1.44.4-1.59,1.05s.46,1,.85,1.47a2.77,2.77,0,0,1-.85,4.13c-.33.17-.75.3-.87.65a1.32,1.32,0,0,0,.08.78,3.94,3.94,0,0,1,.13,1.49.64.64,0,0,1-.18.47.67.67,0,0,1-.44.13c-2,.09-3-.63-4.22,1.13a1.51,1.51,0,0,1-.42.45,1.35,1.35,0,0,1-.56.13c-1.38.12-2.29-.75-3.56-.91-1.76-.22-2.13.68-3.68,1.41C126.06,244,124.88,243.3,124.42,241.64Z" transform="translate(0 -63.7)"/><path class="cls-4" d="M139.88,238.24a8.24,8.24,0,0,1-.22-1.44c-.17-3-3-2.52-5.45-2.92-1.9-.32,3.12-5.11-.7-6.65a3.39,3.39,0,0,1-1.85-1.29,2.17,2.17,0,0,1,.84-2.65,5.17,5.17,0,0,1,2.9-.73c.62-.75.12-1.9-.49-2.67s-1.34-1.65-1.11-2.61c.34-1.44,2.36-1.49,3.81-1.21a10.37,10.37,0,0,0,.79-2.95c.26-1,1-2,2.07-1.91s1.54,1.2,2.48,1.42c1.09.26,2-.7,2.89-1.43s2.35-1.17,2.93-.22c.36.57.15,1.37.51,1.93.64,1,2.14.37,3.08-.32s2.42-1.32,3.08-.36a3.72,3.72,0,0,1,.36,1c.45,1.27,1.83,1.91,2.9,2.73s1.93,2.45,1,3.45c-.45.49-1.24.69-1.46,1.32-.28.78.52,1.48,1.15,2,1.06.9,1.25,3.59-.14,4.33-.59.3-1.45.4-1.59,1s.45,1,.84,1.47a2.77,2.77,0,0,1-.85,4.13c-.33.16-.74.29-.87.64a1.35,1.35,0,0,0,.08.79,4.16,4.16,0,0,1,.14,1.49.67.67,0,0,1-.19.47.72.72,0,0,1-.44.13c-2,.09-3-.63-4.22,1.13a1.36,1.36,0,0,1-.42.44,1.19,1.19,0,0,1-.56.14c-1.38.12-2.29-.75-3.55-.91-1.76-.22-2.13.68-3.68,1.41C141.52,240.6,140.34,239.9,139.88,238.24Z" transform="translate(0 -63.7)"/><path class="cls-4" d="M140.08,254.78a6,6,0,0,1-.17-1.13c-.14-2.36-2.38-2-4.29-2.3-1.5-.25,2.46-4-.55-5.24a2.7,2.7,0,0,1-1.46-1,1.72,1.72,0,0,1,.66-2.09,4,4,0,0,1,2.28-.57c.5-.6.1-1.5-.38-2.11s-1.06-1.3-.88-2.05c.28-1.14,1.86-1.18,3-1a8.45,8.45,0,0,0,.62-2.32c.2-.78.82-1.6,1.62-1.5s1.22.94,2,1.12,1.6-.56,2.27-1.13,1.85-.92,2.32-.17c.27.45.11,1.07.4,1.51.5.77,1.68.29,2.42-.25s1.91-1,2.42-.28a3,3,0,0,1,.29.79c.35,1,1.43,1.5,2.28,2.15s1.52,1.92.8,2.71c-.35.39-1,.55-1.15,1s.41,1.17.91,1.6c.83.7,1,2.82-.11,3.4-.47.24-1.14.32-1.26.83s.36.81.67,1.16a2.18,2.18,0,0,1-.67,3.25c-.26.13-.59.23-.68.51a1,1,0,0,0,.06.61,3.36,3.36,0,0,1,.11,1.18.54.54,0,0,1-.15.37.58.58,0,0,1-.35.1c-1.58.07-2.35-.49-3.32.89a1.1,1.1,0,0,1-.33.35,1,1,0,0,1-.44.11c-1.09.09-1.8-.59-2.8-.72-1.39-.18-1.68.54-2.9,1.11C141.37,256.64,140.44,256.09,140.08,254.78Z" transform="translate(0 -63.7)"/><path class="cls-4" d="M148.75,249.07a6.8,6.8,0,0,1-.22-1.44c-.18-3-3-2.52-5.46-2.92-1.89-.32,3.13-5.11-.69-6.66a3.34,3.34,0,0,1-1.85-1.28,2.18,2.18,0,0,1,.83-2.65,5.12,5.12,0,0,1,2.91-.73c.62-.76.11-1.9-.49-2.67s-1.34-1.66-1.12-2.61c.35-1.44,2.36-1.5,3.82-1.21a10.46,10.46,0,0,0,.79-3c.26-1,1-2,2.06-1.91s1.54,1.2,2.48,1.42c1.09.26,2-.71,2.89-1.43s2.35-1.18,2.94-.22c.35.57.14,1.36.51,1.92.63,1,2.14.37,3.07-.32s2.43-1.31,3.09-.35a4.1,4.1,0,0,1,.36,1c.44,1.27,1.82,1.91,2.9,2.73s1.92,2.44,1,3.44c-.45.49-1.24.69-1.46,1.32-.28.79.53,1.49,1.16,2,1.06.9,1.25,3.59-.15,4.32-.59.31-1.45.41-1.59,1s.46,1,.85,1.48a2.77,2.77,0,0,1-.85,4.13c-.34.16-.75.29-.87.64a1.32,1.32,0,0,0,.08.78,4.23,4.23,0,0,1,.13,1.5.66.66,0,0,1-.18.47.68.68,0,0,1-.44.12c-2,.09-3-.62-4.22,1.13a1.4,1.4,0,0,1-.42.45,1.36,1.36,0,0,1-.56.14c-1.39.11-2.29-.75-3.56-.91-1.76-.23-2.13.68-3.68,1.41C150.39,251.43,149.21,250.73,148.75,249.07Z" transform="translate(0 -63.7)"/><path class="cls-4" d="M124.42,223.45a6.7,6.7,0,0,1-.22-1.44c-.18-3-3-2.52-5.46-2.92-1.89-.32,3.13-5.11-.69-6.65a3.36,3.36,0,0,1-1.85-1.29,2.18,2.18,0,0,1,.83-2.65,5.2,5.2,0,0,1,2.91-.73c.62-.76.11-1.9-.49-2.67s-1.34-1.66-1.11-2.61c.34-1.44,2.36-1.49,3.81-1.21a10.37,10.37,0,0,0,.79-2.95c.26-1,1-2,2.06-1.91s1.54,1.2,2.48,1.42,2-.71,2.89-1.43,2.35-1.17,2.94-.22c.35.57.14,1.36.51,1.93.63,1,2.14.37,3.08-.32s2.42-1.32,3.08-.36a4.1,4.1,0,0,1,.36,1c.44,1.27,1.82,1.91,2.9,2.73s1.92,2.44,1,3.44c-.45.5-1.23.7-1.46,1.32-.28.79.53,1.49,1.16,2,1.06.9,1.25,3.59-.15,4.32-.58.31-1.44.41-1.59,1.05s.46,1,.85,1.48a2.77,2.77,0,0,1-.85,4.13c-.33.16-.75.29-.87.64a1.32,1.32,0,0,0,.08.78,4,4,0,0,1,.13,1.5.66.66,0,0,1-.18.47.67.67,0,0,1-.44.12c-2,.09-3-.62-4.22,1.14a1.47,1.47,0,0,1-.42.44,1.36,1.36,0,0,1-.56.14c-1.38.11-2.29-.75-3.56-.91-1.76-.23-2.13.68-3.68,1.41C126.06,225.81,124.88,225.11,124.42,223.45Z" transform="translate(0 -63.7)"/><path class="cls-4" d="M104.55,224.46a7.31,7.31,0,0,1-.21-1.44c-.18-3-3-2.51-5.46-2.92-1.9-.31,3.12-5.1-.7-6.65a3.32,3.32,0,0,1-1.84-1.28,2.16,2.16,0,0,1,.83-2.65,5.11,5.11,0,0,1,2.9-.73c.63-.76.12-1.9-.49-2.67s-1.34-1.66-1.11-2.61c.35-1.45,2.36-1.5,3.82-1.22a10.69,10.69,0,0,0,.78-2.95c.27-1,1.05-2,2.07-1.9s1.54,1.2,2.48,1.42,2-.71,2.89-1.43,2.35-1.18,2.94-.22c.35.57.14,1.36.5,1.92.64,1,2.15.37,3.08-.32s2.43-1.31,3.08-.36a4.45,4.45,0,0,1,.37,1c.44,1.28,1.82,1.92,2.89,2.73s1.93,2.45,1,3.45c-.45.49-1.24.69-1.46,1.32-.28.79.52,1.49,1.16,2,1,.9,1.24,3.59-.15,4.32-.59.31-1.45.4-1.59,1s.46,1,.85,1.47a2.79,2.79,0,0,1-.85,4.14c-.34.16-.75.29-.88.64a1.41,1.41,0,0,0,.08.78,4,4,0,0,1,.14,1.5.72.72,0,0,1-.18.47.76.76,0,0,1-.45.12c-2,.09-3-.62-4.22,1.13a1.39,1.39,0,0,1-.42.45,1.44,1.44,0,0,1-.55.14c-1.39.11-2.3-.75-3.56-.92-1.76-.22-2.13.69-3.68,1.41C106.19,226.83,105,226.12,104.55,224.46Z" transform="translate(0 -63.7)"/><path class="cls-4" d="M92.49,232.59a6.61,6.61,0,0,1-.22-1.44c-.18-3-3-2.51-5.46-2.92-1.89-.31,3.13-5.1-.69-6.65a3.39,3.39,0,0,1-1.85-1.28,2.17,2.17,0,0,1,.83-2.65,5.12,5.12,0,0,1,2.91-.73c.62-.76.11-1.9-.49-2.68s-1.34-1.65-1.11-2.6c.34-1.45,2.35-1.5,3.81-1.22a10.37,10.37,0,0,0,.79-2.95c.26-1,1-2,2.06-1.9s1.54,1.2,2.48,1.42c1.09.25,2-.71,2.89-1.43s2.35-1.18,2.94-.23c.35.57.14,1.37.51,1.93.63,1,2.14.37,3.08-.32s2.42-1.32,3.08-.36a4.42,4.42,0,0,1,.36,1c.44,1.28,1.82,1.91,2.9,2.73s1.92,2.45,1,3.45c-.45.49-1.23.69-1.46,1.32s.53,1.49,1.16,2c1.06.9,1.25,3.58-.15,4.32-.58.31-1.44.4-1.59,1s.46,1,.85,1.47a2.78,2.78,0,0,1-.85,4.14c-.34.16-.75.29-.87.64a1.32,1.32,0,0,0,.08.78,4.19,4.19,0,0,1,.13,1.5.67.67,0,0,1-.18.47.75.75,0,0,1-.44.12c-2,.09-3-.62-4.22,1.13a1.51,1.51,0,0,1-.42.45,1.54,1.54,0,0,1-.56.14c-1.38.11-2.29-.76-3.56-.92-1.76-.22-2.13.69-3.68,1.41C94.13,235,93,234.25,92.49,232.59Z" transform="translate(0 -63.7)"/><path class="cls-5" d="M96.15,242.87s5,7.13,6.78,9.39,10.44,16.36,11.63,25.68c.12,1,.25,1.85.37,2.6-3.74,24.7-3.16,69.89-3,77.63h11.85c.11-8.72,1.12-88.47,1.49-90.91s5.35-12.39,13-16.42,14.27-17.37,14.27-17.37h-2.44s-4.53,8.18-11,12.7a24.55,24.55,0,0,1-2.9,1.72,41.13,41.13,0,0,0-2.56-14.42l-1.32,1.22c1.78,7.28,1.55,11.95,1,14.63a26.75,26.75,0,0,0-6.66,4.45c-6.68-8.68-10.43-28.54-10.43-28.54l-1.71.93a99.37,99.37,0,0,0,2.21,12.18c1.25,5.14,4.93,14.82,6.64,19.22a45.45,45.45,0,0,0-5,9.47,4.08,4.08,0,0,0-.65-.78c-4.35-3.93-12.52-22.51-12.52-22.51-2-4.32,1-15.66,1-15.66H104l-1,9.92-5.74-6.27-1,.87,6.09,7.83,3.13,9.92-8.18-9Z" transform="translate(0 -63.7)"/><path class="cls-2" d="M58.29,372.14H441.71a0,0,0,0,1,0,0v11.92A7.92,7.92,0,0,1,433.8,392H66.2a7.92,7.92,0,0,1-7.92-7.92V372.14A0,0,0,0,1,58.29,372.14Z" transform="translate(500 700.43) rotate(180)"/><ellipse id="_Path_" data-name="&lt;Path&gt;" class="cls-3" cx="250" cy="361.29" rx="193.89" ry="11.32"/><path class="cls-6" d="M105.42,399.9s-1.39-10.17-7.89-11.29-4.55-6-6.24-7.93-6.13,3.71-2.33,9.15.69,3.73,2.33,8.8S106,408.33,105.42,399.9Z" transform="translate(0 -63.7)"/><path class="cls-7" d="M105.42,399.9s-1.39-10.17-7.89-11.29-4.55-6-6.24-7.93-6.13,3.71-2.33,9.15.69,3.73,2.33,8.8S106,408.33,105.42,399.9Z" transform="translate(0 -63.7)"/><path class="cls-8" d="M105.15,406.51s-5-10.37-2.37-27.28,12.45-23.48,3.9-42.09S88.37,305.25,93.25,292" transform="translate(0 -63.7)"/><path class="cls-6" d="M101.39,404.47s-4.2-6.33,1.87-9.59,7.28-.64,11-3,6.6-8,7.24-4.39-3.7,5.71-2.16,7.37S109.17,407.33,101.39,404.47Z" transform="translate(0 -63.7)"/><path class="cls-6" d="M91.47,297.34s-4.1-12.46,5.22-12.72S95.74,296,91.47,297.34Z" transform="translate(0 -63.7)"/><path class="cls-6" d="M99.57,306.91s2.77-11.32,9.39-8.93S106.16,307.12,99.57,306.91Z" transform="translate(0 -63.7)"/><path class="cls-6" d="M88.34,307.89s1-9-6-9.21S78.43,306.43,88.34,307.89Z" transform="translate(0 -63.7)"/><path class="cls-6" d="M93,326.33s-9.42-8.4-12.8-2.15S87.31,331.73,93,326.33Z" transform="translate(0 -63.7)"/><path class="cls-6" d="M109.68,324.84s1.77-13.95,9.38-9.57S116.31,326.23,109.68,324.84Z" transform="translate(0 -63.7)"/><path class="cls-6" d="M116.38,344.81s-5.62-14.1,4.82-12.51S123.74,341.39,116.38,344.81Z" transform="translate(0 -63.7)"/><path class="cls-6" d="M100.36,349.83s-8.82-10.38-15.55-7.09S83.58,356.36,100.36,349.83Z" transform="translate(0 -63.7)"/><path class="cls-6" d="M108.36,372.84s7.51-16.67,14.19-11S118.29,375.81,108.36,372.84Z" transform="translate(0 -63.7)"/><path class="cls-6" d="M97.45,371.87s2-12.94-5.45-11.9S86.51,368.92,97.45,371.87Z" transform="translate(0 -63.7)"/><g class="cls-9"><path class="cls-10" d="M91.47,297.34s-4.1-12.46,5.22-12.72S95.74,296,91.47,297.34Z" transform="translate(0 -63.7)"/><path class="cls-10" d="M99.57,306.91s2.77-11.32,9.39-8.93S106.16,307.12,99.57,306.91Z" transform="translate(0 -63.7)"/><path class="cls-10" d="M88.34,307.89s1-9-6-9.21S78.43,306.43,88.34,307.89Z" transform="translate(0 -63.7)"/><path class="cls-10" d="M93,326.33s-9.42-8.4-12.8-2.15S87.31,331.73,93,326.33Z" transform="translate(0 -63.7)"/><path class="cls-10" d="M109.68,324.84s1.77-13.95,9.38-9.57S116.31,326.23,109.68,324.84Z" transform="translate(0 -63.7)"/><path class="cls-10" d="M116.38,344.81s-5.62-14.1,4.82-12.51S123.74,341.39,116.38,344.81Z" transform="translate(0 -63.7)"/><path class="cls-10" d="M100.36,349.83s-8.82-10.38-15.55-7.09S83.58,356.36,100.36,349.83Z" transform="translate(0 -63.7)"/><path class="cls-10" d="M108.36,372.84s7.51-16.67,14.19-11S118.29,375.81,108.36,372.84Z" transform="translate(0 -63.7)"/><path class="cls-10" d="M97.45,371.87s2-12.94-5.45-11.9S86.51,368.92,97.45,371.87Z" transform="translate(0 -63.7)"/></g><path class="cls-8" d="M86,304.93s4,6,9.49,9c0,0,3.63-7,6.46-8.7" transform="translate(0 -63.7)"/><path class="cls-8" d="M85.78,325.49s10.2-.33,18.27,5.77c0,0,4.48-7.59,10.35-11.05" transform="translate(0 -63.7)"/><path class="cls-8" d="M119.45,338.13s-4.38,11.52-10,16c0,0-11.58-6.71-20.09-6.88" transform="translate(0 -63.7)"/><path class="cls-8" d="M92.86,364.17s5.72,11.17,10,13.61a24.94,24.94,0,0,1,12.62-8.22" transform="translate(0 -63.7)"/><path class="cls-6" d="M102,403s-3.61-5.74-7.68-6.56-5.83-5.5-7.33-2.68S89.67,405.89,102,403Z" transform="translate(0 -63.7)"/><polygon class="cls-11" points="83.32 361.8 122.7 361.8 125.34 337.51 80.69 337.51 83.32 361.8"/><polygon class="cls-11" points="79.77 342.11 126.26 342.11 126.85 336.96 79.17 336.96 79.77 342.11"/><polygon class="cls-12" points="79.77 342.11 126.26 342.11 126.85 336.96 79.17 336.96 79.77 342.11"/><polygon class="cls-6" points="428.9 99.11 425.48 131.96 408.36 131.96 404.94 99.11 428.9 99.11"/><polygon class="cls-12" points="428.9 99.11 425.48 131.96 408.36 131.96 404.94 99.11 428.9 99.11"/><rect class="cls-6" x="413.73" y="124.9" width="6.37" height="236.9"/><rect class="cls-12" x="413.73" y="124.9" width="6.37" height="236.9"/><polygon class="cls-11" points="423.68 129.96 410.16 129.96 407.16 101.11 426.68 101.11 423.68 129.96"/><polygon class="cls-13" points="423.68 129.96 410.16 129.96 407.16 101.11 426.68 101.11 423.68 129.96"/><polygon class="cls-6" points="415.14 130.41 414.22 130.41 413.22 100.11 414.14 100.11 415.14 130.41"/><polygon class="cls-12" points="415.14 130.41 414.22 130.41 413.22 100.11 414.14 100.11 415.14 130.41"/><polygon class="cls-14" points="428.9 99.11 425.48 131.96 414.72 131.96 413.43 99.11 428.9 99.11"/><path class="cls-6" d="M416.92,152.25s-10.16,10-17.94,10l2.42,1.58h31l2.41-1.58C427.07,162.27,416.92,152.25,416.92,152.25Z" transform="translate(0 -63.7)"/><path class="cls-15" d="M434.85,162.27l-2.41,1.58h-31L399,162.27c7.78,0,17.93-10,17.93-10S427.07,162.27,434.85,162.27Z" transform="translate(0 -63.7)"/><path class="cls-14" d="M434.85,162.27l-2.41,1.58H412.28c-.61-1-1-1.71-1-1.71,5.41-2.51,5.68-9.89,5.68-9.89S427.07,162.27,434.85,162.27Z" transform="translate(0 -63.7)"/><path class="cls-6" d="M411.45,357.41h10.94a2.47,2.47,0,0,1,2.47,2.47v1.91a0,0,0,0,1,0,0H409a0,0,0,0,1,0,0v-1.91A2.47,2.47,0,0,1,411.45,357.41Z"/><path class="cls-16" d="M411.45,357.41h10.94a2.47,2.47,0,0,1,2.47,2.47v1.91a0,0,0,0,1,0,0H409a0,0,0,0,1,0,0v-1.91A2.47,2.47,0,0,1,411.45,357.41Z"/><rect class="cls-11" x="101.6" y="62.59" width="146.24" height="198.58" rx="7.83"/><rect class="cls-17" x="101.6" y="62.59" width="146.24" height="198.58" rx="7.83"/><path class="cls-11" d="M194.36,179.53a19.64,19.64,0,1,1-19.64-19.63A19.62,19.62,0,0,1,194.36,179.53Z" transform="translate(0 -63.7)"/><path class="cls-18" d="M194.36,179.53a19.64,19.64,0,1,1-19.64-19.63A19.62,19.62,0,0,1,194.36,179.53Z" transform="translate(0 -63.7)"/><circle class="cls-10" cx="174.72" cy="113.99" r="7.03"/><path class="cls-10" d="M187.19,194.71a19.65,19.65,0,0,1-24.93,0c1.84-5.39,5.63-9.37,10.18-10.38a10.52,10.52,0,0,1,4.56,0C181.56,185.34,185.34,189.32,187.19,194.71Z" transform="translate(0 -63.7)"/><path class="cls-10" d="M162.4,256.14a1.26,1.26,0,0,0,.62.17c.35,0,.56-.18.56-.46s-.14-.39-.5-.53-.72-.39-.72-.77a.78.78,0,0,1,.87-.73,1.33,1.33,0,0,1,.6.13l-.1.29a1,1,0,0,0-.51-.13c-.36,0-.5.22-.5.4s.16.38.53.52.69.4.69.8-.31.77-.95.77a1.34,1.34,0,0,1-.68-.17Z" transform="translate(0 -63.7)"/><path class="cls-10" d="M164.8,254.08a.22.22,0,0,1-.23.22.22.22,0,1,1,.23-.22Zm-.4,2.48v-1.93h.36v1.93Z" transform="translate(0 -63.7)"/><path class="cls-10" d="M167,254.63c0,.14,0,.29,0,.53v1.12a1.08,1.08,0,0,1-.28.88,1,1,0,0,1-.7.24,1.26,1.26,0,0,1-.64-.16l.08-.27a1.11,1.11,0,0,0,.57.15.59.59,0,0,0,.63-.67v-.22h0a.7.7,0,0,1-.62.32.86.86,0,0,1-.82-.94.93.93,0,0,1,.87-1,.63.63,0,0,1,.6.34h0l0-.29Zm-.37.76a.41.41,0,0,0,0-.16.5.5,0,0,0-.49-.37c-.34,0-.57.28-.57.73s.19.7.57.7a.51.51,0,0,0,.48-.36.63.63,0,0,0,0-.19Z" transform="translate(0 -63.7)"/><path class="cls-10" d="M167.55,255.15c0-.2,0-.36,0-.52h.31l0,.32h0a.69.69,0,0,1,.63-.37c.27,0,.69.16.69.83v1.15h-.35v-1.11c0-.32-.12-.58-.45-.58a.51.51,0,0,0-.47.36.47.47,0,0,0,0,.17v1.16h-.35Z" transform="translate(0 -63.7)"/><path class="cls-10" d="M172.24,256c0,.2,0,.38,0,.53h-.31l0-.31h0a.73.73,0,0,1-.64.36c-.3,0-.66-.17-.66-.85v-1.13H171v1.07c0,.37.11.61.43.61a.49.49,0,0,0,.46-.32.48.48,0,0,0,0-.18v-1.18h.35Z" transform="translate(0 -63.7)"/><path class="cls-10" d="M172.82,255.26c0-.25,0-.45,0-.63h.31l0,.33h0a.75.75,0,0,1,.68-.38.88.88,0,0,1,.82,1,.92.92,0,0,1-.88,1,.69.69,0,0,1-.59-.31h0v1.05h-.35Zm.35.51a.68.68,0,0,0,0,.15.54.54,0,0,0,.53.41c.37,0,.58-.3.58-.75s-.2-.72-.57-.72a.55.55,0,0,0-.53.44.32.32,0,0,0,0,.14Z" transform="translate(0 -63.7)"/><path class="cls-10" d="M176,255.15c0-.2,0-.36,0-.52h.31l0,.32h0a.71.71,0,0,1,.64-.37c.27,0,.68.16.68.83v1.15h-.35v-1.11c0-.32-.11-.58-.45-.58a.51.51,0,0,0-.47.36.88.88,0,0,0,0,.17v1.16H176Z" transform="translate(0 -63.7)"/><path class="cls-10" d="M179.92,255.58a1,1,0,0,1-1,1,.92.92,0,0,1-.92-1,.94.94,0,0,1,1-1A.92.92,0,0,1,179.92,255.58Zm-1.54,0a.66.66,0,0,0,.59.74c.34,0,.59-.31.59-.75s-.17-.74-.58-.74S178.38,255.23,178.38,255.6Z" transform="translate(0 -63.7)"/><path class="cls-10" d="M180.47,254.63l.26,1a5.42,5.42,0,0,1,.14.62h0a5.24,5.24,0,0,1,.17-.62l.31-1h.3l.3,1c.07.24.13.44.17.64h0c0-.2.09-.4.15-.63l.28-1h.35l-.63,1.93H182l-.29-.92c-.07-.22-.13-.41-.18-.64h0a6,6,0,0,1-.18.64l-.31.92h-.32l-.58-1.93Z" transform="translate(0 -63.7)"/><rect class="cls-10" x="126.99" y="198.63" width="95.47" height="16.35" rx="8.17"/><text class="cls-19" transform="translate(156.73 225.91)"><tspan class="cls-20">F</tspan><tspan x="1.82" y="0">o</tspan><tspan class="cls-21" x="4.02" y="0">r</tspan><tspan x="5.3" y="0">got </tspan><tspan class="cls-22" x="11.9" y="0">P</tspan><tspan x="13.92" y="0">ass</tspan><tspan class="cls-23" x="19.02" y="0">w</tspan><tspan x="21.92" y="0">o</tspan><tspan class="cls-23" x="24.12" y="0">r</tspan><tspan class="cls-24" x="25.39" y="0">d?</tspan></text><path d="M165.93,267.65h.7v4.81h2.3V273h-3Z" transform="translate(0 -63.7)"/><path d="M173.08,271.07a1.9,1.9,0,0,1-1.93,2.06,1.84,1.84,0,0,1-1.86-2,1.89,1.89,0,0,1,1.92-2.06A1.83,1.83,0,0,1,173.08,271.07Zm-3.07,0c0,.85.48,1.49,1.17,1.49s1.18-.63,1.18-1.5c0-.66-.33-1.49-1.16-1.49S170,270.38,170,271.11Z" transform="translate(0 -63.7)"/><path d="M177.3,269.17c0,.28,0,.59,0,1.06v2.25a2.26,2.26,0,0,1-.55,1.77,2.07,2.07,0,0,1-1.41.46,2.49,2.49,0,0,1-1.29-.32l.18-.54a2.14,2.14,0,0,0,1.13.31c.72,0,1.25-.38,1.25-1.35v-.43h0a1.37,1.37,0,0,1-1.23.64,1.72,1.72,0,0,1-1.64-1.88,1.86,1.86,0,0,1,1.74-2.06,1.29,1.29,0,0,1,1.21.67h0l0-.58Zm-.73,1.53a1,1,0,0,0,0-.32,1,1,0,0,0-1-.75c-.67,0-1.15.57-1.15,1.47s.38,1.39,1.14,1.39a1,1,0,0,0,1-.72,1.24,1.24,0,0,0,0-.38Z" transform="translate(0 -63.7)"/><path d="M179.17,268.08a.41.41,0,0,1-.44.43.42.42,0,0,1-.43-.43.43.43,0,0,1,.44-.44A.41.41,0,0,1,179.17,268.08Zm-.78,5v-3.87h.7V273Z" transform="translate(0 -63.7)"/><path d="M180.26,270.22c0-.4,0-.73,0-1.05h.62l0,.64h0a1.42,1.42,0,0,1,1.28-.73c.53,0,1.37.32,1.37,1.65V273h-.71v-2.23c0-.63-.23-1.14-.89-1.14a1,1,0,0,0-1,1V273h-.71Z" transform="translate(0 -63.7)"/><rect class="cls-10" x="126.99" y="143.43" width="95.47" height="16.35" rx="8.17"/><rect class="cls-10" x="126.99" y="166.61" width="95.47" height="16.35" rx="8.17"/><g class="cls-25"><text class="cls-26" transform="translate(137.46 153.07)">Name@mai<tspan class="cls-27" x="23.81" y="0">l</tspan><tspan class="cls-28" x="24.94" y="0">.</tspan><tspan class="cls-29" x="25.97" y="0">c</tspan><tspan x="28.18" y="0">om</tspan></text></g><g class="cls-25"><path d="M139.77,238.37l-.67.87v0l1.06-.14v.47l-1.06-.12h0l.67.84-.44.25-.42-1h0l-.46,1-.4-.25.67-.86h0l-1,.13v-.47l1,.13v0l-.66-.85.43-.24.43,1h0l.43-1Z" transform="translate(0 -63.7)"/><path d="M142.67,238.37l-.66.87v0l1.05-.14v.47l-1.05-.12h0l.67.84-.44.25-.42-1h0l-.45,1-.4-.25.66-.86h0l-1,.13v-.47l1,.13v0l-.66-.85.43-.24.43,1h0l.43-1Z" transform="translate(0 -63.7)"/><path d="M145.58,238.37l-.67.87v0l1.06-.14v.47l-1.06-.12h0l.67.84-.44.25-.42-1h0l-.46,1-.4-.25.67-.86h0l-1,.13v-.47l1,.13v0l-.66-.85.43-.24.43,1h0l.43-1Z" transform="translate(0 -63.7)"/><path d="M148.48,238.37l-.66.87v0l1.05-.14v.47l-1.05-.12h0l.67.84-.44.25-.42-1h0l-.45,1-.4-.25.66-.86h0l-1,.13v-.47l1,.13v0l-.66-.85.42-.24.44,1h0l.43-1Z" transform="translate(0 -63.7)"/><path d="M151.39,238.37l-.67.87v0l1.06-.14v.47l-1.06-.12h0l.67.84-.44.25-.42-1h0l-.46,1-.4-.25.67-.86h0l-1,.13v-.47l1,.13v0l-.66-.85.43-.24.43,1h0l.43-1Z" transform="translate(0 -63.7)"/><path d="M154.29,238.37l-.66.87v0l1.05-.14v.47l-1.05-.12h0l.67.84-.44.25-.42-1h0l-.45,1-.4-.25.66-.86h0l-1,.13v-.47l1,.13v0l-.66-.85.43-.24.43,1h0l.43-1Z" transform="translate(0 -63.7)"/><path d="M157.2,238.37l-.67.87v0l1.06-.14v.47l-1.06-.12h0l.67.84-.44.25-.42-1h0l-.46,1-.4-.25.67-.86h0l-1,.13v-.47l1,.13v0l-.66-.85.43-.24.43,1h0l.43-1Z" transform="translate(0 -63.7)"/></g><path class="cls-30" d="M205.66,211.46v7.67h10.88v-7.67Zm9.1.83-3.66,2.5-3.67-2.5Zm-8.27,6v-5.63l4.61,3.13,4.6-3.13v5.63Z" transform="translate(0 -63.7)"/><g class="cls-31"><path d="M213.67,237.21v-.94a2.14,2.14,0,0,0-2.13-2.13h-1.16a2.14,2.14,0,0,0-2.13,2.13v.94H206.5v6.38h9.19v-6.38Zm-4.58-.94a1.29,1.29,0,0,1,1.29-1.29h1.16a1.29,1.29,0,0,1,1.29,1.29v.94h-3.74Zm5.77,6.48h-7.52V238h7.52Z" transform="translate(0 -63.7)"/><path d="M210.86,240.65v.76h.48v-.76a.45.45,0,0,0,.23-.4.48.48,0,0,0-.95,0A.45.45,0,0,0,210.86,240.65Z" transform="translate(0 -63.7)"/></g><path class="cls-11" d="M351.66,154.4H322.93a8.84,8.84,0,0,0-8.85,8.84v25a8.85,8.85,0,0,0,8.85,8.85h11.36l3,7.89,3-7.89h11.36a8.84,8.84,0,0,0,8.84-8.85v-25A8.84,8.84,0,0,0,351.66,154.4Z" transform="translate(0 -63.7)"/><path class="cls-18" d="M351.66,154.4H322.93a8.84,8.84,0,0,0-8.85,8.84v25a8.85,8.85,0,0,0,8.85,8.85h11.36l3,7.89,3-7.89h11.36a8.84,8.84,0,0,0,8.84-8.85v-25A8.84,8.84,0,0,0,351.66,154.4Z" transform="translate(0 -63.7)"/><g class="cls-32"><circle class="cls-11" cx="337.29" cy="175.63" r="14.26" transform="translate(-25.4 226.25) rotate(-45)"/></g><path class="cls-10" d="M335.8,182a1.31,1.31,0,0,1-1-.46L329.2,175a1.31,1.31,0,0,1,2-1.7l4.6,5.42,7.59-8.94a1.31,1.31,0,1,1,2,1.69l-8.58,10.12A1.33,1.33,0,0,1,335.8,182Z" transform="translate(0 -63.7)"/><polygon class="cls-6" points="390.69 361.8 397.29 361.8 383.79 285.6 377.19 285.6 390.69 361.8"/><polygon class="cls-6" points="245.53 361.8 252.14 361.8 238.64 285.6 232.03 285.6 245.53 361.8"/><polygon class="cls-12" points="390.69 361.8 397.29 361.8 383.79 285.6 377.19 285.6 390.69 361.8"/><polygon class="cls-12" points="245.53 361.8 252.14 361.8 238.64 285.6 232.03 285.6 245.53 361.8"/><rect class="cls-6" x="188.09" y="387.4" width="199.15" height="6.69" transform="translate(575.33 717.78) rotate(180)"/><rect class="cls-16" x="188.09" y="387.4" width="199.15" height="6.69" transform="translate(575.33 717.78) rotate(180)"/><polygon class="cls-6" points="329.79 361.8 323.19 361.8 336.69 285.6 343.29 285.6 329.79 361.8"/><polygon class="cls-6" points="184.64 361.8 178.03 361.8 191.53 285.6 198.14 285.6 184.64 361.8"/><polygon class="cls-12" points="329.79 361.8 323.19 361.8 336.69 285.6 343.29 285.6 329.79 361.8"/><polygon class="cls-12" points="184.64 361.8 178.03 361.8 191.53 285.6 198.14 285.6 184.64 361.8"/><polygon class="cls-6" points="244.52 282.64 251.09 282.64 262.09 221.49 255.52 221.49 244.52 282.64"/><polygon class="cls-12" points="244.52 282.64 251.09 282.64 262.09 221.49 255.52 221.49 244.52 282.64"/><polygon class="cls-6" points="375.01 282.64 381.58 282.64 392.58 221.49 386.01 221.49 375.01 282.64"/><polygon class="cls-6" points="309.76 282.64 316.33 282.64 327.33 221.49 320.76 221.49 309.76 282.64"/><polygon class="cls-12" points="375.01 282.64 381.58 282.64 392.58 221.49 386.01 221.49 375.01 282.64"/><polygon class="cls-12" points="309.76 282.64 316.33 282.64 327.33 221.49 320.76 221.49 309.76 282.64"/><polygon class="cls-6" points="233.17 225.67 405.74 225.67 407.8 214.22 235.23 214.22 233.17 225.67"/><polygon class="cls-6" points="229.45 246.37 402.02 246.37 404.08 234.93 231.51 234.93 229.45 246.37"/><polygon class="cls-6" points="225.72 267.07 398.29 267.07 400.35 255.63 227.78 255.63 225.72 267.07"/><rect class="cls-6" x="176.66" y="344.53" width="219.93" height="7.92" transform="translate(573.24 633.29) rotate(180)"/><polygon class="cls-16" points="233.17 225.67 405.74 225.67 407.8 214.22 235.23 214.22 233.17 225.67"/><polygon class="cls-16" points="229.45 246.37 402.02 246.37 404.08 234.93 231.51 234.93 229.45 246.37"/><polygon class="cls-16" points="225.72 267.07 398.29 267.07 400.35 255.63 227.78 255.63 225.72 267.07"/><rect class="cls-16" x="176.66" y="344.53" width="219.93" height="7.92" transform="translate(573.24 633.29) rotate(180)"/><rect class="cls-14" x="176.66" y="344.53" width="165.93" height="7.92" transform="translate(519.24 633.29) rotate(180)"/><path class="cls-33" d="M325.59,263c-4.65,4.92-15.8,16.94-22.7,16.73-7.28-.78-15.42-12-19.3-17.67a2.5,2.5,0,0,1,3.71-3.27c4.74,3.94,11.46,10.11,15.93,11.91-.68,0-.81.15-.19-.24,5.62-4,10.37-9.42,15.25-14.29,4.65-4.53,11.51,1.88,7.3,6.83Z" transform="translate(0 -63.7)"/><path class="cls-11" d="M323.05,254v14.33s-3,2.52-6.75,5.3c-1.86,1.39-3.89,2.84-5.79,4.07-2.89,1.88-5.49,3.26-6.81,3.18-3.94-.24-12.49-6.35-12.49-6.35l5.62-9.36s6.46,3.95,6.87,4.22S317.66,254.08,323.05,254Z" transform="translate(0 -63.7)"/><path class="cls-30" d="M316.3,273.62c-1.86,1.39-3.89,2.84-5.79,4.07.45-8.22,4.32-11.38,4.32-11.38A14.27,14.27,0,0,1,316.3,273.62Z" transform="translate(0 -63.7)"/><path class="cls-6" d="M328.51,216.31c-6.9,5.63-6.08,21.83,1.67,32.46,0,0,16.56,1.39,25.76-2.73s-1-30.35-10.69-32.41A23.19,23.19,0,0,0,328.51,216.31Z" transform="translate(0 -63.7)"/><path class="cls-6" d="M328.92,233.15c-2.53-4.37-5-16.13,5.47-19.77,13.13-4.54,19,3.83,20.15,12.13s-3.54,14.58-12.22,14S330.66,236.17,328.92,233.15Z" transform="translate(0 -63.7)"/><path class="cls-6" d="M314.82,266.32c-1.28,6.06,1,20.36,1.34,31.14L347.08,301c0-3.38.63-8.28,2.65-16.07,1.15-4.56,2.81-10.11,5.08-16.93.33-1,.68-2,1-3.12a7.69,7.69,0,0,0-6-10.33c-1.3-.21-2.68-.39-4.09-.53a104,104,0,0,0-15-.79c-1.63.05-3.33.18-4.95.31C320,254.05,316,260.63,314.82,266.32Z" transform="translate(0 -63.7)"/><path class="cls-34" d="M345.57,237.15c-1.55,4.74-3.62,13.47-.66,16.85,0,0-4.52-.93-14.51,4.54-2.59-4.17-.44-5.34-.44-5.34,5.53-1,5.89-5,5.44-8.73Z" transform="translate(0 -63.7)"/><path class="cls-30" d="M341.43,240.14l-6,4.32a15.05,15.05,0,0,1,.12,2.67c2.09-.18,5.19-2.28,5.68-4.4A7.14,7.14,0,0,0,341.43,240.14Z" transform="translate(0 -63.7)"/><path class="cls-35" d="M347.64,226.08c.11,7.91.32,11.26-3.36,15.6-5.52,6.53-15.27,4.93-17.74-2.79-2.22-6.95-2-18.72,5.46-22.43A10.79,10.79,0,0,1,347.64,226.08Z" transform="translate(0 -63.7)"/><path class="cls-6" d="M340.93,218.68c-2.19,2.75,2.8,11.41,6.74,12.89C355.32,229,347.48,210.48,340.93,218.68Z" transform="translate(0 -63.7)"/><path class="cls-6" d="M331.56,215c-2.91,1.28-5.64,6.74-6,8.79,4.33.32,15.48-4.68,15.48-4.68s7.85,1.45,3.63-2.1S331.56,215,331.56,215Z" transform="translate(0 -63.7)"/><path class="cls-6" d="M334.48,229.3c0,.64-.25,1.19-.67,1.22s-.8-.46-.85-1.11.26-1.18.68-1.21S334.43,228.66,334.48,229.3Z" transform="translate(0 -63.7)"/><path class="cls-6" d="M327.23,229.84c0,.65-.25,1.19-.67,1.22s-.8-.46-.85-1.1.26-1.19.68-1.22S327.18,229.2,327.23,229.84Z" transform="translate(0 -63.7)"/><path class="cls-6" d="M326.57,228.76l-1.57-.33S325.88,229.58,326.57,228.76Z" transform="translate(0 -63.7)"/><path class="cls-36" d="M330.31,230.65a17.48,17.48,0,0,1-2,4.26,2.76,2.76,0,0,0,2.32.26Z" transform="translate(0 -63.7)"/><path class="cls-6" d="M334.33,237.42a8.13,8.13,0,0,1-.94.14.19.19,0,0,1-.2-.18.2.2,0,0,1,.17-.2,5.07,5.07,0,0,0,4-2.29.18.18,0,0,1,.25-.08.2.2,0,0,1,.08.26A5.31,5.31,0,0,1,334.33,237.42Z" transform="translate(0 -63.7)"/><path class="cls-35" d="M350.31,233.14a5.76,5.76,0,0,1-2.76,3.45c-1.78,1-3.12-.53-3-2.44.11-1.73,1.17-4.31,3.15-4.48A2.59,2.59,0,0,1,350.31,233.14Z" transform="translate(0 -63.7)"/><path class="cls-6" d="M338,227.42a.38.38,0,0,1-.41-.17c-.9-1.5-3.14-1.68-3.16-1.68a.38.38,0,0,1,.05-.75c.11,0,2.66.21,3.76,2a.37.37,0,0,1-.13.51A.22.22,0,0,1,338,227.42Z" transform="translate(0 -63.7)"/><path class="cls-6" d="M325.56,226.47a.37.37,0,0,1-.36-.1.38.38,0,0,1,0-.54,3.75,3.75,0,0,1,3.28-1.05.38.38,0,0,1,.28.45.37.37,0,0,1-.45.28h0a3,3,0,0,0-2.59.87A.32.32,0,0,1,325.56,226.47Z" transform="translate(0 -63.7)"/><path class="cls-6" d="M333.82,228.22l-1.57-.33S333.13,229,333.82,228.22Z" transform="translate(0 -63.7)"/><path class="cls-34" d="M305.72,257.43l.75,2.34a2.86,2.86,0,0,0,1.85,1.86l4.12,1.32a5.36,5.36,0,0,0,4.83-.82l.85-.64c-1-4-4.95-7.54-4.95-7.54l-1-1.14a2.37,2.37,0,0,0-3.37-.27l-2.29,2A2.73,2.73,0,0,0,305.72,257.43Z" transform="translate(0 -63.7)"/><path class="cls-34" d="M278,259.58l.75,2.34a2.88,2.88,0,0,0,1.86,1.85l4.11,1.32a5.32,5.32,0,0,0,4.83-.81l.86-.64c-1-4-5-7.54-5-7.54l-1-1.15a2.39,2.39,0,0,0-3.38-.27l-2.29,2A2.76,2.76,0,0,0,278,259.58Z" transform="translate(0 -63.7)"/><path class="cls-30" d="M337.8,272.14c2,5.86,7.07,10.23,11.93,12.81,1.15-4.56,2.81-10.11,5.08-16.93-3.05-4.27-7.32-7.3-12.76-6.48C342.05,261.54,335.79,266.2,337.8,272.14Z" transform="translate(0 -63.7)"/><path class="cls-34" d="M228.07,388.4l5.22,2.1s44.35-66.9,48.46-64.39c14.87,9.11,45.44,25.39,59.91,15.53s5.88-35.85,5.88-35.85-28.14-9.87-31.62-3.77a47.31,47.31,0,0,0-2.39,5.63c-.72,1.93-1.28,3.57-1.28,3.57l0,0c-.85-.4-28.43-13.67-41.42-8.2C257.62,308.56,228.07,388.4,228.07,388.4Z" transform="translate(0 -63.7)"/><path class="cls-34" d="M324.25,345.22s-13.95.91-33.06-5.59c0,0-4.71,53.29-7.88,82.2l-6.4-.9S266,342,268.17,332.37,282,322.12,282,322.12,304.27,338.48,324.25,345.22Z" transform="translate(0 -63.7)"/><path class="cls-11" d="M324.25,345.22a104.74,104.74,0,0,1-27.91-3.45l1.82-7.58C305.19,338.82,315,341.64,324.25,345.22Z" transform="translate(0 -63.7)"/><path class="cls-15" d="M324.25,345.22a104.74,104.74,0,0,1-27.91-3.45l1.82-7.58C305.19,338.82,315,341.64,324.25,345.22Z" transform="translate(0 -63.7)"/><polygon class="cls-11" points="296.98 269.7 295.31 278.14 297.85 279 299.81 271.56 296.98 269.7"/><polygon class="cls-37" points="296.98 269.7 295.31 278.14 297.85 279 299.81 271.56 296.98 269.7"/><path class="cls-38" d="M270.49,365.93c-1-21-1.44-31.84,2-36.18a15.22,15.22,0,0,1,8.85-5.12c4.48,11.35,24,18.44,24.54,18.63h0c7.29,1.51,18.09,1.9,18.36,2a71.87,71.87,0,0,1-26.09-11A164.6,164.6,0,0,1,282,322.12s-11.65.63-13.8,10.25c-.88,3.94.42,19.46,2.26,36.45A26.35,26.35,0,0,0,270.49,365.93Z" transform="translate(0 -63.7)"/><path class="cls-6" d="M222.86,384a.83.83,0,0,1,.2-.94.92.92,0,0,1,.67-.34,3.59,3.59,0,0,1,1.89.63c-.49-.65-.87-1.33-.7-1.77.11-.28.39-.42.84-.43a1.39,1.39,0,0,1,1.05.45c.87.95.68,3.12.68,3.22a.49.49,0,0,1,0,.11l0,0a.18.18,0,0,1-.07,0h0l-.08,0a15.4,15.4,0,0,1-2.79-.22C223.72,384.67,223.06,384.42,222.86,384Zm.91-.82a.47.47,0,0,0-.35.17c-.23.28-.17.41-.15.45.24.48,1.91.72,3.32.76C225.78,384,224.51,383.11,223.77,383.18Zm2-1.56c-.13,0-.36,0-.41.13-.14.37.72,1.52,1.69,2.52a3.76,3.76,0,0,0-.58-2.35.82.82,0,0,0-.48-.28A.78.78,0,0,0,225.76,381.62Z" transform="translate(0 -63.7)"/><path class="cls-6" d="M270.65,416.36a.84.84,0,0,1-.22-.93.93.93,0,0,1,.46-.61,3.67,3.67,0,0,1,2-.24c-.72-.37-1.35-.83-1.38-1.29q0-.45.57-.75a1.37,1.37,0,0,1,1.14,0c1.2.48,2,2.52,2,2.62a.18.18,0,0,1,0,.1h0v0h0a.14.14,0,0,1-.05.08l-.05,0h0a11.15,11.15,0,0,1-3.67,1.16A1.15,1.15,0,0,1,270.65,416.36Zm.48-1.14a.5.5,0,0,0-.25.31c-.09.35,0,.44.06.47.42.34,2-.17,3.32-.73C273.27,415.06,271.76,414.85,271.13,415.22Zm1.12-2.26c-.12.06-.32.18-.31.3,0,.39,1.29,1.06,2.61,1.54a3.86,3.86,0,0,0-1.54-1.87.83.83,0,0,0-.34-.07A.92.92,0,0,0,272.25,413Z" transform="translate(0 -63.7)"/><path class="cls-6" d="M236.58,388.25c.29-.66-8-3.84-8-3.84s-7.23,2.74-12.54,1.66-4,3,1.4,5.49l13.22,6.09C234.51,399.41,233.63,395.08,236.58,388.25Z" transform="translate(0 -63.7)"/><path class="cls-6" d="M284.87,414.3c0-.71-8.83-.05-8.83-.05s-5.36,5.58-10.61,6.89-2.27,4.42,3.62,4.35l14.56-.17C287.79,425.27,285.13,421.74,284.87,414.3Z" transform="translate(0 -63.7)"/><path class="cls-11" d="M347.54,305.79s-28.14-9.87-31.62-3.77a49,49,0,0,0-2.39,5.63c-.72,1.93-1.28,3.57-1.28,3.57l0,0-2.31-1.05-9.42,28.13c15,8.31,36.17,9.28,44.85,3.36C359.81,331.79,347.54,305.79,347.54,305.79Z" transform="translate(0 -63.7)"/><g class="cls-39"><path class="cls-10" d="M347.54,305.79s-28.14-9.87-31.62-3.77a49,49,0,0,0-2.39,5.63c-.72,1.93-1.28,3.57-1.28,3.57l0,0-2.31-1.05-9.42,28.13c15,8.31,36.17,9.28,44.85,3.36C359.81,331.79,347.54,305.79,347.54,305.79Z" transform="translate(0 -63.7)"/></g><path class="cls-40" d="M312.25,311.22l16.23,6.89s-8.33-7-15-10.46C312.81,309.58,312.25,311.22,312.25,311.22Z" transform="translate(0 -63.7)"/><polygon class="cls-11" points="315.52 239.1 316.09 232.16 347.54 236.34 347.95 243.04 315.52 239.1"/><polygon class="cls-15" points="315.52 239.1 316.09 232.16 347.54 236.34 347.95 243.04 315.52 239.1"/><polygon class="cls-6" points="316.15 232.84 317.8 233.08 317.29 238.49 315.93 238.33 316.15 232.84"/><polygon class="cls-6" points="319.36 233.3 337.09 235.88 336.63 240.8 318.86 238.68 319.36 233.3"/><polygon class="cls-6" points="347.54 242.1 338.19 240.99 338.65 236.11 338.65 236.11 347.09 237.33 347.54 242.1"/><polygon class="cls-38" points="316.15 232.84 317.8 233.08 317.29 238.49 315.93 238.33 316.15 232.84"/><polygon class="cls-38" points="319.36 233.3 337.09 235.88 336.63 240.8 318.86 238.68 319.36 233.3"/><polygon class="cls-38" points="347.54 242.1 338.19 240.99 338.65 236.11 338.65 236.11 347.09 237.33 347.54 242.1"/><rect class="cls-41" x="322.96" y="298.1" width="6.97" height="5.28" rx="0.94" transform="translate(610.6 578.03) rotate(-172.46)"/><line class="cls-41" x1="327.2" y1="237.05" x2="328.98" y2="237.33"/><polygon class="cls-11" points="308.58 244.5 311.2 245.89 302.31 276.11 298.58 275.37 308.58 244.5"/><polygon class="cls-37" points="308.58 244.5 311.2 245.89 302.31 276.11 298.58 275.37 308.58 244.5"/><path class="cls-6" d="M306.48,277.69h-22a1.71,1.71,0,0,1-1.67-1.54l-3.07-29.24a1.39,1.39,0,0,1,1.4-1.55h22a1.73,1.73,0,0,1,1.68,1.55l3.06,29.24A1.38,1.38,0,0,1,306.48,277.69Z" transform="translate(0 -63.7)"/><path class="cls-42" d="M306.48,277.69h-22a1.71,1.71,0,0,1-1.67-1.54l-3.07-29.24a1.39,1.39,0,0,1,1.4-1.55h22a1.73,1.73,0,0,1,1.68,1.55l3.06,29.24A1.38,1.38,0,0,1,306.48,277.69Z" transform="translate(0 -63.7)"/><path class="cls-14" d="M305.56,277.69H284.45a1.71,1.71,0,0,1-1.67-1.54l-3.07-29.24a1.39,1.39,0,0,1,1.4-1.55h21.11a1.71,1.71,0,0,1,1.67,1.55L307,276.15A1.38,1.38,0,0,1,305.56,277.69Z" transform="translate(0 -63.7)"/><path class="cls-6" d="M292.71,259.14a2.15,2.15,0,0,0-2.17,2.39,2.65,2.65,0,0,0,2.59,2.39,2.16,2.16,0,0,0,2.17-2.39A2.66,2.66,0,0,1,292.71,259.14Z" transform="translate(0 -63.7)"/><path class="cls-43" d="M297.48,247.68H285.84a1.53,1.53,0,0,1-1.36-.87l-.7-1.45h15.36l-.45,1.45A1.23,1.23,0,0,1,297.48,247.68Z" transform="translate(0 -63.7)"/><path class="cls-11" d="M353.66,314.61h-4.09s-5.11-15.34-8.09-28.34a94.31,94.31,0,0,1-1.91-10.43,29.9,29.9,0,0,1,1-11.58A29,29,0,0,1,345.74,254l-.83,0c7.74-.08,11.92,2.6,12.44,7.42s-8,33.42-8.44,37.24S353.66,314.61,353.66,314.61Z" transform="translate(0 -63.7)"/><path class="cls-11" d="M327.24,253.45s-8.19,12.9-10.38,18.39-.93,21.17-.93,21.17-4.19-18.88-1.5-28.25S321.79,253.48,327.24,253.45Z" transform="translate(0 -63.7)"/><path class="cls-33" d="M355.28,265.08c-4.31,6.19-14.6,20.7-23.46,17.3-4.67-2.14-8-6-11.09-9.76a79.72,79.72,0,0,1-7.21-10.78,2.49,2.49,0,0,1,4-2.95c2.84,2.95,5.8,5.91,8.75,8.65,2.57,2.33,5.87,5.34,8.85,6.43a2.15,2.15,0,0,0-.66-.17c-.17,0-.13,0,0-.11,5-3.41,8.84-9.3,12.55-14.18,3.86-5.33,11.77,0,8.29,5.57Z" transform="translate(0 -63.7)"/><path class="cls-30" d="M354.2,268.78s-7.2,12.28-12.72,17.49a94.31,94.31,0,0,1-1.91-10.43,29.9,29.9,0,0,1,1-11.58l5.7-4.7C349.1,257.19,354.2,268.78,354.2,268.78Z" transform="translate(0 -63.7)"/><path class="cls-11" d="M354.71,257.42c3.77,2,2.63,7.48-2.31,13.94S338.52,286.55,333.82,285s-10-7.84-10-7.84l3.43-9.68s6.73,5.11,8.13,4.85,8.26-9.13,10.24-11.88S350.62,255.21,354.71,257.42Z" transform="translate(0 -63.7)"/><path class="cls-35" d="M284.43,258l-.14,1.92a2.2,2.2,0,0,1-1.87,2l-2.61.39.62-7,2.18.38A2.2,2.2,0,0,1,284.43,258Z" transform="translate(0 -63.7)"/></g></svg>