<?xml version="1.0" encoding="utf-8"?>
<!-- Generator: Adobe Illustrator 26.0.1, SVG Export Plug-In . SVG Version: 6.00 Build 0)  -->
<svg version="1.1" id="Layer_1" xmlns="http://www.w3.org/2000/svg" xmlns:xlink="http://www.w3.org/1999/xlink" x="0px" y="0px"
	 viewBox="0 0 300 100" style="enable-background:new 0 0 300 100;" xml:space="preserve">
<style type="text/css">
	.st0{fill:url(#SVGID_1_);}
	.st1{fill:url(#SVGID_00000043416668168264234290000000021342428453145271_);}
	.st2{fill:url(#SVGID_00000026163568009746111790000002712696571227554452_);}
	.st3{fill:url(#SVGID_00000042734810081735763740000000852730959150610829_);}
	.st4{fill:url(#SVGID_00000034778774997317763360000007788571708820895393_);}
	.st5{fill:url(#SVGID_00000148662905020530337740000015266640544054801855_);}
	.st6{fill:url(#SVGID_00000181779355455394982120000003215013361884974486_);}
	.st7{fill:url(#SVGID_00000181785494933203505930000008142011562485027760_);}
	.st8{fill:url(#SVGID_00000131368115877603879780000013538272694148360856_);}
	.st9{fill:url(#SVGID_00000147903947957278606820000015504056433433247670_);}
	.st10{fill:url(#SVGID_00000036944381684784126830000005554110937792558481_);}
	.st11{fill:url(#SVGID_00000088114236798933832590000005294355548306433445_);}
	.st12{fill:url(#SVGID_00000172411145900928696360000004462889809472043417_);}
	.st13{fill:url(#SVGID_00000095305831832208818820000009915056919660655004_);}
</style>
<g>
	<g>
		
			<linearGradient id="SVGID_1_" gradientUnits="userSpaceOnUse" x1="281.2395" y1="-7.2263" x2="243.5611" y2="11.2619" gradientTransform="matrix(1 0 0 -1 0 100)">
			<stop  offset="0" style="stop-color:#58A0FF"/>
			<stop  offset="0.4544" style="stop-color:#5888FF"/>
			<stop  offset="1" style="stop-color:#5966FF"/>
		</linearGradient>
		<path class="st0" d="M146.8,19.3h13.85c4.58,0,7.86,0.42,9.86,1.28c1.99,0.86,3.58,2.23,4.78,4.1c1.2,1.88,1.79,4.1,1.79,6.67
			c0,3.34-0.95,6.26-2.83,8.74c-1.88,2.48-4.27,4.17-7.15,5.07c-2.09,0.67-5.79,1-11.07,1h-7.69l-3.29,24.05h-5.14L146.8,19.3z
			 M151.33,24.22l-2.39,16.93h7.07c4.76,0,8.06-0.33,9.88-0.98c1.83-0.66,3.3-1.79,4.42-3.39c1.12-1.6,1.68-3.39,1.68-5.34
			c0-1.61-0.38-2.99-1.14-4.12c-0.75-1.13-1.8-1.93-3.13-2.39c-1.34-0.46-3.78-0.7-7.33-0.7h-9.06V24.22z"/>
		
			<linearGradient id="SVGID_00000048495524761394771910000002520564073327744435_" gradientUnits="userSpaceOnUse" x1="289.1098" y1="8.8133" x2="251.4314" y2="27.3016" gradientTransform="matrix(1 0 0 -1 0 100)">
			<stop  offset="0" style="stop-color:#58A0FF"/>
			<stop  offset="0.4544" style="stop-color:#5888FF"/>
			<stop  offset="1" style="stop-color:#5966FF"/>
		</linearGradient>
		<path style="fill:url(#SVGID_00000048495524761394771910000002520564073327744435_);" d="M218.26,70.21h-4.89l0.74-5.66
			c-4.35,4.42-9.33,6.63-14.93,6.63c-5.1,0-9.29-1.64-12.58-4.95c-3.29-3.3-4.93-7.54-4.93-12.74c0-6,2.15-11.15,6.43-15.45
			c4.28-4.3,9.33-6.45,15.12-6.45c3.14,0,5.89,0.66,8.26,1.97c2.36,1.31,4.36,3.37,5.97,6.15l0.87-7.15h5.02L218.26,70.21z
			 M199.73,66.75c3.1,0,5.94-0.73,8.48-2.2c2.55-1.46,4.58-3.57,6.07-6.32c1.5-2.75,2.24-5.74,2.24-8.97c0-3.89-1.23-7.07-3.69-9.51
			c-2.45-2.44-5.65-3.66-9.59-3.66c-4.62,0-8.57,1.68-11.86,5.02c-3.29,3.34-4.93,7.45-4.93,12.32c0,3.99,1.23,7.21,3.69,9.66
			C192.6,65.53,195.8,66.75,199.73,66.75z"/>
		
			<linearGradient id="SVGID_00000137822201465802857810000010803481931664092313_" gradientUnits="userSpaceOnUse" x1="294.2088" y1="19.2048" x2="256.5303" y2="37.693" gradientTransform="matrix(1 0 0 -1 0 100)">
			<stop  offset="0" style="stop-color:#58A0FF"/>
			<stop  offset="0.4544" style="stop-color:#5888FF"/>
			<stop  offset="1" style="stop-color:#5966FF"/>
		</linearGradient>
		<path style="fill:url(#SVGID_00000137822201465802857810000010803481931664092313_);" d="M229.64,32.55h4.99l9.74,27.81
			l16.19-27.81h5.4l-29.89,51.42h-5.43l10.66-18.32L229.64,32.55z"/>
	</g>
	
		<linearGradient id="SVGID_00000105398926985541002350000017400663251573938354_" gradientUnits="userSpaceOnUse" x1="307.9565" y1="46.2225" x2="269.9026" y2="64.8949" gradientTransform="matrix(1 0 0 -1 0 100)">
		<stop  offset="0" style="stop-color:#58A0FF"/>
		<stop  offset="0.4544" style="stop-color:#5888FF"/>
		<stop  offset="1" style="stop-color:#5966FF"/>
	</linearGradient>
	<path style="fill:url(#SVGID_00000105398926985541002350000017400663251573938354_);" d="M273.82,35.63h-11.86
		c-0.73,0-1.32-0.59-1.32-1.32v-0.39c0-0.73,0.59-1.32,1.32-1.32h11.86c0.73,0,1.32,0.59,1.32,1.32v0.39
		C275.14,35.04,274.55,35.63,273.82,35.63z"/>
	
		<linearGradient id="SVGID_00000084527323468209606760000011446213098089441456_" gradientUnits="userSpaceOnUse" x1="310.4839" y1="50.6977" x2="271.9803" y2="69.5907" gradientTransform="matrix(1 0 0 -1 0 100)">
		<stop  offset="0" style="stop-color:#58A0FF"/>
		<stop  offset="0.4544" style="stop-color:#5888FF"/>
		<stop  offset="1" style="stop-color:#5966FF"/>
	</linearGradient>
	<path style="fill:url(#SVGID_00000084527323468209606760000011446213098089441456_);" d="M281.45,35.66h-3.77
		c-0.73,0-1.32-0.59-1.32-1.32v-0.4c0-0.73,0.59-1.32,1.32-1.32h3.77c0.73,0,1.32,0.59,1.32,1.32v0.39
		C282.78,35.06,282.18,35.66,281.45,35.66z"/>
</g>
<g>
	
		<linearGradient id="SVGID_00000099646770107447841720000000106538340983407795_" gradientUnits="userSpaceOnUse" x1="172.5663" y1="23.0655" x2="11.1343" y2="60.5985" gradientTransform="matrix(1 0 0 -1 0 100)">
		<stop  offset="0" style="stop-color:#5DF5FF"/>
		<stop  offset="0.5467" style="stop-color:#55D0FF"/>
		<stop  offset="1" style="stop-color:#4EAEFF"/>
	</linearGradient>
	<path style="fill:url(#SVGID_00000099646770107447841720000000106538340983407795_);" d="M47.27,9.12l-1.11,6.69L44.31,27
		L41.9,41.56l-1.69,10.19l-3.02,18.32l-1.5,9.04H15.54l6.22-37.64c1-6.08,1.46-9.76,1.38-11.04c-0.09-1.28-0.73-2.34-1.94-3.18
		s-4.07-1.64-8.61-2.4l-1.94-0.32l1.52-9.17c8.04-0.39,14.78-2.47,20.23-6.24C32.4,9.12,47.27,9.12,47.27,9.12z"/>
	
		<linearGradient id="SVGID_00000031170982452988841780000006739802425829829525_" gradientUnits="userSpaceOnUse" x1="127.9552" y1="25.0169" x2="23.1708" y2="49.3792" gradientTransform="matrix(1 0 0 -1 0 100)">
		<stop  offset="0" style="stop-color:#5DF5FF"/>
		<stop  offset="0.5467" style="stop-color:#55D0FF"/>
		<stop  offset="1" style="stop-color:#4EAEFF"/>
	</linearGradient>
	<path style="fill:url(#SVGID_00000031170982452988841780000006739802425829829525_);" d="M67.46,64.33v4.21
		c0,3.07-0.35,5.34-1.05,6.83c-0.7,1.48-1.81,2.49-3.36,3.04c-1.53,0.54-4.68,0.81-9.43,0.81H40.34l1.29-7.77h10.15
		c1.67-0.06,2.73-0.32,3.18-0.79c0.46-0.47,0.68-1.62,0.68-3.45v-4.23c0-1.94-0.21-3.13-0.62-3.54c-0.41-0.41-1.5-0.65-3.25-0.7
		h-8.05l1.16-7.08h6.88c0.5-0.02,0.89-0.02,1.18-0.02c1.16,0,1.89-0.29,2.21-0.86c0.32-0.57,0.48-2.2,0.48-4.9
		c0-1.43-0.13-2.42-0.39-2.99c-0.26-0.57-0.6-0.94-1.03-1.08c-0.42-0.15-1.24-0.23-2.45-0.25h-5.22l1.29-7.77h3.89
		c3.72,0,6.54,0.3,8.46,0.87c1.92,0.58,3.47,1.76,4.65,3.52c1.18,1.77,1.77,4.61,1.77,8.54c0,2.65-0.41,4.51-1.24,5.55
		c-0.83,1.05-2.48,1.85-4.93,2.41c2.73,0.62,4.59,1.64,5.56,3.07C66.98,59.17,67.46,61.36,67.46,64.33z"/>
	
		<linearGradient id="SVGID_00000073701791750545616060000009382813153927091072_" gradientUnits="userSpaceOnUse" x1="131.8665" y1="31.6996" x2="27.0822" y2="56.0619" gradientTransform="matrix(1 0 0 -1 0 100)">
		<stop  offset="0" style="stop-color:#5DF5FF"/>
		<stop  offset="0.5467" style="stop-color:#55D0FF"/>
		<stop  offset="1" style="stop-color:#4EAEFF"/>
	</linearGradient>
	<path style="fill:url(#SVGID_00000073701791750545616060000009382813153927091072_);" d="M89.37,33.94l-7.49,44.81H71.57
		l7.49-44.81C79.05,33.94,89.37,33.94,89.37,33.94z"/>
	<g>
		
			<linearGradient id="SVGID_00000078726135133230971820000013936891578311934869_" gradientUnits="userSpaceOnUse" x1="134.2795" y1="38.698" x2="29.4952" y2="63.0603" gradientTransform="matrix(1 0 0 -1 0 100)">
			<stop  offset="0" style="stop-color:#5DF5FF"/>
			<stop  offset="0.5467" style="stop-color:#55D0FF"/>
			<stop  offset="1" style="stop-color:#4EAEFF"/>
		</linearGradient>
		<path style="fill:url(#SVGID_00000078726135133230971820000013936891578311934869_);" d="M126.1,42.45h-11.29l-6.07,36.31H98.42
			l6.07-36.31H93.21l1.42-8.5h32.92L126.1,42.45z"/>
		
			<linearGradient id="SVGID_00000139278421192016405360000004436585504137434280_" gradientUnits="userSpaceOnUse" x1="122.7865" y1="19.3893" x2="17.4451" y2="43.8811" gradientTransform="matrix(1 0 0 -1 0 100)">
			<stop  offset="0" style="stop-color:#5DF5FF"/>
			<stop  offset="0.5467" style="stop-color:#55D0FF"/>
			<stop  offset="1" style="stop-color:#4EAEFF"/>
		</linearGradient>
		<path style="fill:url(#SVGID_00000139278421192016405360000004436585504137434280_);" d="M114.3,78.8h-13.26
			c-0.82,0-1.5-0.67-1.5-1.5v-0.42c0-0.82,0.67-1.5,1.5-1.5h13.26c0.82,0,1.5,0.67,1.5,1.5v0.42C115.8,78.14,115.12,78.8,114.3,78.8
			z"/>
		
			<linearGradient id="SVGID_00000122721860588307195030000001461939982600034469_" gradientUnits="userSpaceOnUse" x1="123.6856" y1="22.2852" x2="17.6499" y2="46.9384" gradientTransform="matrix(1 0 0 -1 0 100)">
			<stop  offset="0" style="stop-color:#5DF5FF"/>
			<stop  offset="0.5467" style="stop-color:#55D0FF"/>
			<stop  offset="1" style="stop-color:#4EAEFF"/>
		</linearGradient>
		<path style="fill:url(#SVGID_00000122721860588307195030000001461939982600034469_);" d="M123.12,78.8h-4.2
			c-0.82,0-1.5-0.67-1.5-1.5v-0.42c0-0.82,0.67-1.5,1.5-1.5h4.2c0.82,0,1.5,0.67,1.5,1.5v0.42C124.62,78.14,123.96,78.8,123.12,78.8
			z"/>
	</g>
</g>
<g>
	
		<linearGradient id="SVGID_00000114770367408169920430000008796862117478160034_" gradientUnits="userSpaceOnUse" x1="-257.2002" y1="272.7311" x2="-241.0384" y2="257.1592" gradientTransform="matrix(-1 0 0 1 38.4221 -174.8508)">
		<stop  offset="0" style="stop-color:#5DF5FF"/>
		<stop  offset="0.5467" style="stop-color:#55D0FF"/>
		<stop  offset="1" style="stop-color:#4EAEFF"/>
	</linearGradient>
	<polygon style="fill:url(#SVGID_00000114770367408169920430000008796862117478160034_);" points="280.52,83.16 289.11,83.16 
		289.11,91.77 280.52,91.77 	"/>
	
		<linearGradient id="SVGID_00000089540579393051459810000014835915662739690414_" gradientUnits="userSpaceOnUse" x1="-257.1978" y1="256.2237" x2="-241.0359" y2="240.6518" gradientTransform="matrix(-1 0 0 1 38.4221 -174.8508)">
		<stop  offset="0" style="stop-color:#5DF5FF"/>
		<stop  offset="0.5467" style="stop-color:#55D0FF"/>
		<stop  offset="1" style="stop-color:#4EAEFF"/>
	</linearGradient>
	<polygon style="fill:url(#SVGID_00000089540579393051459810000014835915662739690414_);" points="280.52,66.66 289.11,66.66 
		289.11,75.26 280.52,75.26 	"/>
	
		<linearGradient id="SVGID_00000042001811674449399570000018130708377660475050_" gradientUnits="userSpaceOnUse" x1="-240.2964" y1="272.7319" x2="-224.1346" y2="257.1599" gradientTransform="matrix(-1 0 0 1 38.4221 -174.8508)">
		<stop  offset="0" style="stop-color:#5DF5FF"/>
		<stop  offset="0.5467" style="stop-color:#55D0FF"/>
		<stop  offset="1" style="stop-color:#4EAEFF"/>
	</linearGradient>
	<polygon style="fill:url(#SVGID_00000042001811674449399570000018130708377660475050_);" points="263.61,83.16 272.21,83.16 
		272.21,91.77 263.61,91.77 	"/>
</g>
</svg>
