<?xml version="1.0" encoding="utf-8"?>
<!-- Generator: Adobe Illustrator 26.0.1, SVG Export Plug-In . SVG Version: 6.00 Build 0)  -->
<svg version="1.1" id="Layer_1" xmlns="http://www.w3.org/2000/svg" xmlns:xlink="http://www.w3.org/1999/xlink" x="0px" y="0px"
	 viewBox="0 0 300 100" style="enable-background:new 0 0 300 100;" xml:space="preserve">
<style type="text/css">
	.st0{fill:url(#SVGID_1_);}
	.st1{fill:url(#SVGID_00000107582497565902034400000000358114160439937725_);}
	.st2{fill:url(#SVGID_00000099654817333183295690000005770362602620067211_);}
	.st3{fill:url(#SVGID_00000016070399145270572950000012406386687737870505_);}
	.st4{fill:url(#SVGID_00000154388424558629880490000017072194095980794252_);}
	.st5{fill:url(#SVGID_00000095322623254556715550000018325235701774724234_);}
	.st6{fill:url(#SVGID_00000163757258110809775630000008947930801942492569_);}
	.st7{fill:url(#SVGID_00000169547624349413638140000000726579590225007777_);}
	.st8{fill:url(#SVGID_00000127748347416305886700000014183586278772406198_);}
	.st9{fill:url(#SVGID_00000030446231883746985910000012338745600161936780_);}
	.st10{fill:url(#SVGID_00000023256641520122868190000007819496010423426473_);}
	.st11{fill:url(#SVGID_00000020388759652293490530000000450404859326770087_);}
	.st12{fill:url(#SVGID_00000057856224022368390020000013352946317660128141_);}
	.st13{fill:url(#SVGID_00000145773524012998066620000005727028880619997314_);}
</style>
<g>
	<g>
		<linearGradient id="SVGID_1_" gradientUnits="userSpaceOnUse" x1="267.6528" y1="103.4145" x2="234.6429" y2="87.217">
			<stop  offset="0" style="stop-color:#58A0FF"/>
			<stop  offset="0.4544" style="stop-color:#5888FF"/>
			<stop  offset="1" style="stop-color:#5966FF"/>
		</linearGradient>
		<path class="st0" d="M149.87,26.38H162c4.01,0,6.89,0.37,8.64,1.12c1.74,0.75,3.14,1.95,4.19,3.59c1.05,1.65,1.57,3.59,1.57,5.84
			c0,2.93-0.83,5.48-2.48,7.66c-1.65,2.17-3.74,3.65-6.26,4.44c-1.83,0.59-5.07,0.88-9.7,0.88h-6.74l-2.88,21.07h-4.5L149.87,26.38z
			 M153.84,30.69l-2.09,14.83h6.19c4.17,0,7.06-0.29,8.66-0.86c1.6-0.58,2.89-1.57,3.87-2.97c0.98-1.4,1.47-2.97,1.47-4.68
			c0-1.41-0.33-2.62-1-3.61c-0.66-0.99-1.58-1.69-2.74-2.09c-1.17-0.4-3.31-0.61-6.42-0.61H153.84z"/>
		
			<linearGradient id="SVGID_00000140704569256392335120000005403644642007631023_" gradientUnits="userSpaceOnUse" x1="274.5506" y1="89.3568" x2="241.5407" y2="73.1593">
			<stop  offset="0" style="stop-color:#58A0FF"/>
			<stop  offset="0.4544" style="stop-color:#5888FF"/>
			<stop  offset="1" style="stop-color:#5966FF"/>
		</linearGradient>
		<path style="fill:url(#SVGID_00000140704569256392335120000005403644642007631023_);" d="M212.48,70.98h-4.28l0.65-4.96
			c-3.81,3.87-8.17,5.81-13.08,5.81c-4.47,0-8.14-1.44-11.02-4.34c-2.88-2.89-4.32-6.61-4.32-11.16c0-5.26,1.88-9.77,5.63-13.54
			c3.75-3.77,8.17-5.65,13.25-5.65c2.75,0,5.16,0.58,7.24,1.73c2.07,1.15,3.82,2.95,5.23,5.39l0.76-6.26h4.4L212.48,70.98z
			 M196.24,67.95c2.72,0,5.2-0.64,7.43-1.93c2.23-1.28,4.01-3.13,5.32-5.54c1.31-2.41,1.96-5.03,1.96-7.86
			c0-3.41-1.08-6.19-3.23-8.33c-2.15-2.14-4.95-3.21-8.4-3.21c-4.05,0-7.51,1.47-10.39,4.4c-2.88,2.93-4.32,6.53-4.32,10.79
			c0,3.5,1.08,6.32,3.23,8.46C190,66.88,192.8,67.95,196.24,67.95z"/>
		
			<linearGradient id="SVGID_00000079453230033345291500000003756570093311752349_" gradientUnits="userSpaceOnUse" x1="279.013" y1="80.2626" x2="246.0031" y2="64.0652">
			<stop  offset="0" style="stop-color:#58A0FF"/>
			<stop  offset="0.4544" style="stop-color:#5888FF"/>
			<stop  offset="1" style="stop-color:#5966FF"/>
		</linearGradient>
		<path style="fill:url(#SVGID_00000079453230033345291500000003756570093311752349_);" d="M222.45,37.99h4.37l8.53,24.36
			l14.18-24.36h4.73l-26.19,45.05h-4.76l9.34-16.05L222.45,37.99z"/>
	</g>
	
		<linearGradient id="SVGID_00000109729322521674248800000001890866347827510718_" gradientUnits="userSpaceOnUse" x1="291.0612" y1="56.5846" x2="257.7224" y2="40.2258">
		<stop  offset="0" style="stop-color:#58A0FF"/>
		<stop  offset="0.4544" style="stop-color:#5888FF"/>
		<stop  offset="1" style="stop-color:#5966FF"/>
	</linearGradient>
	<path style="fill:url(#SVGID_00000109729322521674248800000001890866347827510718_);" d="M261.15,40.69h-10.39
		c-0.64,0-1.16-0.52-1.16-1.16v-0.34c0-0.64,0.52-1.16,1.16-1.16h10.39c0.64,0,1.16,0.52,1.16,1.16v0.34
		C262.31,40.17,261.79,40.69,261.15,40.69z"/>
	
		<linearGradient id="SVGID_00000146494010616559323930000013919056065276177584_" gradientUnits="userSpaceOnUse" x1="293.2761" y1="52.6626" x2="259.5432" y2="36.1105">
		<stop  offset="0" style="stop-color:#58A0FF"/>
		<stop  offset="0.4544" style="stop-color:#5888FF"/>
		<stop  offset="1" style="stop-color:#5966FF"/>
	</linearGradient>
	<path style="fill:url(#SVGID_00000146494010616559323930000013919056065276177584_);" d="M267.84,40.71h-3.3
		c-0.64,0-1.16-0.52-1.16-1.16V39.2c0-0.64,0.52-1.16,1.16-1.16h3.3c0.64,0,1.16,0.52,1.16,1.16v0.34
		C269,40.19,268.48,40.71,267.84,40.71z"/>
</g>
<g>
	
		<linearGradient id="SVGID_00000101067645566480331930000016409826898085670589_" gradientUnits="userSpaceOnUse" x1="172.4452" y1="76.8765" x2="31.0153" y2="43.994">
		<stop  offset="0" style="stop-color:#5DF5FF"/>
		<stop  offset="0.5467" style="stop-color:#55D0FF"/>
		<stop  offset="1" style="stop-color:#4EAEFF"/>
	</linearGradient>
	<path style="fill:url(#SVGID_00000101067645566480331930000016409826898085670589_);" d="M62.67,17.46l-0.97,5.86l-1.62,9.81
		l-2.11,12.75l-1.48,8.93l-2.65,16.05l-1.31,7.92H34.88l5.45-32.98c0.88-5.33,1.28-8.55,1.21-9.67c-0.08-1.12-0.64-2.05-1.7-2.79
		c-1.06-0.74-3.57-1.44-7.54-2.1l-1.7-0.28l1.33-8.03c7.04-0.34,12.95-2.16,17.72-5.47H62.67z"/>
	
		<linearGradient id="SVGID_00000087378511633506256460000015246104472337798793_" gradientUnits="userSpaceOnUse" x1="133.365" y1="75.1521" x2="41.5639" y2="53.8084">
		<stop  offset="0" style="stop-color:#5DF5FF"/>
		<stop  offset="0.5467" style="stop-color:#55D0FF"/>
		<stop  offset="1" style="stop-color:#4EAEFF"/>
	</linearGradient>
	<path style="fill:url(#SVGID_00000087378511633506256460000015246104472337798793_);" d="M80.36,65.83v3.69
		c0,2.69-0.31,4.68-0.92,5.98c-0.61,1.3-1.59,2.18-2.94,2.66c-1.34,0.47-4.1,0.71-8.26,0.71H56.6l1.13-6.81h8.89
		c1.46-0.05,2.39-0.28,2.79-0.69c0.4-0.41,0.6-1.42,0.6-3.02v-3.71c0-1.7-0.18-2.74-0.54-3.1c-0.36-0.36-1.31-0.57-2.85-0.61h-7.05
		l1.02-6.2h6.03c0.44-0.02,0.78-0.02,1.03-0.02c1.02,0,1.66-0.25,1.94-0.75c0.28-0.5,0.42-1.93,0.42-4.29
		c0-1.25-0.11-2.12-0.34-2.62c-0.23-0.5-0.53-0.82-0.9-0.95c-0.37-0.13-1.09-0.2-2.15-0.22h-4.57l1.13-6.81h3.41
		c3.26,0,5.73,0.26,7.41,0.76c1.68,0.51,3.04,1.54,4.07,3.08c1.03,1.55,1.55,4.04,1.55,7.48c0,2.32-0.36,3.95-1.09,4.86
		c-0.73,0.92-2.17,1.62-4.32,2.11c2.39,0.54,4.02,1.44,4.87,2.69C79.94,61.31,80.36,63.23,80.36,65.83z"/>
	
		<linearGradient id="SVGID_00000088116110001459848910000010925230905382300315_" gradientUnits="userSpaceOnUse" x1="136.7887" y1="69.3105" x2="44.9876" y2="47.9668">
		<stop  offset="0" style="stop-color:#5DF5FF"/>
		<stop  offset="0.5467" style="stop-color:#55D0FF"/>
		<stop  offset="1" style="stop-color:#4EAEFF"/>
	</linearGradient>
	<path style="fill:url(#SVGID_00000088116110001459848910000010925230905382300315_);" d="M99.56,39.21L93,78.47h-9.04l6.56-39.26
		H99.56z"/>
	<g>
		
			<linearGradient id="SVGID_00000000926432716623942400000006759580649552521127_" gradientUnits="userSpaceOnUse" x1="138.9026" y1="63.1797" x2="47.1015" y2="41.836">
			<stop  offset="0" style="stop-color:#5DF5FF"/>
			<stop  offset="0.5467" style="stop-color:#55D0FF"/>
			<stop  offset="1" style="stop-color:#4EAEFF"/>
		</linearGradient>
		<path style="fill:url(#SVGID_00000000926432716623942400000006759580649552521127_);" d="M131.74,46.66h-9.89l-5.32,31.81h-9.04
			l5.32-31.81h-9.89l1.24-7.45H133L131.74,46.66z"/>
		
			<linearGradient id="SVGID_00000055703886965389167350000008490768684297959322_" gradientUnits="userSpaceOnUse" x1="128.8329" y1="80.0989" x2="36.5438" y2="58.6417">
			<stop  offset="0" style="stop-color:#5DF5FF"/>
			<stop  offset="0.5467" style="stop-color:#55D0FF"/>
			<stop  offset="1" style="stop-color:#4EAEFF"/>
		</linearGradient>
		<path style="fill:url(#SVGID_00000055703886965389167350000008490768684297959322_);" d="M121.4,78.51h-11.62
			c-0.72,0-1.31-0.59-1.31-1.31v-0.37c0-0.72,0.59-1.31,1.31-1.31h11.62c0.72,0,1.31,0.59,1.31,1.31v0.37
			C122.71,77.93,122.12,78.51,121.4,78.51z"/>
		
			<linearGradient id="SVGID_00000032646744416869803490000009421346881010009987_" gradientUnits="userSpaceOnUse" x1="129.621" y1="77.5603" x2="36.7236" y2="55.9617">
			<stop  offset="0" style="stop-color:#5DF5FF"/>
			<stop  offset="0.5467" style="stop-color:#55D0FF"/>
			<stop  offset="1" style="stop-color:#4EAEFF"/>
		</linearGradient>
		<path style="fill:url(#SVGID_00000032646744416869803490000009421346881010009987_);" d="M129.13,78.51h-3.68
			c-0.72,0-1.31-0.59-1.31-1.31v-0.37c0-0.72,0.59-1.31,1.31-1.31h3.68c0.72,0,1.31,0.59,1.31,1.31v0.37
			C130.44,77.93,129.86,78.51,129.13,78.51z"/>
	</g>
</g>
<g>
	
		<linearGradient id="SVGID_00000100371544445657077080000008302190860224725383_" gradientUnits="userSpaceOnUse" x1="-459.4512" y1="-173.2063" x2="-445.2919" y2="-159.5638" gradientTransform="matrix(-1 0 0 -1 -161.5779 -74.8508)">
		<stop  offset="0" style="stop-color:#5DF5FF"/>
		<stop  offset="0.5467" style="stop-color:#55D0FF"/>
		<stop  offset="1" style="stop-color:#4EAEFF"/>
	</linearGradient>
	<polygon style="fill:url(#SVGID_00000100371544445657077080000008302190860224725383_);" points="284.64,85.46 292.17,85.46 
		292.17,93 284.64,93 	"/>
	
		<linearGradient id="SVGID_00000093157097803126242230000010244451933465702046_" gradientUnits="userSpaceOnUse" x1="-459.4512" y1="-158.742" x2="-445.2919" y2="-145.0995" gradientTransform="matrix(-1 0 0 -1 -161.5779 -74.8508)">
		<stop  offset="0" style="stop-color:#5DF5FF"/>
		<stop  offset="0.5467" style="stop-color:#55D0FF"/>
		<stop  offset="1" style="stop-color:#4EAEFF"/>
	</linearGradient>
	<polygon style="fill:url(#SVGID_00000093157097803126242230000010244451933465702046_);" points="284.64,71 292.17,71 
		292.17,78.54 284.64,78.54 	"/>
	
		<linearGradient id="SVGID_00000057139390968302894520000007441158230453627297_" gradientUnits="userSpaceOnUse" x1="-444.6425" y1="-173.2063" x2="-430.4832" y2="-159.5638" gradientTransform="matrix(-1 0 0 -1 -161.5779 -74.8508)">
		<stop  offset="0" style="stop-color:#5DF5FF"/>
		<stop  offset="0.5467" style="stop-color:#55D0FF"/>
		<stop  offset="1" style="stop-color:#4EAEFF"/>
	</linearGradient>
	<polygon style="fill:url(#SVGID_00000057139390968302894520000007441158230453627297_);" points="269.83,85.46 277.36,85.46 
		277.36,93 269.83,93 	"/>
</g>
</svg>
