<svg id="Layer_1" data-name="Layer 1" xmlns="http://www.w3.org/2000/svg" viewBox="0 0 81.86 81.85"><defs><style>.cls-1{fill:#fff;}</style></defs><path class="cls-1" d="M9,17.47a11.6,11.6,0,0,1,2-4.55,9.2,9.2,0,0,1,7.36-3.74c10.71,0,21.42,0,32.12,0a3.33,3.33,0,0,1,2.44,1l19,19a3.36,3.36,0,0,1,1,2.45c0,1.71,0,3.41,0,5.12a3.19,3.19,0,1,1-6.38,0c0-.64,0-1.27,0-2h-.88c-2.85,0-5.7,0-8.55,0A9.6,9.6,0,0,1,47.36,25v-9.4H18.93a3.24,3.24,0,0,0-3.54,3.51v62a3.23,3.23,0,0,0,3.52,3.54c4.55,0,9.11,0,13.66,0a3.22,3.22,0,0,1,3.51,2.69c.29,1.57-.59,2.91-2.35,3.6,0,0-.07.07-.11.1H17.31a5.08,5.08,0,0,0-.51-.17,9.26,9.26,0,0,1-6.46-4.61A24.93,24.93,0,0,1,9,82.69Zm44.78,2.79c0,1.8-.07,3.57,0,5.34a2.78,2.78,0,0,0,2.42,2.61c1.85.16,3.73,0,5.55,0Z" transform="translate(-9 -9.15)"/><path class="cls-1" d="M45.28,91a3.33,3.33,0,0,1-2.47-2.91A7.24,7.24,0,0,1,43,86.2c.45-2.29.9-4.59,1.39-6.88a15.61,15.61,0,0,1,4.32-7.86L76.21,44A3.18,3.18,0,0,1,81,44q4.35,4.34,8.69,8.69a3.19,3.19,0,0,1,0,4.87Q76.06,71.3,62.35,85a17.26,17.26,0,0,1-9.64,4.74c-2,.35-4,.84-6,1.27Zm4.85-7.35c3-.37,5.69-1.12,7.89-3.35Q70.23,68,82.52,55.77c.18-.18.36-.38.47-.5l-4.55-4.54a5.85,5.85,0,0,1-.4.49C70,59.3,61.92,67.41,53.78,75.43A12.92,12.92,0,0,0,50.13,83.65Z" transform="translate(-9 -9.15)"/><path class="cls-1" d="M41,46.24H25.1a3.2,3.2,0,1,1,0-6.39H56.84a3.07,3.07,0,0,1,3,1.87,3,3,0,0,1-.49,3.42,3.25,3.25,0,0,1-2.63,1.11Z" transform="translate(-9 -9.15)"/><path class="cls-1" d="M37.85,52.64H50.79a3.17,3.17,0,0,1,3.05,2.17,3,3,0,0,1-1.05,3.49,3.74,3.74,0,0,1-2,.7c-8.6,0-17.2,0-25.8,0a3.19,3.19,0,1,1,.06-6.38Z" transform="translate(-9 -9.15)"/><path class="cls-1" d="M31.94,65.43c2.18,0,4.36,0,6.55,0a3.2,3.2,0,1,1,0,6.39H25.22a3.2,3.2,0,1,1,0-6.39C27.47,65.42,29.71,65.43,31.94,65.43Z" transform="translate(-9 -9.15)"/></svg>