<svg id="Layer_1" data-name="Layer 1" xmlns="http://www.w3.org/2000/svg" viewBox="0 0 83.39 83.41"><defs><style>.cls-1{fill:#fff;}</style></defs><path class="cls-1" d="M8.34,72.86c0-2,0-4,0-6,.06-7.4,5.3-12.63,12.72-12.67,4,0,8,0,12,0,7.1,0,12.33,4.69,12.71,11.74a135,135,0,0,1-.09,14.92A11.8,11.8,0,0,1,34.43,91.58c-4.87.15-9.76.15-14.64,0A12,12,0,0,1,8.4,80.18c-.11-2.43,0-4.88,0-7.32ZM27,85.4c2.06,0,4.11,0,6.16,0A6.34,6.34,0,0,0,39.6,79q.06-6.1,0-12.21a6.36,6.36,0,0,0-6.41-6.39c-4.07,0-8.14,0-12.21,0a6.33,6.33,0,0,0-6.37,6.42q0,6.11,0,12.21A6.29,6.29,0,0,0,21,85.39C23,85.42,25,85.4,27,85.4Z" transform="translate(-8.3 -8.28)"/><path class="cls-1" d="M27.08,8.33h6.05C40.2,8.37,45.35,13,45.77,20a119.29,119.29,0,0,1,0,14.15A11.76,11.76,0,0,1,34.17,45.74a128.73,128.73,0,0,1-14.83-.08A12.13,12.13,0,0,1,8.4,34.18q-.21-7.17,0-14.35A12,12,0,0,1,19.85,8.38c2.41-.1,4.82,0,7.23,0ZM14.6,27c0,2,0,4,0,6.06a6.35,6.35,0,0,0,6.48,6.5q6,0,12,0a6.39,6.39,0,0,0,6.5-6.51q0-6,0-12a6.34,6.34,0,0,0-6.51-6.47q-6,0-12,0a6.3,6.3,0,0,0-6.47,6.47C14.58,23.05,14.6,25,14.6,27Z" transform="translate(-8.3 -8.28)"/><path class="cls-1" d="M91.68,27c0,2,0,4,0,6,0,7.09-4.59,12.22-11.66,12.66a115.55,115.55,0,0,1-14,0A12.38,12.38,0,0,1,54.26,34a133.4,133.4,0,0,1,.09-14.83A11.8,11.8,0,0,1,65.6,8.4c4.88-.15,9.77-.16,14.65,0A12,12,0,0,1,91.63,19.81c.1,2.4,0,4.81,0,7.22Zm-6.25,0c0-2,0-4,0-6.06A6.29,6.29,0,0,0,79,14.59q-6.06,0-12.11,0A6.32,6.32,0,0,0,60.43,21c0,4,0,8.07,0,12.11a6.38,6.38,0,0,0,6.46,6.45q6.06.06,12.11,0a6.33,6.33,0,0,0,6.42-6.46C85.45,31.1,85.43,29.08,85.43,27.06Z" transform="translate(-8.3 -8.28)"/><path class="cls-1" d="M76.7,69.56h5.87c1.08,0,2.15,0,3.23,0A3.38,3.38,0,0,1,89.06,74,2.92,2.92,0,0,1,86,76.21c-2.71,0-5.41,0-8.11,0H76.7v3.62c0,2,0,3.91-.07,5.86a3.1,3.1,0,0,1-3.21,3,3.19,3.19,0,0,1-3.35-2.89A7.59,7.59,0,0,1,70,84.76V76.23H68.88c-2.7,0-5.41,0-8.11,0a3.33,3.33,0,1,1,.31-6.65H70v-1.1c0-2.61,0-5.21,0-7.82a3.34,3.34,0,0,1,4.38-3.43c1.49.36,2.27,1.44,2.29,3.31,0,2.57,0,5.14,0,7.72Z" transform="translate(-8.3 -8.28)"/></svg>