<svg id="Layer_1" data-name="Layer 1" xmlns="http://www.w3.org/2000/svg" viewBox="0 0 87.83 87.83"><defs><style>.cls-1{fill:#fff;}</style></defs><path class="cls-1" d="M94,66.21a10.41,10.41,0,0,1-3.39,5c-5,4.85-10.06,9.73-15.08,14.62a27.12,27.12,0,0,1-19.7,8q-22.08,0-44.16,0c-3.53,0-5.5-2-5.5-5.53V69c0-3.36,2-5.37,5.4-5.37,2.66,0,5.32,0,8,0a5.23,5.23,0,0,1,3.79,1.51,1,1,0,0,0,.85.21c.71-.19,1.39-.49,2.09-.75-.37-1.56-.83-3.06-1.09-4.59C23.51,50,26.05,41.19,33,33.79c3.72-3.95,7.64-7.71,11.5-11.53a1.14,1.14,0,0,0,.34-1.4c-1.11-3.06-2.17-6.13-3.23-9.21a3,3,0,0,1,1.59-4,3,3,0,0,1,3.21.45c1.25,1,1.92,1,3.08-.09a9.53,9.53,0,0,1,4-2h2.23a9.55,9.55,0,0,1,4.56,2.37,1.8,1.8,0,0,0,2.36-.06,4.82,4.82,0,0,1,1.88-.91,3,3,0,0,1,3.23,4.13c-1,3.11-2.13,6.21-3.23,9.3a1.13,1.13,0,0,0,.31,1.4q4.48,4.43,8.91,8.91a2.27,2.27,0,0,1,.76,1.36,2.53,2.53,0,0,1-.79,1.57,1.46,1.46,0,0,1-1.83,0,5.23,5.23,0,0,1-.69-.64Q66.6,28.81,62,24.19a1.79,1.79,0,0,0-1.42-.59c-3.92,0-7.83,0-11.75,0a1.84,1.84,0,0,0-1.43.57c-4,4-8.07,7.87-11.9,12-7.07,7.6-9,16.48-6.17,26.44a7,7,0,0,0,.28.71c1.38-.41,2.7-.88,4.05-1.18A21.72,21.72,0,0,1,48,63.83l11.51,5.51a6.59,6.59,0,0,1,4.08,7.1c0,.14,0,.28-.07.72,1.08-.81,2-1.42,2.86-2.16,3.72-3.26,7.29-6.69,11.14-9.79A9.41,9.41,0,0,0,81,58.66a27.93,27.93,0,0,0-1.1-12.77A1.66,1.66,0,0,1,81,43.7a1.7,1.7,0,0,1,2.18,1.14.75.75,0,0,1,0,.16,29.85,29.85,0,0,1,1.27,13.53c0,.17,0,.34,0,.51a.68.68,0,0,0,.07.2,6.76,6.76,0,0,1,4.42-.51,6.49,6.49,0,0,1,4.88,4.69l.22.73ZM24.65,90.36c.12,0,.34,0,.57,0,10.46,0,20.92,0,31.38,0a22.56,22.56,0,0,0,14.94-5.57c2.07-1.79,4-3.76,6-5.67,4-3.84,7.91-7.69,11.88-11.53a3.19,3.19,0,0,0,1.11-3.15A3.13,3.13,0,0,0,85.17,63q-8.39,7.41-16.74,14.85A15.63,15.63,0,0,1,63,81c-2.71.92-5.46,1.51-8.31.62-3.48-1.09-7-2.21-10.44-3.32-1.71-.55-3.43-1.08-5.13-1.64a1.66,1.66,0,0,1-1.25-1.9,1.59,1.59,0,0,1,1.46-1.44,3.57,3.57,0,0,1,1.24.22c5.15,1.62,10.28,3.27,15.43,4.88a3.15,3.15,0,0,0,2.33-5.86c-4.14-2-8.27-4-12.45-5.93a17.68,17.68,0,0,0-9.36-1.51c-4.19.43-7.85,2.48-11.87,3.69ZM9.6,78.69v9.77c0,1.42.51,1.93,1.89,1.94h7.89c1.36,0,1.88-.52,1.89-1.85V68.92c0-1.34-.53-1.85-1.89-1.85H11.49c-1.39,0-1.89.51-1.89,1.93ZM45.21,11.52c1,2.86,1.93,5.55,2.9,8.22a.86.86,0,0,0,.69.42c3.92,0,7.83,0,11.75,0a1.07,1.07,0,0,0,.78-.53c.93-2.58,1.81-5.17,2.71-7.76a1.47,1.47,0,0,0,0-.31c-2.7,1.1-4.32.84-6.52-1a4.18,4.18,0,0,0-5.7,0A5.54,5.54,0,0,1,45.21,11.52Z" transform="translate(-6.17 -6)"/><path class="cls-1" d="M49,52.91c0-1.45.56-2.2,1.52-2.3a1.76,1.76,0,0,1,1.88,1.6,2.29,2.29,0,0,0,3.48,1.68,1.74,1.74,0,0,0,1-1.57,1.6,1.6,0,0,0-1-1.55,4.15,4.15,0,0,0-1.48-.34A5.63,5.63,0,0,1,49.1,46a5.32,5.32,0,0,1,3.35-5.83,1.23,1.23,0,0,0,.55-.71,1.8,1.8,0,0,1,1.63-1.41,1.63,1.63,0,0,1,1.72,1.37c.08.53.38.67.78.85a5.3,5.3,0,0,1,3.17,3.89,4.9,4.9,0,0,1,.08.77,1.71,1.71,0,1,1-3.42.25,2.25,2.25,0,0,0-3.53-1.61,2.61,2.61,0,0,0-.92,1.5,1.42,1.42,0,0,0,1,1.56A4.37,4.37,0,0,0,55,47a5.63,5.63,0,0,1,5.36,4.48c.44,2.34-.9,4.6-3.37,5.75a1.26,1.26,0,0,0-.55.72,1.79,1.79,0,0,1-1.72,1.4A1.81,1.81,0,0,1,53,57.9a1.35,1.35,0,0,0-.64-.73A5.26,5.26,0,0,1,49,52.91Z" transform="translate(-6.17 -6)"/><path class="cls-1" d="M76.31,38.38A1.7,1.7,0,0,1,78,36.71a1.71,1.71,0,1,1-.09,3.42A1.7,1.7,0,0,1,76.31,38.38Z" transform="translate(-6.17 -6)"/></svg>