<svg id="Layer_1" data-name="Layer 1" xmlns="http://www.w3.org/2000/svg" viewBox="0 0 86.08 74.84"><defs><style>.cls-1{fill:#fcfcfc;}</style></defs><path class="cls-1" d="M81.73,33.28H10.61V61.37c0,3.53,2,5.56,5.54,5.56H41.68a8.58,8.58,0,0,1,.88,0A1.87,1.87,0,0,1,44.3,68.8a1.85,1.85,0,0,1-1.76,1.84H42c-8.75,0-17.49,0-26.24,0A8.63,8.63,0,0,1,7,63.36a12.22,12.22,0,0,1-.13-2.18q0-14.22,0-28.43c0-2,0-4.09,0-6.13a8.65,8.65,0,0,1,8.34-8.33h.79q30.14,0,60.28,0c3.91,0,6.76,1.69,8.36,5.24a9.48,9.48,0,0,1,.78,3.65c.07,6.28,0,12.57,0,18.85,0,1.36-.74,2.17-1.88,2.17s-1.88-.81-1.88-2.16c0-3.89,0-7.78,0-11.67Zm0-3.82c0-.78,0-1.45,0-2.12A5,5,0,0,0,76.33,22H15.88a4.94,4.94,0,0,0-4.75,2.84c-.75,1.48-.51,3.05-.48,4.62Z" transform="translate(-6.88 -18.27)"/><path class="cls-1" d="M72.37,52A20.57,20.57,0,1,1,51.81,72.55,20.53,20.53,0,0,1,72.37,52ZM55.54,72.48A16.85,16.85,0,1,0,72.45,55.7,16.85,16.85,0,0,0,55.54,72.48Z" transform="translate(-6.88 -18.27)"/><path class="cls-1" d="M23.81,57.58h7c1.4,0,2.26.74,2.24,1.88s-.88,1.84-2.22,1.84H16.47a1.89,1.89,0,0,1-2-1.26A1.71,1.71,0,0,1,15.14,58a3,3,0,0,1,1.4-.37C19,57.56,21.39,57.58,23.81,57.58Z" transform="translate(-6.88 -18.27)"/><path class="cls-1" d="M20,52c-1.17,0-2.34,0-3.51,0a1.89,1.89,0,1,1,0-3.76q3.51,0,7,0a1.87,1.87,0,0,1,2.1,1.86c0,1.15-.8,1.88-2.15,1.9C22.27,52,21.13,52,20,52Z" transform="translate(-6.88 -18.27)"/><path class="cls-1" d="M72.36,75.54c2-2,3.83-3.84,5.69-5.69,1.16-1.17,2.26-1.35,3.11-.52s.72,2-.47,3.18c-2.19,2.19-4.38,4.39-6.58,6.57-1.26,1.26-2.18,1.26-3.43,0-1.72-1.71-3.45-3.42-5.15-5.15a1.84,1.84,0,0,1-.06-2.73,1.86,1.86,0,0,1,2.68.07c.24.21.46.45.69.68Z" transform="translate(-6.88 -18.27)"/></svg>