<svg id="Layer_1" data-name="Layer 1" xmlns="http://www.w3.org/2000/svg" viewBox="0 0 86.05 86.3"><defs><style>.cls-1{fill:#fff;}</style></defs><path class="cls-1" d="M50,95a43.06,43.06,0,0,1-.32-86.11,3,3,0,0,1,3.32,3,3,3,0,0,1-3.2,3c-14.53.55-25.62,7-32.5,19.84C5.45,56.78,19,84,43.68,88.31a36.94,36.94,0,0,0,42.88-30.8c.28-1.87.31-3.76.47-5.64a3,3,0,1,1,6,.26A41.29,41.29,0,0,1,87.3,73.26c-7.11,12-17.67,19.08-31.48,21.21C53.9,94.77,51.93,94.81,50,95Z" transform="translate(-6.99 -8.67)"/><path class="cls-1" d="M47.46,63c0-3.32,0-6.44,0-9.56,0-.3-.37-.68-.67-.87-1.21-.74-2.56-1.3-3.69-2.15-2.81-2.09-4.2-4.89-3.39-8.42a8.79,8.79,0,0,1,6.62-6.85l1.16-.27c0-1.33,0-2.69,0-4.05,0-1.79,1.07-3,2.66-3S52.77,29,52.8,30.8c0,1.1,0,2.21,0,3.32,0,.55.15.77.72.9a11,11,0,0,1,6.69,4.41,2.56,2.56,0,0,1-.26,3.73,2.51,2.51,0,0,1-3.63-.47,6.46,6.46,0,0,0-3.51-2.31v4.27c0,1.27,0,2.54,0,3.81,0,.6.22.83.74,1.07A33.42,33.42,0,0,1,58,51.85c3.44,2.33,4.69,5.64,3.74,9.37a9.49,9.49,0,0,1-8,7.11c-.71.08-1,.28-.92,1,.06,1.13,0,2.27,0,3.41a2.66,2.66,0,1,1-5.32,0c0-1.4,0-2.8,0-4.2a.22.22,0,0,0,0-.1c-1-.35-2.1-.63-3.11-1a13,13,0,0,1-5.69-4.59,2.58,2.58,0,1,1,4.09-3.13A11,11,0,0,0,47.46,63Zm5.42-7.64v7.72a3.78,3.78,0,0,0,3.33-3.56C56.38,57.68,55.05,56,52.88,55.34ZM47.44,40.47a3.16,3.16,0,0,0-2.12,3.45,3,3,0,0,0,2.12,2.78Z" transform="translate(-6.99 -8.67)"/><path class="cls-1" d="M70.81,27.13a3.6,3.6,0,0,1,.48-1Q79.38,18,87.52,10a4.87,4.87,0,0,1,2.14-1.21,2.58,2.58,0,0,1,2.9,1.33,2.86,2.86,0,0,1-.09,3.3,7.13,7.13,0,0,1-.78.87L75.6,30.33l-.85.9c.49,0,.83.05,1.17.05,3.12,0,6.25,0,9.37,0a3,3,0,0,1,3,4,2.93,2.93,0,0,1-2.75,2q-9.18,0-18.36,0a3,3,0,0,1-2.88-3.08q0-8.92.06-17.86a3,3,0,0,1,2.71-3.14,2.93,2.93,0,0,1,3.25,3c0,3.29,0,6.57,0,9.86v.75Z" transform="translate(-6.99 -8.67)"/></svg>