<svg id="Layer_1" data-name="Layer 1" xmlns="http://www.w3.org/2000/svg" viewBox="0 0 77.57 89.83"><defs><style>.cls-1{fill:#fefefe;}</style></defs><path class="cls-1" d="M32.19,95c-1.81-.41-3.67-.68-5.43-1.26a23,23,0,0,1,3.12-44.38A27.22,27.22,0,0,1,33.36,49c1.14-.07,2.28,0,3.36,0,1.34-11.16,7.13-18.58,18.57-20.13C64.7,27.56,71.66,32,76.44,40.17l.47-.36a2.31,2.31,0,0,1,2.7-.06,2.2,2.2,0,0,1,.89,2.47c-.7,2.19-1.43,4.38-2.22,6.55A2.24,2.24,0,0,1,75,49.92c-1.92-1.17-3.8-2.41-5.66-3.68a2.21,2.21,0,0,1-.64-3,2.29,2.29,0,0,1,3-.87l.67.32c-.22-.45-.34-.75-.5-1a16.22,16.22,0,0,0-17.11-8.16,16.53,16.53,0,0,0-13.12,14c-.32,2.45-.3,2.43,1.87,3.43a22.63,22.63,0,0,1,12.55,14,1.16,1.16,0,0,0,1.31.94,17.28,17.28,0,0,0,6.58-1.27l.56-.25a2.33,2.33,0,0,1,3.11,1.13,2.3,2.3,0,0,1-1.3,3.1,20.44,20.44,0,0,1-8.14,1.87c-.31,0-.63,0-.93,0L57,75.61H84.09V13.76c0-2.62-1.38-4-4-4-.75,0-1.7-.2-2.19.17s-.39,1.34-.52,2.05q-.5,2.76-1,5.52a4.93,4.93,0,0,1-5.09,4.37q-11.81,0-23.6,0a4.85,4.85,0,0,1-5.05-4.19c-.5-2.6-.93-5.22-1.4-7.85-1.82,0-3.61-.13-5.37,0A3.24,3.24,0,0,0,33,13.41c0,6.2,0,12.39,0,18.59a5.62,5.62,0,0,1-.12,1.3A2.21,2.21,0,0,1,30.57,35a2.26,2.26,0,0,1-2.1-1.91,6.25,6.25,0,0,1-.06-.87c0-6.2,0-12.4,0-18.59a8,8,0,0,1,6.94-8.36,9.19,9.19,0,0,1,1.48-.09H80.26a8.06,8.06,0,0,1,8.42,8.45q0,35.79,0,71.57c0,5.28-3.36,8.64-8.67,8.65q-15.6,0-31.22,0c-1,0-1.93.05-2.89,0a26.24,26.24,0,0,0-8.23.88c-.47.13-1,.19-1.44.28ZM52.58,72A18.42,18.42,0,1,0,34.16,90.41,18.39,18.39,0,0,0,52.58,72ZM49.51,89.15a2.88,2.88,0,0,0,.41.08q15.39,0,30.78,0a3.4,3.4,0,0,0,3.38-3.44c0-1,0-1.93,0-2.89V80.26H82.9c-8.42,0-16.84,0-25.25,0-1.44,0-2.2.29-2.78,1.71A20.65,20.65,0,0,1,49.51,89.15ZM73.07,9.86H46c.4,2.23.8,4.35,1.13,6.49.11.72.37,1,1.11.95,5.17,0,10.35,0,15.52,0H71c.44,0,.78,0,.88-.59C72.24,14.43,72.66,12.17,73.07,9.86Z" transform="translate(-11.12 -5.17)"/><path class="cls-1" d="M57.84,52.2H54.58a2.3,2.3,0,0,1-2-3.57c1.88-3.19,3.81-6.36,5.74-9.53a2.3,2.3,0,1,1,3.91,2.41c-1,1.74-2.08,3.45-3.12,5.18-.15.25-.28.5-.52.92a37.2,37.2,0,0,1,3.83,0,3.34,3.34,0,0,1,1.83.8,2.05,2.05,0,0,1,.14,2.81C62.16,54.19,60,57.12,57.75,60a2.21,2.21,0,0,1-3.19.42,2.28,2.28,0,0,1-.45-3.2c1-1.42,2.1-2.81,3.15-4.21C57.43,52.8,57.58,52.56,57.84,52.2Z" transform="translate(-11.12 -5.17)"/><path class="cls-1" d="M30.73,44.63A2.7,2.7,0,1,1,33.41,42,2.76,2.76,0,0,1,30.73,44.63Z" transform="translate(-11.12 -5.17)"/><path class="cls-1" d="M72.48,64a2.67,2.67,0,1,1-.06-5.33A2.67,2.67,0,1,1,72.48,64Z" transform="translate(-11.12 -5.17)"/><path class="cls-1" d="M32.51,57.64h3.76c0,.77,0,1.52,0,2.27s.18.91.87,1.08c1.25.31,2.45.82,3.74,1.26L39.43,66c-1.39-.44-2.69-.93-4-1.22a4.12,4.12,0,0,0-2,.19,1.74,1.74,0,0,0-.54,3.12,18.15,18.15,0,0,0,2.67,1.47,33.44,33.44,0,0,1,3.08,1.63,6,6,0,0,1,2.73,6,6.21,6.21,0,0,1-4,5.13c-.38.16-.76.28-1.22.45v3.51H32.25c0-.85,0-1.72,0-2.58,0-.56-.16-.74-.74-.89a38.35,38.35,0,0,1-3.77-1.34c-.58-.21-.77-.57-.49-1.22.43-1,.75-2,1.1-3a18.32,18.32,0,0,0,3.16,1.37,10.44,10.44,0,0,0,3.44.12,2,2,0,0,0,1.72-1.76,2.16,2.16,0,0,0-.93-2.22,17.52,17.52,0,0,0-2.2-1.24c-1.06-.55-2.19-1-3.2-1.6a5.51,5.51,0,0,1-2.84-5.52,5.73,5.73,0,0,1,4-5.07,1.28,1.28,0,0,0,1-1.56C32.46,59.14,32.51,58.41,32.51,57.64Z" transform="translate(-11.12 -5.17)"/></svg>