<svg id="Layer_1" data-name="Layer 1" xmlns="http://www.w3.org/2000/svg" viewBox="0 0 86.06 86.31"><defs><style>.cls-1{fill:#fff;}</style></defs><path class="cls-1" d="M50.05,94.92A43,43,0,0,1,41.47,9.76a71.6,71.6,0,0,1,8-.87A3,3,0,0,1,53,11.73c.06,1.87-1.23,3.08-3.33,3.12a37,37,0,0,0-34.3,24C7.18,60.44,20.91,84.48,43.6,88.3A36.94,36.94,0,0,0,86.47,58.16,61.4,61.4,0,0,0,87,51.94a3,3,0,1,1,6,.22,41.52,41.52,0,0,1-6.42,22.3c-7.18,11.36-17.52,18-30.79,20-.65.1-1.29.17-1.94.22C52.59,94.79,51.32,94.85,50.05,94.92Z" transform="translate(-6.97 -8.61)"/><path class="cls-1" d="M47.46,68.53c-1.52-.6-3-1.07-4.33-1.74a12.23,12.23,0,0,1-4.56-4,2.58,2.58,0,1,1,4.08-3.15A11,11,0,0,0,47.46,63c0-3.34,0-6.52,0-9.69,0-.25-.35-.56-.61-.72-1.25-.75-2.62-1.33-3.78-2.19-2.81-2.1-4.17-4.91-3.36-8.44a8.82,8.82,0,0,1,6.56-6.8c.37-.1.76-.17,1.22-.28,0-1.36,0-2.72,0-4.08a2.67,2.67,0,0,1,2.7-2.93,2.64,2.64,0,0,1,2.63,2.88c0,1.08.05,2.15,0,3.23,0,.67.17.94.86,1.1A10.89,10.89,0,0,1,60.1,39.3c1.07,1.41,1,2.85-.11,3.82s-2.51.73-3.79-.51c-.93-.9-2-1.65-3.27-2.64-.07.63-.13.87-.13,1.11,0,2.44,0,4.88,0,7.32a1.08,1.08,0,0,0,.77,1.15,32.65,32.65,0,0,1,4.33,2.21c3.19,2.1,4.77,5.07,4,8.92a9.28,9.28,0,0,1-7.14,7.47c-.61.17-1.52.1-1.79.49s-.12,1.31-.13,2,0,1.3,0,2a2.68,2.68,0,1,1-5.34,0C47.45,71.19,47.46,69.79,47.46,68.53ZM52.8,55.28v7.31a3.5,3.5,0,0,0,.07.45,3.7,3.7,0,0,0,3.32-3.32C56.47,57.83,55.24,56.15,52.8,55.28Zm-5.4-8.49V40.5a3,3,0,0,0-2.09,2.81A3.42,3.42,0,0,0,47.4,46.79Z" transform="translate(-6.97 -8.61)"/><path class="cls-1" d="M82.49,14.64c-3.55,0-7.09,0-10.64,0a3,3,0,0,1-1-5.73,4.56,4.56,0,0,1,1.52-.23c5.86,0,11.72-.05,17.58-.06A3,3,0,0,1,93,11.75q0,8.92,0,17.86a3,3,0,1,1-6,.09c0-3.16,0-6.32,0-9.47V19c-.43.41-.69.63-.94.88Q78,28,69.86,36.08a3.38,3.38,0,0,1-2.46,1.21,2.8,2.8,0,0,1-2.63-1.55,2.91,2.91,0,0,1,.16-3.14,6.39,6.39,0,0,1,.78-.87q8.08-8.07,16.16-16.14a4.49,4.49,0,0,1,.91-.57Z" transform="translate(-6.97 -8.61)"/></svg>