<svg id="Layer_1" data-name="Layer 1" xmlns="http://www.w3.org/2000/svg" viewBox="0 0 88.5 84.4"><defs><style>.cls-1{fill:#fff;}</style></defs><path class="cls-1" d="M94.33,36.78v43.9a1.69,1.69,0,0,0-.13.31A12.84,12.84,0,0,1,81,92.11H19.15A14,14,0,0,1,17,92,12.86,12.86,0,0,1,5.84,78.91q0-20,0-39.92a24.82,24.82,0,0,1,.35-4.12A20.17,20.17,0,0,1,24.75,18.46c4.17-.17,8.35-.09,12.52-.06a5.84,5.84,0,0,0,2.95-.75q7.72-4.23,15.49-8.36a12.86,12.86,0,0,1,17.63,5.39c.55,1,1,2.12,1.61,3.15a1.3,1.3,0,0,0,.88.6A20.33,20.33,0,0,1,93.48,32.92C93.84,34.18,94.05,35.49,94.33,36.78ZM90.68,73.69H89.44c-4.29,0-8.59.12-12.87-.11-7.38-.4-12.94-7.76-11.55-15a12.94,12.94,0,0,1,12.89-10.7H90.58c0-2.07.06-4,0-6a8.89,8.89,0,0,0-6.9-8.45,19.16,19.16,0,0,0-4.29-.28q-30.36,0-60.74,0a8.77,8.77,0,0,0-5.31,1.76C10.44,37,9.49,40,9.5,43.43c0,11.75,0,23.5,0,35.25a11.55,11.55,0,0,0,.24,2.49c1,4.46,4.67,7.27,9.44,7.27q30.88,0,61.77,0h.87a9.21,9.21,0,0,0,8.33-6.34C91,79.36,90.52,76.56,90.68,73.69ZM26.42,29.26l.07.16.42,0c5.59,0,11.18,0,16.77,0a3.24,3.24,0,0,0,1.38-.38C51.33,25.7,57.58,22.32,63.84,19l5.89-3.19c-.27-.37-.47-.69-.7-1a9.23,9.23,0,0,0-11.86-2.1l-24,12.92ZM90.55,51.64a3.5,3.5,0,0,0-.41-.07c-4.31,0-8.63-.08-13,.06A9.17,9.17,0,0,0,77.49,70c4.17.07,8.34,0,12.52,0,.16,0,.33,0,.54,0Zm-14-22.26L71.41,19.07,52.5,29.25l0,.13ZM11,31.86a30.79,30.79,0,0,1,3.35-1.61,35.39,35.39,0,0,1,3.6-.78,4,4,0,0,0,1-.41q6-3.22,12.08-6.49c.2-.11.38-.25.75-.5H26a15.78,15.78,0,0,0-6.22,1.25A16.63,16.63,0,0,0,11,31.86Zm66.26-9.39c1.13,2.25,2.19,4.41,3.3,6.55a1.27,1.27,0,0,0,.83.41,22.55,22.55,0,0,1,3.31.47c1.53.48,3,1.2,4.37,1.79C87.64,27.52,81.68,22.78,77.24,22.47Z" transform="translate(-5.84 -7.71)"/><path class="cls-1" d="M77.71,55.26a5.53,5.53,0,1,1-5.5,5.57A5.52,5.52,0,0,1,77.71,55.26Zm0,7.34a1.84,1.84,0,0,0,1.85-1.78,1.84,1.84,0,1,0-3.68,0A1.84,1.84,0,0,0,77.73,62.6Z" transform="translate(-5.84 -7.71)"/></svg>